<svg width="64" height="21" viewBox="0 0 64 21" xmlns="http://www.w3.org/2000/svg"><path d="M27.357 10.92c0 2.965-2.32 5.149-5.169 5.149-2.849 0-5.168-2.184-5.168-5.148 0-2.985 2.32-5.148 5.168-5.148 2.85 0 5.17 2.163 5.17 5.148zm-2.264 0c0-1.852-1.344-3.12-2.905-3.12-1.56 0-2.904 1.268-2.904 3.12 0 1.833 1.344 3.122 2.904 3.122 1.56 0 2.905-1.286 2.905-3.121zm13.347 0c0 2.965-2.306 5.149-5.137 5.149-2.832 0-5.138-2.184-5.138-5.148 0-2.985 2.306-5.148 5.138-5.148 2.831 0 5.137 2.163 5.137 5.148zm-2.25 0c0-1.852-1.337-3.12-2.887-3.12s-2.888 1.268-2.888 3.12c0 1.833 1.338 3.122 2.888 3.122 1.55 0 2.887-1.286 2.887-3.121zm12.985-4.83v9.244c0 3.803-2.243 5.364-4.897 5.364-2.498 0-3.999-1.68-4.563-3.044l1.971-.819c.352.84 1.209 1.832 2.595 1.832 1.696 0 2.752-1.052 2.752-3.023v-.742h-.077c-.509.623-1.484 1.17-2.71 1.17-2.574 0-4.935-2.243-4.935-5.13 0-2.905 2.361-5.169 4.935-5.169 1.23 0 2.205.547 2.71 1.15h.077v-.84h2.142v.007zm-1.99 4.859c0-1.815-1.208-3.142-2.75-3.142-1.561 0-2.867 1.327-2.867 3.142 0 1.794 1.306 3.1 2.866 3.1 1.543 0 2.752-1.306 2.752-3.1zM53.069.897v14.977h-2.264V.897h2.264zm8.864 11.72l1.755 1.17c-.564.84-1.93 2.282-4.29 2.282-2.926 0-5.11-2.264-5.11-5.148 0-3.062 2.204-5.148 4.855-5.148 2.671 0 3.978 2.125 4.41 3.278l.233.585-6.886 2.849c.526 1.034 1.344 1.56 2.497 1.56 1.153-.003 1.95-.568 2.536-1.428zm-5.402-1.853l4.604-1.912c-.254-.644-1.013-1.094-1.912-1.094-1.153.004-2.751 1.017-2.692 3.006zM15.79 7.515c.066.452.098.898.098 1.316 0 1.637-.45 3.668-1.892 5.11-1.403 1.463-3.197 2.243-5.58 2.243-4.409 0-8.115-3.588-8.115-7.997C.305 3.78 4.011.2 8.421.2c2.437 0 4.172.955 5.481 2.205l-1.54 1.54c-.936-.878-2.204-1.56-3.938-1.56-3.219 0-5.733 2.583-5.733 5.802C2.69 11.405 5.205 14 8.424 14c2.086 0 3.277-.84 4.036-1.599.617-.616 1.024-1.497 1.185-2.703H8.493V7.515h7.297z" fill="#FFF"/></svg>