<svg width="120" height="120" viewBox="0 0 120 120" xmlns="http://www.w3.org/2000/svg"><path d="M90.86 30l-9.585 9.105C75.525 33.035 68.337 30 59.711 30c-8.147 0-15.095 2.955-20.846 8.865-5.91 5.75-8.865 12.7-8.865 20.846 0 8.306 2.955 15.335 8.865 21.085 5.75 5.91 12.7 8.865 20.846 8.865s15.255-2.875 21.325-8.625l-5.032-5.032c-4.632 4.313-10.063 6.47-16.293 6.47-6.23 0-11.501-2.237-15.814-6.71-4.473-4.312-6.709-9.664-6.709-16.053 0-6.23 2.236-11.501 6.709-15.814 4.313-4.473 9.584-6.709 15.814-6.709 6.55 0 11.98 2.316 16.293 6.949l-8.865 8.386h23.72V30z" fill="#646464"/></svg>