<svg xmlns="http://www.w3.org/2000/svg" width="201.8" height="14" viewBox="0 0 201.8 14"><path d="M6.3 10.8V5.9H1.1v4.9H0V0h1.1v4.8h5.1V0h1.1v10.8h-1zm8.2 0v-.7c-.6.6-1.1.8-2.1.8s-1.6-.2-2.1-.7c-.4-.4-.6-.9-.6-1.5 0-1.3.9-2.1 2.6-2.1h2.2v-.8c0-1.1-.5-1.6-1.9-1.6-1 0-1.4.2-1.9.8l-.7-.6c.7-.9 1.4-1.1 2.6-1.1 2 0 3 .9 3 2.5v5h-1.1zm0-3.4h-2.1c-1.1 0-1.7.5-1.7 1.3 0 .9.5 1.3 1.7 1.3.6 0 1.2 0 1.7-.5.3-.2.4-.7.4-1.3v-.8zm8.5 3.4V6.2c0-1.3-.7-2-1.8-2s-1.8.7-1.8 2v4.6h-1.1V3.4h1.1v.8c.5-.6 1.3-.9 2.1-.9s1.5.2 1.9.7c.5.5.8 1.2.8 2.1v4.8H23zm8.2 0v-.9c-.6.8-1.3 1-2.1 1s-1.4-.3-1.8-.6c-.8-.8-.9-2-.9-3.2 0-1.2.2-2.4.9-3.2.4-.4 1.1-.6 1.8-.6.8 0 1.5.2 2.1 1V0h1.1v10.8h-1.1zm-1.9-6.6c-1.6 0-1.9 1.4-1.9 2.8s.3 2.8 1.9 2.8 1.9-1.4 1.9-2.8-.2-2.8-1.9-2.8zm5.5 3v-1h4.1v1h-4.1zm9 3.7c-1.3 0-2.2-.3-3.1-1.1l.7-.7c.6.6 1.4.9 2.3.9 1.2 0 2-.4 2-1.3 0-.6-.4-1-1.2-1.1l-1.2-.1c-1.5-.1-2.2-.8-2.2-2 0-1.4 1.1-2.2 2.7-2.2 1.1 0 2 .3 2.7.8l-.7.7c-.5-.4-1.2-.6-2-.6-1.1 0-1.7.5-1.7 1.2 0 .6.4 1 1.3 1.1l1.2.1c1.3.1 2.2.6 2.2 2s-1.2 2.3-3 2.3zm5.8-3.5c0 1.6.8 2.6 2.2 2.6.9 0 1.4-.3 1.9-.8l.7.6c-.8.8-1.5 1.1-2.7 1.1-2 0-3.2-1.2-3.2-3.8 0-2.4 1.2-3.8 3.1-3.8 1.9 0 3.1 1.4 3.1 3.6v.5h-5.1zm3.7-2.1c-.3-.7-1-1.1-1.7-1.1-.8 0-1.5.4-1.7 1.1-.2.4-.2.6-.2 1.2h3.9c-.1-.6-.1-.8-.3-1.2zm5.5 5.5c-1.3 0-1.9-.8-1.9-2V0H58v8.7c0 .7.2 1.1 1 1.1h.6v.9h-.8zm2.9-3.4c0 1.6.8 2.6 2.2 2.6.9 0 1.4-.3 1.9-.8l.7.6c-.8.8-1.5 1.1-2.7 1.1-2 0-3.2-1.2-3.2-3.8 0-2.4 1.2-3.8 3.1-3.8 1.9 0 3.1 1.4 3.1 3.6v.5h-5.1zm3.7-2.1c-.3-.7-1-1.1-1.7-1.1-.8 0-1.5.4-1.7 1.1-.2.4-.2.6-.2 1.2h3.9c-.1-.6-.1-.8-.3-1.2zm6.6 5.6c-1.9 0-3.3-1.3-3.3-3.8s1.4-3.8 3.3-3.8c1 0 1.7.3 2.4 1.1l-.7.7c-.6-.6-1-.8-1.7-.8s-1.3.3-1.7.8c-.3.5-.5 1.1-.5 2 0 .9.1 1.5.5 2 .4.6 1 .8 1.7.8s1.1-.2 1.7-.8l.7.7c-.8.8-1.4 1.1-2.4 1.1zm6.6-.1c-1.3 0-1.9-.9-1.9-2V4.2h-.9v-.8h.9V1.1h1.1v2.3h1.6v.8h-1.6v4.5c0 .7.3 1.1 1 1.1h.6v.9h-.8zm3.5-3.4c0 1.6.8 2.6 2.2 2.6.9 0 1.4-.3 1.9-.8l.7.6c-.8.8-1.5 1.1-2.7 1.1-2 0-3.2-1.2-3.2-3.8 0-2.4 1.2-3.8 3.1-3.8 1.9 0 3.1 1.4 3.1 3.6v.5h-5.1zm3.7-2.1c-.3-.7-1-1.1-1.7-1.1-.8 0-1.5.4-1.7 1.1-.2.4-.2.6-.2 1.2H86c-.1-.6-.1-.8-.2-1.2zm8 5.5v-.9c-.6.8-1.3 1-2.1 1s-1.4-.3-1.8-.6c-.8-.8-.9-2-.9-3.2 0-1.2.2-2.4.9-3.2.4-.4 1.1-.6 1.8-.6.8 0 1.5.2 2.1 1V0h1.1v10.8h-1.1zM92 4.2c-1.6 0-1.9 1.4-1.9 2.8s.3 2.8 1.9 2.8 1.9-1.4 1.9-2.8-.3-2.8-1.9-2.8zm10.7 0v6.6h-1.1V4.2h-1v-.8h1V2c0-1.1.6-2 1.9-2h.8v.9h-.6c-.7 0-1 .4-1 1.1v1.4h1.6v.8h-1.6zm7.9 5.8c-.5.5-1.2.8-2.1.8s-1.6-.3-2.1-.8c-.8-.8-.9-1.8-.9-3 0-1.1.2-2.2.9-3 .5-.5 1.2-.8 2.1-.8s1.6.3 2.1.8c.8.8.9 1.8.9 3s-.1 2.3-.9 3zm-.8-5.2c-.3-.3-.8-.5-1.4-.5-.5 0-1 .2-1.3.5-.5.5-.6 1.5-.6 2.3 0 .8.1 1.8.6 2.3.3.3.8.5 1.3.5s1-.2 1.4-.5c.5-.5.6-1.5.6-2.3 0-.9 0-1.8-.6-2.3zm8.2 0c-.4-.4-.7-.5-1.3-.5-1.1 0-1.8.9-1.8 2v4.6h-1.1V3.4h1.1v.9c.4-.6 1.2-1 2.1-1 .7 0 1.3.2 1.8.7l-.8.8zm7.8 7.8c-.2.4-.3.7-.5.9-.4.4-.9.5-1.5.5h-.5v-1h.3c.8 0 1-.2 1.2-.9l.5-1.5-2.7-7.3h1.2l2 6 2-6h1.2l-3.2 9.3zm9.6-2.6c-.5.5-1.2.8-2.1.8s-1.6-.3-2.1-.8c-.8-.8-.9-1.8-.9-3 0-1.1.2-2.2.9-3 .5-.5 1.2-.8 2.1-.8s1.6.3 2.1.8c.8.8.9 1.8.9 3s-.2 2.3-.9 3zm-.8-5.2c-.3-.3-.8-.5-1.4-.5-.5 0-1 .2-1.3.5-.5.5-.6 1.5-.6 2.3 0 .8.1 1.8.6 2.3.3.3.8.5 1.3.5s1-.2 1.4-.5c.5-.5.6-1.5.6-2.3 0-.9-.1-1.8-.6-2.3zm8.7 6V10c-.5.6-1.3.9-2.1.9s-1.5-.2-1.9-.7c-.5-.5-.8-1.2-.8-2.1V3.4h1.1V8c0 1.3.7 2 1.8 2s1.9-.7 1.9-2V3.4h1.1v7.4h-1.1zm7.9-6c-.4-.4-.7-.5-1.3-.5-1.1 0-1.8.9-1.8 2v4.6H147V3.4h1.1v.9c.4-.6 1.2-1 2.1-1 .7 0 1.3.2 1.8.7l-.8.8zm15.6 6V6.2c0-1.3-.7-2-1.8-2s-1.9.7-1.9 1.9v4.7H162V6.2c0-1.3-.7-2-1.8-2s-1.9.7-1.9 2v4.6h-1.1V3.4h1.1v.8c.5-.6 1.3-.9 2.1-.9 1 0 1.8.4 2.3 1.2.6-.8 1.4-1.2 2.4-1.2.8 0 1.5.3 1.9.7.5.5.8 1.2.8 2.1v4.8h-1zm8.4 0V10c-.5.6-1.3.9-2.1.9s-1.5-.2-1.9-.7c-.5-.5-.8-1.2-.8-2.1V3.4h1.1V8c0 1.3.7 2 1.8 2s1.9-.7 1.9-2V3.4h1.1v7.4h-1.1zm13.3 0V6.2c0-1.3-.7-2-1.8-2s-1.9.7-1.9 1.9v4.7h-1.1V6.2c0-1.3-.7-2-1.8-2s-1.9.7-1.9 2v4.6h-1V3.4h1.1v.8c.5-.6 1.3-.9 2.1-.9 1 0 1.8.4 2.3 1.2.6-.8 1.4-1.2 2.4-1.2.8 0 1.5.3 1.9.7.5.5.8 1.2.8 2.1v4.8h-1.1zm3.7 0V9.4h1.4v1.4h-1.4zm4.1 0V9.4h1.4v1.4h-1.4zm4.1 0V9.4h1.4v1.4h-1.4z" fill="#DB0000"/></svg>