<svg width="248" height="34" viewBox="0 0 248 34" xmlns="http://www.w3.org/2000/svg"><title>BEATS SOLO + WIRELESS + 2</title><path d="M.903 33h7.998c3.655 0 5.16-2.451 5.16-5.848v-6.923c0-3.182-1.505-4.257-2.795-4.687 1.247-.473 2.408-1.763 2.408-4.429V6.211c0-3.096-1.075-5.203-5.117-5.203H.903V33zm6.321-14.577c1.548 0 1.892.731 1.892 2.064v5.848c0 1.419-.344 2.15-1.892 2.15H5.762V18.423h1.462zm0-13.072c1.333 0 1.677.731 1.677 2.021v4.042c0 1.333-.387 2.236-1.677 2.236H5.762V5.351h1.462zm8.242-4.343V33h11.309v-4.859h-6.45v-9.245h4.859v-4.859h-4.859V5.652h6.192V1.008H15.466zM36.436 33h4.687L36.952 1.008H31.19L27.277 33h4.343l.602-6.02h3.569l.645 6.02zm-2.451-22.618l1.29 11.825h-2.537l1.247-11.825zm5.189-9.374v4.644h4.085V33h4.816V5.652h4.085V1.008H39.174zM58.897.707c-3.827 0-5.977 1.978-5.977 6.235v1.032c0 3.182.602 5.246 2.666 7.912l3.096 3.956c1.763 2.279 1.978 3.096 1.978 5.375v.731c0 1.978-.43 2.752-1.591 2.752-1.118 0-1.591-.774-1.591-2.236v-5.59h-4.816v6.407c0 3.956 2.064 6.063 5.934 6.063h.946c4.257 0 6.278-2.795 6.278-7.482V24.83c0-3.612-.688-5.246-2.881-8.084l-3.096-3.999c-1.634-2.107-1.978-3.096-1.978-4.902v-.602c0-1.505.258-2.236 1.419-2.236s1.376.817 1.376 1.892V11.5h4.687V6.254c0-3.784-1.548-5.547-5.547-5.547h-.903zm18.333 0c-3.827 0-5.977 1.978-5.977 6.235v1.032c0 3.182.602 5.246 2.666 7.912l3.096 3.956c1.763 2.279 1.978 3.096 1.978 5.375v.731c0 1.978-.43 2.752-1.591 2.752-1.118 0-1.591-.774-1.591-2.236v-5.59h-4.816v6.407c0 3.956 2.064 6.063 5.934 6.063h.946c4.257 0 6.278-2.795 6.278-7.482V24.83c0-3.612-.688-5.246-2.881-8.084l-3.096-3.999c-1.634-2.107-1.978-3.096-1.978-4.902v-.602c0-1.505.258-2.236 1.419-2.236s1.376.817 1.376 1.892V11.5h4.687V6.254c0-3.784-1.548-5.547-5.547-5.547h-.903zm21.357 7.31c0-4.386-1.505-7.31-6.235-7.31h-.817C86.977.707 85.3 3.631 85.3 8.06v17.802c0 4.472 1.634 7.525 6.278 7.525h.817c4.687 0 6.192-3.053 6.192-7.525V8.017zm-4.945 18.189c0 1.376-.344 2.451-1.634 2.451-1.376 0-1.763-1.075-1.763-2.451V7.802c0-1.634.473-2.451 1.72-2.451 1.118 0 1.677.774 1.677 2.451v18.404zm6.522-25.198V33h10.793v-4.945h-5.934V1.008h-4.859zm25.098 7.009c0-4.386-1.505-7.31-6.235-7.31h-.817c-4.558 0-6.235 2.924-6.235 7.353v17.802c0 4.472 1.634 7.525 6.278 7.525h.817c4.687 0 6.192-3.053 6.192-7.525V8.017zm-4.945 18.189c0 1.376-.344 2.451-1.634 2.451-1.376 0-1.763-1.075-1.763-2.451V7.802c0-1.634.473-2.451 1.72-2.451 1.118 0 1.677.774 1.677 2.451v18.404zm27.885-25.198l-2.15 20.683-2.193-20.683h-4.902L142.956 33h5.375l2.064-18.619L152.416 33h5.203l4.085-31.992h-4.558l-2.236 20.726-2.193-20.726h-4.515zm19.121 0h-4.859V33h4.859V1.008zm6.565 4.343h1.29c1.462 0 1.763.688 1.763 2.064v4.472c0 1.419-.43 2.279-1.763 2.279h-1.29V5.351zm0 13.373h1.247c1.548 0 1.806.602 1.806 2.021v9.632c0 1.72.258 2.279.473 2.623h4.816v-.215c-.215-.473-.473-1.075-.473-2.365V19.197c0-2.15-1.032-3.01-2.107-3.483.86-.387 2.107-1.419 2.107-4.085V5.953c0-3.569-1.634-4.945-4.859-4.945h-7.869V33h4.859V18.724zm9.446-17.716V33h11.309v-4.859h-6.45v-9.245h4.859v-4.859h-4.859V5.652h6.192V1.008h-11.051zm12.456 0V33h10.793v-4.945h-5.934V1.008h-4.859zm11.94 0V33h11.309v-4.859h-6.45v-9.245h4.859v-4.859h-4.859V5.652h6.192V1.008H207.73zm18.304-.301c-3.827 0-5.977 1.978-5.977 6.235v1.032c0 3.182.602 5.246 2.666 7.912l3.096 3.956c1.763 2.279 1.978 3.096 1.978 5.375v.731c0 1.978-.43 2.752-1.591 2.752-1.118 0-1.591-.774-1.591-2.236v-5.59h-4.816v6.407c0 3.956 2.064 6.063 5.934 6.063h.946c4.257 0 6.278-2.795 6.278-7.482V24.83c0-3.612-.688-5.246-2.881-8.084l-3.096-3.999c-1.634-2.107-1.978-3.096-1.978-4.902v-.602c0-1.505.258-2.236 1.419-2.236s1.376.817 1.376 1.892V11.5h4.687V6.254c0-3.784-1.548-5.547-5.547-5.547h-.903zm14.262 0c-3.827 0-5.977 1.978-5.977 6.235v1.032c0 3.182.602 5.246 2.666 7.912l3.096 3.956c1.763 2.279 1.978 3.096 1.978 5.375v.731c0 1.978-.43 2.752-1.591 2.752-1.118 0-1.591-.774-1.591-2.236v-5.59h-4.816v6.407c0 3.956 2.064 6.063 5.934 6.063h.946c4.257 0 6.278-2.795 6.278-7.482V24.83c0-3.612-.688-5.246-2.881-8.084l-3.096-3.999c-1.634-2.107-1.978-3.096-1.978-4.902v-.602c0-1.505.258-2.236 1.419-2.236s1.376.817 1.376 1.892V11.5h4.687V6.254c0-3.784-1.548-5.547-5.547-5.547h-.903zM130.864 3.568c.456 0 .696.264.696.936v1.152c0 .864-.024 1.416-.768 2.736l-1.56 2.76c-1.728 3.024-2.088 4.176-2.088 6.504V19h7.392v-5.976H131.8v3.432h-2.4c0-.72.096-1.368 1.704-3.672.528-.768 1.248-1.728 1.728-2.448 1.488-2.232 1.584-3.072 1.584-5.16v-.888c0-2.4-1.296-3.312-3.312-3.312h-.552c-2.256 0-2.952 1.608-2.952 3.312v3.264h2.592V4.504c0-.672.168-.936.672-.936z" fill="#DB0000" fill-rule="evenodd"/></svg>