<svg width="127" height="34" viewBox="0 0 127 34" xmlns="http://www.w3.org/2000/svg"><title>BEATS PILL + +</title><path d="M.903 33h7.998c3.655 0 5.16-2.451 5.16-5.848v-6.923c0-3.182-1.505-4.257-2.795-4.687 1.247-.473 2.408-1.763 2.408-4.429V6.211c0-3.096-1.075-5.203-5.117-5.203H.903V33zm6.321-14.577c1.548 0 1.892.731 1.892 2.064v5.848c0 1.419-.344 2.15-1.892 2.15H5.762V18.423h1.462zm0-13.072c1.333 0 1.677.731 1.677 2.021v4.042c0 1.333-.387 2.236-1.677 2.236H5.762V5.351h1.462zm8.242-4.343V33h11.309v-4.859h-6.45v-9.245h4.859v-4.859h-4.859V5.652h6.192V1.008H15.466zM36.436 33h4.687L36.952 1.008H31.19L27.277 33h4.343l.602-6.02h3.569l.645 6.02zm-2.451-22.618l1.29 11.825h-2.537l1.247-11.825zm5.189-9.374v4.644h4.085V33h4.816V5.652h4.085V1.008H39.174zM58.897.707c-3.827 0-5.977 1.978-5.977 6.235v1.032c0 3.182.602 5.246 2.666 7.912l3.096 3.956c1.763 2.279 1.978 3.096 1.978 5.375v.731c0 1.978-.43 2.752-1.591 2.752-1.118 0-1.591-.774-1.591-2.236v-5.59h-4.816v6.407c0 3.956 2.064 6.063 5.934 6.063h.946c4.257 0 6.278-2.795 6.278-7.482V24.83c0-3.612-.688-5.246-2.881-8.084l-3.096-3.999c-1.634-2.107-1.978-3.096-1.978-4.902v-.602c0-1.505.258-2.236 1.419-2.236s1.376.817 1.376 1.892V11.5h4.687V6.254c0-3.784-1.548-5.547-5.547-5.547h-.903zm20.182 19.006c3.311 0 4.988-2.064 4.988-5.848V6.297c0-3.827-1.548-5.289-4.988-5.289h-7.697V33h4.859V19.713h2.838zM76.241 5.351h1.247c1.419 0 1.677.946 1.677 2.193v5.246c0 1.29-.215 2.322-1.677 2.322h-1.247V5.351zm14.047-4.343h-4.859V33h4.859V1.008zm1.706 0V33h10.793v-4.945h-5.934V1.008h-4.859zm11.94 0V33h10.793v-4.945h-5.934V1.008h-4.859zm14.269 25.187h3.913V20.82h4.601v-3.655h-4.601v-5.418h-3.913v5.418h-4.601v3.655h4.601v5.375z" fill="#DB0000" fill-rule="evenodd"/></svg>