<svg width="186" height="80" viewBox="0 0 186 80" xmlns="http://www.w3.org/2000/svg"><title>Artboard 7</title><g fill="none" fill-rule="evenodd"><path d="M9.53.496L7.48 20.217 5.387.496H.715L4.527 31h5.125l1.967-17.753L13.549 31h4.96L22.405.496h-4.346l-2.133 19.762L13.835.496H9.529zm18.826 17.097h3.157V31h4.634V.496h-4.633v12.218h-3.157V.496h-4.633V31h4.633V17.593zM38.368.496V31h10.783v-4.633h-6.15v-8.815h4.634v-4.633h-4.633V4.924h5.904V.496H38.368zm12.472 0V31h10.783v-4.633h-6.15v-8.815h4.633v-4.633h-4.633V4.924h5.904V.496H50.84zm12.472 0V31h10.291v-4.715h-5.657V.496h-4.633zm11.98 0V31h10.784v-4.633h-6.15v-8.815h4.632v-4.633h-4.633V4.924h5.904V.496H75.293zm17.105 4.141h1.23c1.395 0 1.681.656 1.681 1.968v4.264c0 1.353-.41 2.173-1.68 2.173h-1.23V4.637zm0 12.751h1.19c1.475 0 1.721.574 1.721 1.927v9.184c0 1.64.246 2.173.451 2.501h4.593v-.205c-.206-.451-.452-1.025-.452-2.255V17.839c0-2.05-.984-2.87-2.009-3.321.82-.369 2.01-1.353 2.01-3.895V5.211c0-3.403-1.558-4.715-4.633-4.715h-7.504V31h4.633V17.388zM106.681 31h7.094c3.813 0 5.206-2.337 5.206-6.068V6.359c0-3.608-1.23-5.863-5.206-5.863h-7.094V31zm4.633-26.363h1.313c1.148 0 1.599.615 1.599 2.378v17.179c0 1.64-.41 2.378-1.805 2.378h-1.107V4.637zm9.808-4.141V31h10.783v-4.633h-6.15v-8.815h4.632v-4.633h-4.633V4.924h5.904V.496h-10.536zM141.712 31h4.469L142.202.496h-5.494L132.98 31h4.14l.575-5.74h3.403l.614 5.74zm-2.337-21.566l1.23 11.275h-2.42l1.19-11.275zm8.043-8.938V31h10.291v-4.715h-5.657V.496h-4.633zm11.98 0V31h10.784v-4.633h-6.15v-8.815h4.632v-4.633h-4.632V4.924h5.903V.496H159.4zm17.106 4.141h1.23c1.393 0 1.68.656 1.68 1.968v4.264c0 1.353-.41 2.173-1.68 2.173h-1.23V4.637zm0 12.751h1.189c1.475 0 1.721.574 1.721 1.927v9.184c0 1.64.247 2.173.452 2.501h4.591v-.205c-.204-.451-.45-1.025-.45-2.255V17.839c0-2.05-.984-2.87-2.01-3.321.82-.369 2.01-1.353 2.01-3.895V5.211c0-3.403-1.559-4.715-4.633-4.715h-7.504V31h4.633V17.388z" fill="#000"/><path d="M32.5 58.02h3.72c1.7 0 2.4-1.14 2.4-2.72v-3.22c0-1.48-.7-1.98-1.3-2.18.58-.22 1.12-.82 1.12-2.06v-2.28c0-1.44-.5-2.42-2.38-2.42H32.5v14.88zm2.94-6.78c.72 0 .88.34.88.96v2.72c0 .66-.16 1-.88 1h-.68v-4.68h.68zm0-6.08c.62 0 .78.34.78.94v1.88c0 .62-.18 1.04-.78 1.04h-.68v-3.86h.68zm4.29 9.62c0 2.14.82 3.42 2.82 3.42h.4c2 0 2.84-1.32 2.84-3.42V43.14h-2.3v11.78c0 .66-.2 1.06-.74 1.06-.5 0-.72-.42-.72-1.06V43.14h-2.3v11.64zM49.76 43c-1.78 0-2.78.92-2.78 2.9v.48c0 1.48.28 2.44 1.24 3.68l1.44 1.84c.82 1.06.92 1.44.92 2.5v.34c0 .92-.2 1.28-.74 1.28-.52 0-.74-.36-.74-1.04v-2.6h-2.24v2.98c0 1.84.96 2.82 2.76 2.82h.44c1.98 0 2.92-1.3 2.92-3.48v-.48c0-1.68-.32-2.44-1.34-3.76L50.2 48.6c-.76-.98-.92-1.44-.92-2.28v-.28c0-.7.12-1.04.66-1.04s.64.38.64.88v2.14h2.18v-2.44c0-1.76-.72-2.58-2.58-2.58h-.42zm9.85.14h-2.04l-1 5.56-1.04-5.56h-2.2l2.04 8.68v6.2h2.26v-6.18l1.98-8.7zm3.24 14.88h3.46c1.86 0 2.54-1.14 2.54-2.96V46c0-1.76-.6-2.86-2.54-2.86h-3.46v14.88zm2.26-12.86h.64c.56 0 .78.3.78 1.16v8.38c0 .8-.2 1.16-.88 1.16h-.54v-10.7zm11.11 1.24c0-2.04-.7-3.4-2.9-3.4h-.38c-2.12 0-2.9 1.36-2.9 3.42v8.28c0 2.08.76 3.5 2.92 3.5h.38c2.18 0 2.88-1.42 2.88-3.5v-8.3zm-2.3 8.46c0 .64-.16 1.14-.76 1.14-.64 0-.82-.5-.82-1.14V46.3c0-.76.22-1.14.8-1.14.52 0 .78.36.78 1.14v8.56zm5.79-11.72h-2.26v14.88h2.26V43.14zm1.29 0v14.88h2.04v-8.56l2.16 8.56h1.84V43.14h-2.06v7.98l-1.94-7.98H81zm9.57 15.08c1.14 0 1.9-1.16 2.06-1.66.18.64.36 1.38.38 1.46h1.28v-9.04h-3.16v2.28h1.02v3.72c0 .56-.26.96-.84.96-.46 0-.74-.36-.74-1.06v-8.7c0-.66.22-1.02.7-1.02.56 0 .72.36.72 1.02v1.68h2.2v-1.52c0-1.76-.28-3.34-2.7-3.34h-.44c-2.14 0-2.78 1.54-2.78 3.2v9.3c0 1.54.84 2.72 2.16 2.72h.14zm7.44-.2h3.72c1.7 0 2.4-1.14 2.4-2.72v-3.22c0-1.48-.7-1.98-1.3-2.18.58-.22 1.12-.82 1.12-2.06v-2.28c0-1.44-.5-2.42-2.38-2.42h-3.56v14.88zm2.94-6.78c.72 0 .88.34.88.96v2.72c0 .66-.16 1-.88 1h-.68v-4.68h.68zm0-6.08c.62 0 .78.34.78.94v1.88c0 .62-.18 1.04-.78 1.04h-.68v-3.86h.68zm4.29 9.62c0 2.14.82 3.42 2.82 3.42h.4c2 0 2.84-1.32 2.84-3.42V43.14H109v11.78c0 .66-.2 1.06-.74 1.06-.5 0-.72-.42-.72-1.06V43.14h-2.3v11.64zM115.27 43c-1.78 0-2.78.92-2.78 2.9v.48c0 1.48.28 2.44 1.24 3.68l1.44 1.84c.82 1.06.92 1.44.92 2.5v.34c0 .92-.2 1.28-.74 1.28-.52 0-.74-.36-.74-1.04v-2.6h-2.24v2.98c0 1.84.96 2.82 2.76 2.82h.44c1.98 0 2.92-1.3 2.92-3.48v-.48c0-1.68-.32-2.44-1.34-3.76l-1.44-1.86c-.76-.98-.92-1.44-.92-2.28v-.28c0-.7.12-1.04.66-1.04s.64.38.64.88v2.14h2.18v-2.44c0-1.76-.72-2.58-2.58-2.58h-.42zm6.57.14h-2.26v14.88h2.26V43.14zm1.29 0v14.88h2.04v-8.56l2.16 8.56h1.84V43.14h-2.06v7.98l-1.94-7.98h-2.04zm7.33 0v14.88h5.26v-2.26h-3v-4.3h2.26V49.2h-2.26v-3.9h2.88v-2.16h-5.14zm9.01-.14c-1.78 0-2.78.92-2.78 2.9v.48c0 1.48.28 2.44 1.24 3.68l1.44 1.84c.82 1.06.92 1.44.92 2.5v.34c0 .92-.2 1.28-.74 1.28-.52 0-.74-.36-.74-1.04v-2.6h-2.24v2.98c0 1.84.96 2.82 2.76 2.82h.44c1.98 0 2.92-1.3 2.92-3.48v-.48c0-1.68-.32-2.44-1.34-3.76l-1.44-1.86c-.76-.98-.92-1.44-.92-2.28v-.28c0-.7.12-1.04.66-1.04s.64.38.64.88v2.14h2.18v-2.44c0-1.76-.72-2.58-2.58-2.58h-.42zm7.13 0c-1.78 0-2.78.92-2.78 2.9v.48c0 1.48.28 2.44 1.24 3.68l1.44 1.84c.82 1.06.92 1.44.92 2.5v.34c0 .92-.2 1.28-.74 1.28-.52 0-.74-.36-.74-1.04v-2.6h-2.24v2.98c0 1.84.96 2.82 2.76 2.82h.44c1.98 0 2.92-1.3 2.92-3.48v-.48c0-1.68-.32-2.44-1.34-3.76l-1.44-1.86c-.76-.98-.92-1.44-.92-2.28v-.28c0-.7.12-1.04.66-1.04s.64.38.64.88v2.14h2.18v-2.44c0-1.76-.72-2.58-2.58-2.58h-.42zm5.63 16.82c.2-.42.54-1.24.54-2.48v-1.88h-2.1v2.56h.86c-.04.66-.3 1.46-.42 1.8h1.12zm-68.82 4.34c.38 0 .58.22.58.78v.96c0 .72-.02 1.18-.64 2.28l-1.3 2.3c-1.44 2.52-1.74 3.48-1.74 5.42v1.12h6.16v-4.98h-2.28v2.86h-2c0-.6.08-1.14 1.42-3.06.44-.64 1.04-1.44 1.44-2.04 1.24-1.86 1.32-2.56 1.32-4.3v-.74c0-2-1.08-2.76-2.76-2.76h-.46c-1.88 0-2.46 1.34-2.46 2.76v2.72h2.16v-2.54c0-.56.14-.78.56-.78zm6.93 7.22h-1.36c.5-1.34.96-2.68 1.36-3.96v3.96zm-3.08.18v1.86h3.08v3.6h2.22v-3.6h1.38v-2.04h-1.38v-9.3H90.6c-.68 2.18-2.5 7.26-3.34 9.48zm11.15-10.7h-1.68l-2.56 18.78h1.68l2.56-18.78zm.75 1.28v4.4h2.14v-2.36h1.72c0 .6-.1 1.52-1.4 5.9-.88 2.94-1.08 4.42-1.08 5.48v1.46h2.74v-1.68c0-.98.16-3.4.66-6.28l.82-4.74v-2.18h-5.6z" fill="#DB0000"/></g></svg>