<svg xmlns="http://www.w3.org/2000/svg" width="380.5" height="37.3" viewBox="0 0 380.5 37.3"><path d="M15.6.4L18.1 24 20.6.4h5.2l-4.6 36.4h-5.9L13 15.7l-2.3 21.2H4.5L0 .4h5.6L8.1 24 10.5.5h5.1zm17.7 36.5h-5.5V.4h5.5V15h3.8V.4h5.5v36.4h-5.5v-16h-3.8v16.1zm27.3-8.2c0 5.1-1.7 8.6-7 8.6h-.9c-5.3 0-7.1-3.5-7.1-8.6V8.5c0-5 1.9-8.4 7.1-8.4h.9c5.4 0 7.1 3.3 7.1 8.3v20.3zM54.9 8.2c0-1.9-.6-2.8-1.9-2.8-1.4 0-2 .9-2 2.8v21c0 1.6.4 2.8 2 2.8 1.5 0 1.9-1.2 1.9-2.8v-21zm23 21.8h-4.1l-.7 6.9h-4.9L72.6.5h6.5L84 36.9h-5.3l-.8-6.9zm-3.5-5.4h2.9l-1.5-13.5-1.4 13.5zm16.9 12.3h-5.5V.4h8.9c3.7 0 5.5 1.6 5.5 5.6v6.5c0 3-1.4 4.2-2.4 4.7 1.2.5 2.4 1.5 2.4 4V34c0 1.5.3 2.2.5 2.7v.2h-5.5c-.2-.4-.5-1-.5-3v-11c0-1.6-.3-2.3-2.1-2.3h-1.4v16.3zm0-21.5h1.5c1.5 0 2-1 2-2.6V7.7c0-1.6-.3-2.3-2-2.3h-1.5v10zm24.4-15v5.3h-7v9.5h5.5v5.5h-5.5v10.5h7.3v5.5h-12.8V.4h12.5zm17.8 21.3v15.1H128V21.7L123 .5h5.4l2.5 13.6L133.3.5h5l-4.8 21.2zm20.9 7c0 5.1-1.7 8.6-7 8.6h-.9c-5.3 0-7.1-3.5-7.1-8.6V8.5c0-5 1.9-8.4 7.1-8.4h.9c5.4 0 7.1 3.3 7.1 8.3v20.3zm-5.6-20.5c0-1.9-.6-2.8-1.9-2.8-1.4 0-2 .9-2 2.8v21c0 1.6.4 2.8 2 2.8 1.5 0 1.9-1.2 1.9-2.8v-21zm8.4-7.8h5.6v28.8c0 1.6.5 2.6 1.8 2.6s1.8-1 1.8-2.6V.4h5.6v28.5c0 5.1-2.1 8.4-6.9 8.4h-1c-4.9 0-6.9-3.1-6.9-8.4V.4zm31.4-.3c4.5 0 6.3 2 6.3 6.3v6h-5.3V7.1c0-1.2-.2-2.2-1.6-2.2s-1.6.8-1.6 2.5v.7c0 2.1.4 3.2 2.2 5.6l3.5 4.6c2.5 3.2 3.3 5.1 3.3 9.2v1.2c0 5.3-2.3 8.5-7.1 8.5h-1.1c-4.4 0-6.7-2.4-6.7-6.9V23h5.5v6.4c0 1.7.5 2.5 1.8 2.5s1.8-.9 1.8-3.1V28c0-2.6-.2-3.5-2.2-6.1l-3.5-4.5c-2.3-3-3-5.4-3-9V7.2c0-4.8 2.4-7.1 6.8-7.1h.9zm14.9 36.8H198V.4h5.5V15h3.8V.4h5.5v36.4h-5.5v-16h-3.8v16.1zm27.2-8.2c0 5.1-1.7 8.6-7 8.6h-.9c-5.3 0-7.1-3.5-7.1-8.6V8.5c0-5 1.9-8.4 7.1-8.4h.9c5.4 0 7.1 3.3 7.1 8.3v20.3zm-5.6-20.5c0-1.9-.6-2.8-1.9-2.8-1.4 0-2 .9-2 2.8v21c0 1.6.4 2.8 2 2.8 1.5 0 1.9-1.2 1.9-2.8v-21zm14 13.5v15.1h-5.5V.4h8.7c3.9 0 5.7 1.7 5.7 6V15c0 4.3-1.9 6.7-5.7 6.7h-3.2zm0-5.2h1.4c1.7 0 1.9-1.2 1.9-2.6v-6c0-1.4-.3-2.5-1.9-2.5h-1.4v11.1zm17.1 5.2v15.1h-5.5V.4h8.7c3.9 0 5.7 1.7 5.7 6V15c0 4.3-1.9 6.7-5.7 6.7h-3.2zm0-5.2h1.4c1.7 0 1.9-1.2 1.9-2.6v-6c0-1.4-.3-2.5-1.9-2.5h-1.4v11.1zm17 20.4h-5.5V.4h5.5v36.5zm8-36.5l4.7 19.5V.4h5v36.4h-4.5l-5.3-21v21h-5V.4h5.1zm17.9 36.9c-3.2 0-5.3-2.9-5.3-6.7V7.9c0-4.1 1.6-7.8 6.8-7.8h1.1c5.9 0 6.6 3.9 6.6 8.2V12h-5.4V7.9c0-1.6-.4-2.5-1.8-2.5-1.2 0-1.7.9-1.7 2.5v21.3c0 1.7.7 2.6 1.8 2.6 1.4 0 2.1-1 2.1-2.3v-9.1h-2.5v-5.6h7.7v22.1h-3.1c0-.2-.5-2-.9-3.6-.4 1.2-2.2 4.1-5 4.1h-.4zM317.4.4H330v5.3h-7v9.6h5.6v5.5H323v16h-5.5V.4zM347 28.7c0 5.1-1.7 8.6-7 8.6h-.9c-5.3 0-7.1-3.5-7.1-8.6V8.5c0-5 1.9-8.4 7.1-8.4h.9c5.4 0 7.1 3.3 7.1 8.3v20.3zm-5.6-20.5c0-1.9-.6-2.8-1.9-2.8-1.4 0-2 .9-2 2.8v21c0 1.6.4 2.8 2 2.8 1.5 0 1.9-1.2 1.9-2.8v-21zm14 28.7h-5.5V.4h8.9c3.7 0 5.5 1.6 5.5 5.6v6.5c0 3-1.4 4.2-2.4 4.7 1.2.5 2.4 1.5 2.4 4V34c0 1.5.3 2.2.5 2.7v.2h-5.5c-.2-.4-.5-1-.5-3v-11c0-1.6-.3-2.3-2.1-2.3h-1.4v16.3zm0-21.5h1.5c1.5 0 2-1 2-2.6V7.7c0-1.6-.3-2.3-2-2.3h-1.5v10zm15.2 14v-5.9c0-3.1.2-4 1.7-6.6l1.4-2.4c1.1-1.8 1.1-2.7 1.1-4.7V7.1c0-1.4-.3-1.9-1.4-1.9-1.1 0-1.3.5-1.3 1.9V13h-5.3V7.1c0-4.1 1-7.1 6.1-7.1h1.1c5 0 6.5 2.5 6.5 6.8v3.6c0 2.4-.5 4.1-2.2 6.6l-1.6 2.3c-1.5 2.1-1.6 3-1.6 5.9v4.3h-4.5zm4.8 7.5h-5.1v-6.3h5.1v6.3z" fill="#DB0000"/></svg>