<svg width="100" height="80" viewBox="0 0 100 80" xmlns="http://www.w3.org/2000/svg"><title>Artboard 9</title><g fill="none" fill-rule="evenodd"><path d="M13.655 31h4.469L14.147.496H8.653L4.922 31h4.141l.574-5.74h3.403l.615 5.74zM11.318 9.434l1.23 11.275h-2.419l1.189-11.275zM16.761.496v4.428h3.895V31h4.592V4.924h3.895V.496H16.761zm18.563 17.097h3.157V31h4.633V.496h-4.633v12.218h-3.157V.496h-4.633V31h4.633V17.593zM45.236.496V31h10.291v-4.715h-5.658V.496h-4.633zm11.88 0V31h10.783v-4.633h-6.15v-8.815h4.633v-4.633h-4.633V4.924h5.904V.496H57.116zm11.798 0v4.428h3.895V31h4.592V4.924h3.895V.496H68.914zm13.93 0V31h10.783v-4.633h-6.15v-8.815h4.633v-4.633h-4.633V4.924h5.904V.496H82.844z" fill="#000"/><path d="M14.96 43.12v2.16h1.9V58h2.24V45.28H21v-2.16h-6.04zm9.31 8.34h1.54V58h2.26V43.12h-2.26v5.96h-1.54v-5.96h-2.26V58h2.26v-6.54zm5.09-8.34V58h5.26v-2.26h-3v-4.3h2.26v-2.26h-2.26v-3.9h2.88v-2.16h-5.14zm11.5-.14c-1.78 0-2.78.92-2.78 2.9v.48c0 1.48.28 2.44 1.24 3.68l1.44 1.84c.82 1.06.92 1.44.92 2.5v.34c0 .92-.2 1.28-.74 1.28-.52 0-.74-.36-.74-1.04v-2.6h-2.24v2.98c0 1.84.96 2.82 2.76 2.82h.44c1.98 0 2.92-1.3 2.92-3.48v-.48c0-1.68-.32-2.44-1.34-3.76l-1.44-1.86c-.76-.98-.92-1.44-.92-2.28v-.28c0-.7.12-1.04.66-1.04s.64.38.64.88V48h2.18v-2.44c0-1.76-.72-2.58-2.58-2.58h-.42zm6.57.14h-2.26V58h2.26V43.12zm2.77 6.92L48.24 58h2.28l1.14-5.38L52.78 58h2.34l-1.92-7.96 1.7-6.92h-2.2l-.92 4.7-.96-4.7h-2.3l1.68 6.92zm4.99 1.02v1.96h2.82v-1.96h-2.82zm7.55.76c1.54 0 2.32-.96 2.32-2.72v-3.52c0-1.78-.72-2.46-2.32-2.46h-3.58V58h2.26v-6.18h1.32zm-1.32-6.68H62c.66 0 .78.44.78 1.02v2.44c0 .6-.1 1.08-.78 1.08h-.58v-4.54zM69.37 58h2.18l-1.94-14.88h-2.68L65.11 58h2.02l.28-2.8h1.66l.3 2.8zm-1.14-10.52l.6 5.5h-1.18l.58-5.5zm7.77 7.5c0 .6-.2 1-.74 1-.5 0-.72-.36-.72-1.02v-8.84c0-.66.14-.98.7-.98.56 0 .76.34.76.98v2.62h2.22v-2.66c0-1.46-.28-3.1-2.76-3.1h-.52c-2.04 0-2.7 1.46-2.7 2.98v9.08c0 1.5.5 3.14 2.78 3.14h.5c2.18 0 2.7-1.62 2.7-3.22v-3.44H76v3.46zm5.65-3.44L83.53 58h2.32l-2.32-7.96 2.1-6.92h-2.2l-1.78 5.96v-5.96h-2.26V58h2.26v-6.46zM6.91 62.12H4.87l-1 5.56-1.04-5.56H.63l2.04 8.68V77h2.26v-6.18l1.98-8.7zm6.63 3.26c0-2.04-.7-3.4-2.9-3.4h-.38c-2.12 0-2.9 1.36-2.9 3.42v8.28c0 2.08.76 3.5 2.92 3.5h.38c2.18 0 2.88-1.42 2.88-3.5v-8.3zm-2.3 8.46c0 .64-.16 1.14-.76 1.14-.64 0-.82-.5-.82-1.14v-8.56c0-.76.22-1.14.8-1.14.52 0 .78.36.78 1.14v8.56zm3.49-.08c0 2.14.82 3.42 2.82 3.42h.4c2 0 2.84-1.32 2.84-3.42V62.12h-2.3V73.9c0 .66-.2 1.06-.74 1.06-.5 0-.72-.42-.72-1.06V62.12h-2.3v11.64zm13.66-11.64l-1 9.62-1.02-9.62h-2.28L25.95 77h2.5l.96-8.66.94 8.66h2.42l1.9-14.88h-2.12l-1.04 9.64-1.02-9.64h-2.1zm9.39 0h-2.26V77h2.26V62.12zm4.01-.14c-1.78 0-2.78.92-2.78 2.9v.48c0 1.48.28 2.44 1.24 3.68l1.44 1.84c.82 1.06.92 1.44.92 2.5v.34c0 .92-.2 1.28-.74 1.28-.52 0-.74-.36-.74-1.04v-2.6h-2.24v2.98c0 1.84.96 2.82 2.76 2.82h.44c1.98 0 2.92-1.3 2.92-3.48v-.48c0-1.68-.32-2.44-1.34-3.76l-1.44-1.86c-.76-.98-.92-1.44-.92-2.28v-.28c0-.7.12-1.04.66-1.04s.64.38.64.88V67h2.18v-2.44c0-1.76-.72-2.58-2.58-2.58h-.42zm6.57 8.48h1.54V77h2.26V62.12H49.9v5.96h-1.54v-5.96H46.1V77h2.26v-6.54zm13.32-8.34h-2.04l-1 5.56-1.04-5.56h-2.2l2.04 8.68V77h2.26v-6.18l1.98-8.7zm6.63 3.26c0-2.04-.7-3.4-2.9-3.4h-.38c-2.12 0-2.9 1.36-2.9 3.42v8.28c0 2.08.76 3.5 2.92 3.5h.38c2.18 0 2.88-1.42 2.88-3.5v-8.3zm-2.3 8.46c0 .64-.16 1.14-.76 1.14-.64 0-.82-.5-.82-1.14v-8.56c0-.76.22-1.14.8-1.14.52 0 .78.36.78 1.14v8.56zm3.49-.08c0 2.14.82 3.42 2.82 3.42h.4c2 0 2.84-1.32 2.84-3.42V62.12h-2.3V73.9c0 .66-.2 1.06-.74 1.06-.5 0-.72-.42-.72-1.06V62.12h-2.3v11.64zm12.06-3.3h1.54V77h2.26V62.12H83.1v5.96h-1.54v-5.96H79.3V77h2.26v-6.54zM90.43 77h2.18l-1.94-14.88h-2.68L86.17 77h2.02l.28-2.8h1.66l.3 2.8zm-1.14-10.52l.6 5.5h-1.18l.58-5.5zM93.42 77h3.46c1.86 0 2.54-1.14 2.54-2.96v-9.06c0-1.76-.6-2.86-2.54-2.86h-3.46V77zm2.26-12.86h.64c.56 0 .78.3.78 1.16v8.38c0 .8-.2 1.16-.88 1.16h-.54v-10.7z" fill="#DB0000"/></g></svg>