<svg width="148" height="80" viewBox="0 0 148 80" xmlns="http://www.w3.org/2000/svg"><title>Artboard 6</title><g fill="none" fill-rule="evenodd"><path d="M11.669 17.552v8.159c0 4.182 2.091 5.535 5.084 5.535h1.271c3.198 0 5.248-1.845 5.248-5.822V.496h-4.715v24.559c0 .943-.205 1.681-1.066 1.681h-.164c-.861 0-1.107-.615-1.107-1.681v-7.503h-4.551zM25.412.496V31h10.783v-4.633h-6.15v-8.815h4.633v-4.633h-4.633V4.924h5.904V.496H25.412zm11.898 0v4.428h3.895V31h4.592V4.924h3.895V.496H37.31zM61.598.209c-3.649 0-5.699 1.886-5.699 5.945v.984c0 3.034.574 5.002 2.542 7.544l2.952 3.772c1.681 2.173 1.886 2.952 1.886 5.125v.697c0 1.886-.41 2.624-1.517 2.624-1.066 0-1.517-.738-1.517-2.132v-5.33h-4.592v6.109c0 3.772 1.968 5.781 5.658 5.781h.902c4.059 0 5.986-2.665 5.986-7.134v-.984c0-3.444-.656-5.002-2.747-7.708L62.5 11.689c-1.558-2.009-1.886-2.952-1.886-4.674v-.574c0-1.435.246-2.132 1.353-2.132s1.312.779 1.312 1.804V10.5h4.469V5.498c0-3.608-1.476-5.289-5.289-5.289h-.861zm8.413.287V31h10.783v-4.633h-6.15v-8.815h4.633v-4.633h-4.633V4.924h5.904V.496H70.011zm11.898 0v4.428h3.895V31h4.592V4.924h3.895V.496H81.909zm13.579 0v4.428h3.895V31h4.592V4.924h3.895V.496H95.488zm14.03 0V31h10.783v-4.633h-6.15v-8.815h4.633v-4.633h-4.633V4.924h5.904V.496h-10.537zm17.105 4.141h1.23c1.394 0 1.681.656 1.681 1.968v4.264c0 1.353-.41 2.173-1.681 2.173h-1.23V4.637zm0 12.751h1.189c1.476 0 1.722.574 1.722 1.927v9.184c0 1.64.246 2.173.451 2.501h4.592v-.205c-.205-.451-.451-1.025-.451-2.255V17.839c0-2.05-.984-2.87-2.009-3.321.82-.369 2.009-1.353 2.009-3.895V5.211c0-3.403-1.558-4.715-4.633-4.715h-7.503V31h4.633V17.388z" fill="#000"/><path d="M51.73 46.38c0-2.04-.7-3.4-2.9-3.4h-.38c-2.12 0-2.9 1.36-2.9 3.42v8.28c0 2.08.76 3.5 2.92 3.5h.38c2.18 0 2.88-1.42 2.88-3.5v-8.3zm-2.3 8.46c0 .64-.16 1.14-.76 1.14-.64 0-.82-.5-.82-1.14v-8.56c0-.76.22-1.14.8-1.14.52 0 .78.36.78 1.14v8.56zm3.53-11.72V58H55v-8.56L57.16 58H59V43.12h-2.06v7.98L55 43.12h-2.04zm9.54 0v2.16h1.9V58h2.24V45.28h1.9v-2.16H62.5zm9.31 8.34h1.54V58h2.26V43.12h-2.26v5.96h-1.54v-5.96h-2.26V58h2.26v-6.54zm5.09-8.34V58h5.26v-2.26h-3v-4.3h2.26v-2.26h-2.26v-3.9h2.88v-2.16H76.9zM87.92 58.2c1.14 0 1.9-1.16 2.06-1.66.18.64.36 1.38.38 1.46h1.28v-9.04h-3.16v2.28h1.02v3.72c0 .56-.26.96-.84.96-.46 0-.74-.36-.74-1.06v-8.7c0-.66.22-1.02.7-1.02.56 0 .72.36.72 1.02v1.68h2.2v-1.52c0-1.76-.28-3.34-2.7-3.34h-.44c-2.14 0-2.78 1.54-2.78 3.2v9.3c0 1.54.84 2.72 2.16 2.72h.14zm11.07-11.82c0-2.04-.7-3.4-2.9-3.4h-.38c-2.12 0-2.9 1.36-2.9 3.42v8.28c0 2.08.76 3.5 2.92 3.5h.38c2.18 0 2.88-1.42 2.88-3.5v-8.3zm-2.3 8.46c0 .64-.16 1.14-.76 1.14-.64 0-.82-.5-.82-1.14v-8.56c0-.76.22-1.14.8-1.14.52 0 .78.36.78 1.14v8.56zm4.85 4.96c.2-.42.54-1.24.54-2.48v-1.88h-2.1V58h.86c-.04.66-.3 1.46-.42 1.8h1.12zM4.9 73.98c0 .6-.2 1-.74 1-.5 0-.72-.36-.72-1.02v-8.84c0-.66.14-.98.7-.98.56 0 .76.34.76.98v2.62h2.22v-2.66c0-1.46-.28-3.1-2.76-3.1h-.52c-2.04 0-2.7 1.46-2.7 2.98v9.08c0 1.5.5 3.14 2.78 3.14h.5c2.18 0 2.7-1.62 2.7-3.22v-3.44H4.9v3.46zm3.39-11.86V77h5.02v-2.3h-2.76V62.12H8.29zm12.07 3.26c0-2.04-.7-3.4-2.9-3.4h-.38c-2.12 0-2.9 1.36-2.9 3.42v8.28c0 2.08.76 3.5 2.92 3.5h.38c2.18 0 2.88-1.42 2.88-3.5v-8.3zm-2.3 8.46c0 .64-.16 1.14-.76 1.14-.64 0-.82-.5-.82-1.14v-8.56c0-.76.22-1.14.8-1.14.52 0 .78.36.78 1.14v8.56zm7.23.14c0 .6-.2 1-.74 1-.5 0-.72-.36-.72-1.02v-8.84c0-.66.14-.98.7-.98.56 0 .76.34.76.98v2.62h2.22v-2.66c0-1.46-.28-3.1-2.76-3.1h-.52c-2.04 0-2.7 1.46-2.7 2.98v9.08c0 1.5.5 3.14 2.78 3.14h.5c2.18 0 2.7-1.62 2.7-3.22v-3.44h-2.22v3.46zm5.65-3.44L32.82 77h2.32l-2.32-7.96 2.1-6.92h-2.2l-1.78 5.96v-5.96h-2.26V77h2.26v-6.46zm7.21-8.42h-2.26V77h2.26V62.12zm1.29 0V77h2.04v-8.56L43.64 77h1.84V62.12h-2.06v7.98l-1.94-7.98h-2.04zm9.57 15.08c1.14 0 1.9-1.16 2.06-1.66.18.64.36 1.38.38 1.46h1.28v-9.04h-3.16v2.28h1.02v3.72c0 .56-.26.96-.84.96-.46 0-.74-.36-.74-1.06v-8.7c0-.66.22-1.02.7-1.02.56 0 .72.36.72 1.02v1.68h2.2v-1.52c0-1.76-.28-3.34-2.7-3.34h-.44c-2.14 0-2.78 1.54-2.78 3.2v9.3c0 1.54.84 2.72 2.16 2.72h.14zm7.4-3.44c0 2.14.82 3.42 2.82 3.42h.4c2 0 2.84-1.32 2.84-3.42V62.12h-2.3V73.9c0 .66-.2 1.06-.74 1.06-.5 0-.72-.42-.72-1.06V62.12h-2.3v11.64zm10.89-2.94c1.54 0 2.32-.96 2.32-2.72v-3.52c0-1.78-.72-2.46-2.32-2.46h-3.58V77h2.26v-6.18h1.32zm-1.32-6.68h.58c.66 0 .78.44.78 1.02v2.44c0 .6-.1 1.08-.78 1.08h-.58v-4.54zm6.98-2.02v2.16h1.9V77h2.24V64.28H79v-2.16h-6.04zm9.31 8.34h1.54V77h2.26V62.12h-2.26v5.96h-1.54v-5.96h-2.26V77h2.26v-6.54zm5.09-8.34V77h5.26v-2.26h-3v-4.3h2.26v-2.26h-2.26v-3.9h2.88v-2.16h-5.14zM99.92 77h2.18l-1.94-14.88h-2.68L95.66 77h2.02l.28-2.8h1.66l.3 2.8zm-1.14-10.52l.6 5.5H98.2l.58-5.5zm6.39-4.36h-2.26V77h2.26V62.12zm3.55 2.02h.6c.68 0 .82.32.82.96v2.08c0 .66-.2 1.06-.82 1.06h-.6v-4.1zm0 6.22h.58c.72 0 .84.28.84.94v4.48c0 .8.12 1.06.22 1.22h2.24v-.1c-.1-.22-.22-.5-.22-1.1v-5.22c0-1-.48-1.4-.98-1.62.4-.18.98-.66.98-1.9v-2.64c0-1.66-.76-2.3-2.26-2.3h-3.66V77h2.26v-6.64zM116.1 77h2.02v-9.62L119.5 77h.9l1.36-9.62V77h2.12V62.12h-2.7l-1.1 7.86-1.08-7.86h-2.9V77zm11.33-14.88h-2.26V77h2.26V62.12zm1.29 0V77h5.02v-2.3h-2.76V62.12h-2.26zm6.05 0V77h5.26v-2.26h-3v-4.3h2.26v-2.26h-2.26v-3.9h2.88v-2.16h-5.14zm9.01-.14c-1.78 0-2.78.92-2.78 2.9v.48c0 1.48.28 2.44 1.24 3.68l1.44 1.84c.82 1.06.92 1.44.92 2.5v.34c0 .92-.2 1.28-.74 1.28-.52 0-.74-.36-.74-1.04v-2.6h-2.24v2.98c0 1.84.96 2.82 2.76 2.82h.44c1.98 0 2.92-1.3 2.92-3.48v-.48c0-1.68-.32-2.44-1.34-3.76l-1.44-1.86c-.76-.98-.92-1.44-.92-2.28v-.28c0-.7.12-1.04.66-1.04s.64.38.64.88V67h2.18v-2.44c0-1.76-.72-2.58-2.58-2.58h-.42z" fill="#DB0000"/></g></svg>