<svg width="52" height="18" viewBox="0 0 52 18" xmlns="http://www.w3.org/2000/svg"><title>Artboard 5</title><path d="M1 17.022h4.092c1.87 0 2.64-1.254 2.64-2.992v-3.542c0-1.628-.77-2.178-1.43-2.398.638-.242 1.232-.902 1.232-2.266V3.316c0-1.584-.55-2.662-2.618-2.662H1v16.368zm3.234-7.458c.792 0 .968.374.968 1.056v2.992c0 .726-.176 1.1-.968 1.1h-.748V9.564h.748zm0-6.688c.682 0 .858.374.858 1.034v2.068c0 .682-.198 1.144-.858 1.144h-.748V2.876h.748zm4.224 10.582c0 2.354.902 3.762 3.102 3.762H12c2.2 0 3.124-1.452 3.124-3.762V.654h-2.53v12.958c0 .726-.22 1.166-.814 1.166-.55 0-.792-.462-.792-1.166V.654h-2.53v12.804zM22.318.654h-2.244l-1.1 6.116L17.83.654h-2.42l2.244 9.548v6.82h2.486v-6.798l2.178-9.57zm2.574 0v16.368h2.244V7.606l2.376 9.416h2.024V.654H29.27v8.778L27.136.654h-2.244zm14.3 3.586c0-2.244-.77-3.74-3.19-3.74h-.418c-2.332 0-3.19 1.496-3.19 3.762v9.108c0 2.288.836 3.85 3.212 3.85h.418c2.398 0 3.168-1.562 3.168-3.85V4.24zm-2.53 9.306c0 .704-.176 1.254-.836 1.254-.704 0-.902-.55-.902-1.254V4.13c0-.836.242-1.254.88-1.254.572 0 .858.396.858 1.254v9.416zM44.186.654l-1.1 10.582L41.964.654h-2.508l2.046 16.368h2.75l1.056-9.526 1.034 9.526h2.662L51.094.654h-2.332l-1.144 10.604L46.496.654h-2.31z" fill="#FFF" fill-rule="evenodd"/></svg>