<svg width="254" height="184" viewBox="0 0 254 184" xmlns="http://www.w3.org/2000/svg" xmlns:xlink="http://www.w3.org/1999/xlink"><title>Artboard 1</title><defs><path id="a" d="M0 .043h239v165.83H0V.043z"/></defs><g fill="none" fill-rule="evenodd"><path fill="#EDEDED" d="M0 0h254v23H0z"/><g transform="rotate(-6 181.334 18.565)"><path d="M0 165.873h239V13H0v152.873z" fill="#EDEDED"/><path d="M143.35 10.173v5.266h90.38v145.168H5.27V15.44h89.984v-5.266H0v155.7h239v-155.7h-95.65z" fill="#DB0000"/><path d="M34.846 95.67H204.15v-5.265H34.846v5.265zm17.597-49.948l4.544 18.674V45.722h4.824v34.821h-4.309l-5.059-20.031v20.031h-4.777v-34.82h4.777zm23.373 0v5.055h-6.745v9.126h5.293v5.289h-5.293v10.062h7.026v5.289H63.78v-34.82h12.037zm13.677 0v5.055h-6.745v9.126h5.293v5.289h-5.293v10.062h7.026v5.289H77.455v-34.82h12.038zm6.932 29.766h1.265c1.593 0 2.06-.842 2.06-2.714v-19.61c0-2.013-.514-2.715-1.826-2.715h-1.499v25.04zm-5.293-29.766h8.104c4.543 0 5.948 2.575 5.948 6.693v21.201c0 4.26-1.592 6.927-5.948 6.927h-8.104v-34.82z" fill="#DB0000"/><mask id="b" fill="#fff"><use xlink:href="#a"/></mask><path d="M117.128 80.543h-5.293v-34.82h5.293v34.82zm7.26-5.055h1.265c1.593 0 2.06-.842 2.06-2.714v-19.61c0-2.013-.514-2.715-1.826-2.715h-1.499v25.04zm-5.293-29.766h8.104c4.543 0 5.948 2.575 5.948 6.693v21.201c0 4.26-1.592 6.927-5.948 6.927h-8.104v-34.82zm27.964 0v5.055h-6.745v9.126h5.293v5.289h-5.293v10.062h7.026v5.289h-12.32v-34.82h12.039zm6.884 23.074h2.764l-1.405-12.87-1.359 12.87zm3.326 5.195h-3.888l-.656 6.552h-4.73l4.262-34.82h6.277l4.543 34.82h-5.106l-.702-6.552zm14.145-28.596c4.356 0 6.042 1.919 6.042 6.037v5.71h-5.105v-5.008c0-1.17-.234-2.059-1.5-2.059-1.264 0-1.545.796-1.545 2.434v.655c0 1.966.375 3.042 2.155 5.335l3.372 4.353c2.39 3.089 3.139 4.867 3.139 8.799v1.123c0 5.101-2.202 8.143-6.84 8.143h-1.03c-4.215 0-6.463-2.293-6.463-6.599v-6.973h5.246v6.084c0 1.591.515 2.434 1.733 2.434 1.264 0 1.733-.843 1.733-2.996v-.795c0-2.48-.234-3.37-2.155-5.85l-3.372-4.306c-2.249-2.902-2.904-5.148-2.904-8.612v-1.123c0-4.633 2.342-6.786 6.51-6.786h.984zm15.645 35.148h-4.872v-5.99h4.872v5.99zm-4.59-7.16v-5.617c0-2.948.187-3.838 1.639-6.271l1.358-2.294c1.03-1.684 1.078-2.62 1.078-4.54v-2.527c0-1.31-.328-1.825-1.359-1.825-1.03 0-1.264.515-1.264 1.825v5.616h-5.06v-5.616c0-3.884.984-6.833 5.809-6.833h1.03c4.825 0 6.23 2.434 6.23 6.506v3.463c0 2.34-.515 3.931-2.108 6.271l-1.545 2.153c-1.406 2.013-1.546 2.902-1.546 5.616v4.072h-4.263z" fill="#DB0000" mask="url(#b)"/><path d="M133.473 14.07c0 7.729-6.27 13.993-14.004 13.993s-14.004-6.264-14.004-13.992c0-7.728 6.27-13.993 14.004-13.993s14.004 6.265 14.004 13.993" fill="#EDEDED" mask="url(#b)"/><path d="M119.576 18.232c2.319 0 4.216-1.881 4.216-4.197 0-2.32-1.904-4.2-4.223-4.2s-4.222 1.878-4.222 4.194v.006c0 2.316 1.91 4.197 4.23 4.197" fill="#1D1D1B" mask="url(#b)"/><path d="M119.576.043c-1.461 0-2.911.226-4.229.642v7.753c1.318-.877 2.654-1.4 4.23-1.4 3.866 0 7.016 3.135 7.016 6.997 0 3.863-3.271 6.994-7.138 6.994-3.865 0-7.138-3.131-7.138-6.994V1.913c-4.084 2.422-6.858 6.943-6.858 12.122 0 7.728 6.34 13.991 14.075 13.991 7.735 0 14.026-6.263 14.026-13.991 0-7.73-6.25-13.992-13.984-13.992" fill="#1D1D1B" mask="url(#b)"/><path d="M119.576 18.232c2.319 0 4.216-1.881 4.216-4.197 0-2.32-1.904-4.2-4.223-4.2s-4.222 1.878-4.222 4.194v.006c0 2.316 1.91 4.197 4.23 4.197" fill="#DB0000" mask="url(#b)"/><path d="M119.576.043c-1.461 0-2.911.226-4.229.642v7.753c1.318-.877 2.654-1.4 4.23-1.4 3.866 0 7.016 3.135 7.016 6.997 0 3.863-3.271 6.994-7.138 6.994-3.865 0-7.138-3.131-7.138-6.994V1.913c-4.084 2.422-6.858 6.943-6.858 12.122 0 7.728 6.34 13.991 14.075 13.991 7.735 0 14.026-6.263 14.026-13.991 0-7.73-6.25-13.992-13.984-13.992M37.555 106.28l2.385 22.526 2.432-22.526h4.958l-4.443 34.77h-5.66l-2.198-20.235-2.245 20.235h-5.846l-4.35-34.77h5.332l2.385 22.48 2.339-22.48h4.911zm22.731 0v5.047h-6.735v9.114h5.285v5.28h-5.285v10.048h7.016v5.281H48.266v-34.77h12.02zm2.525 9.207c.28-.841.748-2.524.842-3.973h-1.871v-5.234h4.63v3.833c0 2.383-.608 4.392-1.029 5.374h-2.572zm4.396-9.207h5.379l2.385 23.928 2.432-23.928h5.005l-4.397 34.77h-6.407l-4.397-34.77zm28.157 0v5.047h-6.735v9.114h5.285v5.28h-5.285v10.048h7.015v5.281h-12.3v-34.77h12.02zm11.318 35.237c-3.087 0-5.051-2.757-5.051-6.355V113.43c0-3.878 1.496-7.477 6.5-7.477h1.03c5.66 0 6.314 3.692 6.314 7.805v3.551h-5.145v-3.925c0-1.542-.374-2.384-1.684-2.384-1.122 0-1.637.842-1.637 2.384v20.329c0 1.636.655 2.477 1.731 2.477 1.356 0 1.964-.935 1.964-2.243v-8.693h-2.385v-5.327h7.39v21.123h-2.994c-.046-.187-.467-1.916-.888-3.412-.374 1.169-2.152 3.88-4.818 3.88h-.327zm19.784-27.853c0-1.822-.608-2.664-1.824-2.664-1.356 0-1.87.888-1.87 2.664v20.002c0 1.496.42 2.664 1.917 2.664 1.403 0 1.777-1.168 1.777-2.664v-20.002zm5.379 19.628c0 4.86-1.637 8.179-6.735 8.179h-.889c-5.051 0-6.828-3.318-6.828-8.179v-19.347c0-4.814 1.824-7.992 6.781-7.992h.889c5.145 0 6.782 3.178 6.782 7.945v19.394zm15.06-27.012v5.047h-4.443v29.723h-5.238v-29.723h-4.444v-5.047h14.125zm19.551 0v5.047h-4.444v29.723h-5.238v-29.723h-4.444v-5.047h14.126zm6.594 34.77h-5.285v-34.77h5.285v13.927h3.602V106.28h5.285v34.77h-5.285v-15.282h-3.602v15.282zm22.871-34.77v5.047h-6.735v9.114h5.285v5.28h-5.285v10.048h7.016v5.281H183.9v-34.77h12.02zm1.637 0h6.782l2.526 18.367 2.572-18.367h6.314v34.77h-4.958v-22.479l-3.18 22.48h-2.105l-3.227-22.48v22.48h-4.724v-34.77z" fill="#DB0000" mask="url(#b)"/></g></g></svg>