<svg width="136" height="85" viewBox="0 0 136 85" xmlns="http://www.w3.org/2000/svg"><title>Artboard 3</title><g fill="none" fill-rule="evenodd"><path d="M7.975.45c-4.45 0-6.95 2.3-6.95 7.25v1.2c0 3.7.7 6.1 3.1 9.2l3.6 4.6c2.05 2.65 2.3 3.6 2.3 6.25v.85c0 2.3-.5 3.2-1.85 3.2-1.3 0-1.85-.9-1.85-2.6v-6.5h-5.6v7.45c0 4.6 2.4 7.05 6.9 7.05h1.1c4.95 0 7.3-3.25 7.3-8.7v-1.2c0-4.2-.8-6.1-3.35-9.4l-3.6-4.65c-1.9-2.45-2.3-3.6-2.3-5.7v-.7c0-1.75.3-2.6 1.65-2.6 1.35 0 1.6.95 1.6 2.2V13h5.45V6.9c0-4.4-1.8-6.45-6.45-6.45h-1.05zm25.75 8.5c0-5.1-1.75-8.5-7.25-8.5h-.95c-5.3 0-7.25 3.4-7.25 8.55v20.7c0 5.2 1.9 8.75 7.3 8.75h.95c5.45 0 7.2-3.55 7.2-8.75V8.95zm-5.75 21.15c0 1.6-.4 2.85-1.9 2.85-1.6 0-2.05-1.25-2.05-2.85V8.7c0-1.9.55-2.85 2-2.85 1.3 0 1.95.9 1.95 2.85v21.4zm8.4-.2c0 5.35 2.05 8.55 7.05 8.55h1c5 0 7.1-3.3 7.1-8.55V.8h-5.75v29.45c0 1.65-.5 2.65-1.85 2.65-1.25 0-1.8-1.05-1.8-2.65V.8h-5.75v29.1zM54.325.8V38h12.55v-5.75h-6.9V.8h-5.65zm14.8 37.2h5.05V13.95L77.625 38h2.25l3.4-24.05V38h5.3V.8h-6.75l-2.75 19.65L76.375.8h-7.25V38zm31.8 0h5.45L101.525.8h-6.7L90.275 38h5.05l.7-7h4.15l.75 7zm-2.85-26.3l1.5 13.75h-2.95l1.45-13.75zm6.95-10.9v5.4h4.75V38h5.6V6.2h4.75V.8h-15.1zm17.3 0V38h13.15v-5.65h-7.5V21.6h5.65v-5.65h-5.65V6.2h7.2V.8h-12.85z" fill="#000"/><path d="M47.38 50.12v2.16h1.9V65h2.24V52.28h1.9v-2.16h-6.04zm9.26 8.34h1.54V65h2.26V50.12h-2.26v5.96h-1.54v-5.96h-2.26V65h2.26v-6.54zm5.04-8.34V65h5.26v-2.26h-3v-4.3h2.26v-2.26h-2.26v-3.9h2.88v-2.16h-5.14zm14.8 3.26c0-2.04-.7-3.4-2.9-3.4h-.38c-2.12 0-2.9 1.36-2.9 3.42v8.28c0 2.08.76 3.5 2.92 3.5h.38c2.18 0 2.88-1.42 2.88-3.5v-8.3zm-2.3 8.46c0 .64-.16 1.14-.76 1.14-.64 0-.82-.5-.82-1.14v-8.56c0-.76.22-1.14.8-1.14.52 0 .78.36.78 1.14v8.56zm3.48-11.72V65h2.04v-8.56L81.86 65h1.84V50.12h-2.06v7.98l-1.94-7.98h-2.04zm7.28 0V65h5.26v-2.26h-3v-4.3h2.26v-2.26H87.2v-3.9h2.88v-2.16h-5.14zm-69.61 19l-1 9.62-1.02-9.62h-2.28L12.89 84h2.5l.96-8.66.94 8.66h2.42l1.9-14.88h-2.12l-1.04 9.64-1.02-9.64h-2.1zm9.34 8.34h1.54V84h2.26V69.12h-2.26v5.96h-1.54v-5.96h-2.26V84h2.26v-6.54zm11.16-5.08c0-2.04-.7-3.4-2.9-3.4h-.38c-2.12 0-2.9 1.36-2.9 3.42v8.28c0 2.08.76 3.5 2.92 3.5h.38c2.18 0 2.88-1.42 2.88-3.5v-8.3zm-2.3 8.46c0 .64-.16 1.14-.76 1.14-.64 0-.82-.5-.82-1.14v-8.56c0-.76.22-1.14.8-1.14.52 0 .78.36.78 1.14v8.56zm8.18-3.38h1.54V84h2.26V69.12h-2.26v5.96h-1.54v-5.96h-2.26V84h2.26v-6.54zM50.53 84h2.18l-1.94-14.88h-2.68L46.27 84h2.02l.28-2.8h1.66l.3 2.8zm-1.14-10.52l.6 5.5h-1.18l.58-5.5zm6.86-4.5c-1.78 0-2.78.92-2.78 2.9v.48c0 1.48.28 2.44 1.24 3.68l1.44 1.84c.82 1.06.92 1.44.92 2.5v.34c0 .92-.2 1.28-.74 1.28-.52 0-.74-.36-.74-1.04v-2.6h-2.24v2.98c0 1.84.96 2.82 2.76 2.82h.44c1.98 0 2.92-1.3 2.92-3.48v-.48c0-1.68-.32-2.44-1.34-3.76l-1.44-1.86c-.76-.98-.92-1.44-.92-2.28v-.28c0-.7.12-1.04.66-1.04s.64.38.64.88V74h2.18v-2.44c0-1.76-.72-2.58-2.58-2.58h-.42zm12.44.14h-2.04l-1 5.56-1.04-5.56h-2.2l2.04 8.68V84h2.26v-6.18l1.98-8.7zm6.58 3.26c0-2.04-.7-3.4-2.9-3.4h-.38c-2.12 0-2.9 1.36-2.9 3.42v8.28c0 2.08.76 3.5 2.92 3.5h.38c2.18 0 2.88-1.42 2.88-3.5v-8.3zm-2.3 8.46c0 .64-.16 1.14-.76 1.14-.64 0-.82-.5-.82-1.14v-8.56c0-.76.22-1.14.8-1.14.52 0 .78.36.78 1.14v8.56zm3.44-.08c0 2.14.82 3.42 2.82 3.42h.4c2 0 2.84-1.32 2.84-3.42V69.12h-2.3V80.9c0 .66-.2 1.06-.74 1.06-.5 0-.72-.42-.72-1.06V69.12h-2.3v11.64zm9.52-9.62h.6c.68 0 .82.32.82.96v2.08c0 .66-.2 1.06-.82 1.06h-.6v-4.1zm0 6.22h.58c.72 0 .84.28.84.94v4.48c0 .8.12 1.06.22 1.22h2.24v-.1c-.1-.22-.22-.5-.22-1.1v-5.22c0-1-.48-1.4-.98-1.62.4-.18.98-.66.98-1.9v-2.64c0-1.66-.76-2.3-2.26-2.3h-3.66V84h2.26v-6.64zm9.54.1h1.54V84h2.26V69.12h-2.26v5.96h-1.54v-5.96h-2.26V84h2.26v-6.54zm5.04-8.34V84h5.26v-2.26h-3v-4.3h2.26v-2.26h-2.26v-3.9h2.88v-2.16h-5.14zM110.71 84h2.18l-1.94-14.88h-2.68L106.45 84h2.02l.28-2.8h1.66l.3 2.8zm-1.14-10.52l.6 5.5h-1.18l.58-5.5zm6.34-2.34h.6c.68 0 .82.32.82.96v2.08c0 .66-.2 1.06-.82 1.06h-.6v-4.1zm0 6.22h.58c.72 0 .84.28.84.94v4.48c0 .8.12 1.06.22 1.22h2.24v-.1c-.1-.22-.22-.5-.22-1.1v-5.22c0-1-.48-1.4-.98-1.62.4-.18.98-.66.98-1.9v-2.64c0-1.66-.76-2.3-2.26-2.3h-3.66V84h2.26v-6.64zm4.46-8.24v2.16h1.9V84h2.24V71.28h1.9v-2.16h-6.04z" fill="#DB0000"/></g></svg>