<svg xmlns="http://www.w3.org/2000/svg" width="68.6" height="18.2" viewBox="0 0 68.6 18.2"><path d="M2.5 3.3c1.4 0 2 .6 2 2v1.8H2.8V5.5c0-.4-.1-.7-.5-.7s-.5.3-.5.8v.2c0 .6.1 1 .7 1.7l1.1 1.4c.8 1 1 1.6 1 2.8v.4c0 1.7-.7 2.6-2.2 2.6h-.3C.7 14.8 0 14 0 12.6v-2.3h1.7v2c0 .5.2.8.6.8.4 0 .6-.3.6-1v-.3c0-.8-.1-1.1-.7-1.9L1 8.6C.3 7.7.1 7 .1 5.8v-.3c0-1.5.8-2.2 2.1-2.2h.3zm7.2.1V5H8.2v9.6H6.5V5H5.1V3.4h4.6zm2.7 9.1h-1.3l-.2 2.1H9.4l1.4-11.3h2l1.5 11.3h-1.7l-.2-2.1zm-1.1-1.6h.9l-.5-4.2-.4 4.2zm5.3 3.8h-1.7V3.4h2.8c1.1 0 1.7.5 1.7 1.7v2c0 .9-.4 1.3-.7 1.4.3.2.6.5.6 1.3v4c0 .5.1.7.2.8v.1h-1.7c-.1-.1-.2-.3-.2-.9v-3.4c0-.5-.1-.7-.6-.7h-.4v5zm0-6.7h.4c.5 0 .6-.3.6-.8V5.6c0-.5-.1-.7-.6-.7h-.5V8zm7.9-4.6V5h-1.4v9.6h-1.7V5H20V3.4h4.5zm7.2 8.7c0 1.6-.5 2.7-2.2 2.7h-.3c-1.6 0-2.2-1.1-2.2-2.7V5.9c0-1.6.6-2.6 2.2-2.6h.3c1.7 0 2.2 1 2.2 2.6v6.2zM30 5.8c0-.6-.2-.9-.6-.9-.4 0-.6.3-.6.9v6.5c0 .5.1.9.6.9s.6-.4.6-.9V5.8zm2.2-2.4H34l.8 7.8.8-7.8h1.6l-1.4 11.3h-2.1L32.2 3.4zm9.4 0V5h-2.2v3h1.7v1.7h-1.7V13h2.3v1.7h-4V3.4h3.9zm2.6 11.3h-1.7V3.4h2.8c1.1 0 1.7.5 1.7 1.7v2c0 .9-.4 1.3-.7 1.4.3.2.7.5.7 1.3v4c0 .5.1.7.2.8v.1h-1.7c-.1-.1-.2-.3-.2-.9v-3.4c0-.5-.1-.7-.6-.7h-.4v5zm0-6.7h.5c.5 0 .6-.3.6-.8V5.6c0-.5-.1-.7-.6-.7h-.5V8zM61 18.2c-.3 0-.5-.1-.7-.3l-3.4-3.4c-.2-.2-.3-.5-.3-.7s.1-.5.3-.7l.1-.1 3.3-3.3c.2-.2.5-.3.7-.3s.5.1.7.3c.4.4.4 1.1 0 1.5l-1.6 1.6h1.1c3 0 5.4-2.4 5.4-5.4S64.2 2 61.2 2s-5.4 2.4-5.4 5.4c0 .6-.5 1.1-1 1.1-.6 0-1-.5-1-1v-.2c.1-4 3.4-7.3 7.4-7.3 4.1 0 7.4 3.3 7.4 7.4 0 4.1-3.3 7.4-7.4 7.4h-1.1l1.6 1.6c.4.4.4 1.1 0 1.5-.2.2-.5.3-.7.3z"/></svg>