<svg xmlns="http://www.w3.org/2000/svg" width="201" height="142.4" viewBox="0 0 201 142.4"><g fill="#DB0000"><path d="M0 19.8l75-7.9.4 4.1-70.8 7.5 12 114.3 179.8-18.9-12-114.3-71.2 7.5-.4-4.2L188.1 0 201 122.6 12.9 142.4z"/><path d="M94.7 16.2c1.8-.2 3.2-1.8 3-3.7-.2-1.8-1.9-3.1-3.7-3-1.8.2-3 1.8-3 3.7 0 1.9 1.9 3.2 3.7 3z"/><path d="M93.2 1.9c-1.1.1-2.2.4-3.2.9l.6 6.1c1-.8 2-1.3 3.2-1.5 3-.3 5.8 1.9 6.1 4.9.3 3-2 5.8-5 6.1-3 .3-5.9-1.9-6.2-4.9l-1-9.5c-3 2.2-4.8 6-4.4 10.1.6 6.1 6.2 10.5 12.2 9.9 6.1-.6 10.5-6.1 9.9-12.2-.6-6.1-6.1-10.5-12.2-9.9zM34.462 84.253l-.439-4.177 133.263-14.003.44 4.177zM30.7 44.8l6.4-.7c3.6-.4 4.9 1.5 5.2 4.8l1.8 16.7c.4 3.4-.7 5.6-4.1 6l-6.4.7-2.9-27.5zm6.7 23.1l1-.1c1.3-.1 1.6-.8 1.4-2.3L38.1 50c-.2-1.6-.6-2.1-1.7-2l-1.2.1 2.2 19.8zm19.4-4.2c.4 3.8-.6 6.6-4.6 7l-.7.1c-4 .4-5.7-2.1-6.1-5.9l-1.6-15.3c-.4-3.8.8-6.5 4.7-6.9l.7-.1c4.1-.4 5.6 1.9 6 5.7l1.6 15.4zm-5.9-15.1c-.2-1.4-.7-2.1-1.7-2-1.1.1-1.4.9-1.3 2.3l1.7 15.8c.1 1.2.6 2.1 1.7 1.9 1.1-.1 1.3-1.1 1.2-2.3l-1.6-15.7zm8.9-6.8l5.1 14.3-1.5-14.7 3.8-.4L70 68.5l-3.4.4L61 53.4l1.7 15.8-3.8.4L56 42.2l3.8-.4zM70 48.1c.2-.7.4-2.1.3-3.2l-1.5.1-.4-4.1 3.7-.4.3 3c.2 1.9-.1 3.5-.4 4.3l-2 .3zm14.1-8.9l.4 4-3.5.4 2.5 23.5-4.1.4L76.9 44l-3.5.4-.4-4 11.1-1.2zm4.8-.5l6.6-.7c3.5-.4 4.6 1.3 4.9 4l.4 4.2c.2 2.3-.6 3.5-1.7 4 1.1.3 2.5 1 2.8 3.8l.6 5.9c.3 2.9-.8 5.2-3.9 5.5l-6.9.7-2.8-27.4zm4.6 3.3l.7 7.1 1.3-.1c1.1-.1 1.4-.9 1.2-2.1l-.4-3.5c-.1-1.1-.5-1.7-1.6-1.6l-1.2.2zm1.2 11.2l.9 8.6 1.3-.1c1.3-.1 1.6-.8 1.4-2l-.5-5c-.1-1.1-.5-1.7-1.8-1.6l-1.3.1zm11-16.2l2.4 23.2 5.1-.5.4 4.2-9.3 1-2.9-27.5 4.3-.4zm19.5 19.5c.4 3.8-.6 6.6-4.6 7l-.7.1c-4 .4-5.7-2.1-6.1-5.9l-1.6-15.3c-.4-3.8.8-6.5 4.7-6.9l.7-.1c4.1-.4 5.6 1.9 6 5.7l1.6 15.4zm-5.9-15.1c-.2-1.4-.7-2.1-1.7-2-1.1.1-1.4.9-1.3 2.3l1.7 15.8c.1 1.2.6 2.1 1.7 1.9 1.1-.1 1.3-1.1 1.2-2.3l-1.6-15.7zm15.9-7.5l3.8 17.6v-18l3.9-.4-.6 27.8-4.5.5-3.4-15.8-.1 16.2-4.6.5-6.3-27.1 4.2-.4 3.7 17.6V34.5l3.9-.6zm19.3 25.7l-4.2.4-2.9-27.5 4.2-.4 2.9 27.5zm9.3-28.7l.4 4-3.5.4 2.5 23.5-4.1.4-2.5-23.5-3.6.3-.4-4 11.2-1.1zm-102.2 87c-2.4.3-4.2-1.8-4.5-4.6l-1.8-17.2c-.3-3.1.6-6 4.5-6.4l.8-.1c4.5-.5 5.3 2.4 5.6 5.6l.3 2.8-4.1.4-.3-3.1c-.1-1.2-.5-1.9-1.5-1.7-.9.1-1.2.8-1.1 2l1.7 16.1c.1 1.3.7 1.9 1.6 1.8 1.1-.1 1.5-.9 1.4-1.9l-.7-6.9-1.9.2-.4-4.2 5.8-.6 1.8 16.7-2.4.2c-.1-.1-.5-1.5-1-2.6-.2 1-1.4 3.2-3.5 3.5h-.3zm15.1-29.7l.4 4-5.3.6.8 7.2 4.2-.4.4 4.2-4.2.4.8 7.9 5.5-.6.4 4.2-9.7 1-2.9-27.5 9.6-1zm12-1.3l.4 4-3.5.4 2.5 23.5-4.1.4-2.5-23.5-3.5.4-.4-4 11.1-1.2zm4.8-.5l6.6-.7c3.5-.4 4.6 1.3 4.9 4l.4 4.2c.2 2.3-.6 3.5-1.7 4 1.1.3 2.5 1 2.8 3.8l.6 5.9c.3 2.9-.8 5.2-3.9 5.5l-6.9.7-2.8-27.4zm4.5 3.3l.7 7.1 1.3-.1c1.1-.1 1.4-.9 1.2-2.1l-.4-3.5c-.1-1.1-.5-1.7-1.6-1.6l-1.2.2zm1.2 11.2l.9 8.6 1.3-.1c1.3-.1 1.6-.8 1.4-2l-.5-5c-.1-1.1-.5-1.7-1.8-1.6l-1.3.1zm16.3-16.8l.4 4-5.3.6.8 7.2 4.2-.4.4 4.2-4.2.4.8 7.9 5.5-.6.4 4.2-9.7 1-2.8-27.5 9.5-1zm10.4 21.4l-3.1.3v5.2l-3.7.4.5-27.8 4.9-.5 6.5 27.1-4 .4-1.1-5.1zm-3-3.8l2.2-.2-2.2-10v10.2zm14.8-19.9l.4 4-3.5.4 2.5 23.5-4.1.3-2.5-23.5-3.5.4-.4-4 11.1-1.1zm6.6-1c3.4-.4 4.9 1 5.3 4.3l.5 4.5-4 .4-.4-3.9c-.1-.9-.4-1.6-1.4-1.5-1 .1-1.2.8-1 2l.1.5c.2 1.5.5 2.4 2.1 4l3 3.2c2.1 2.2 2.9 3.6 3.2 6.7l.1.9c.4 4-1.1 6.6-4.7 7l-.8.1c-3.3.3-5.3-1.3-5.6-4.7l-.6-5.5 4.1-.4.5 4.8c.1 1.3.6 1.9 1.6 1.8 1-.1 1.3-.8 1.1-2.5l-.1-.6c-.2-2-.5-2.6-2.2-4.4l-3-3.1c-2-2.1-2.7-3.8-3-6.5l-.1-.9c-.4-3.7 1.3-5.5 4.6-5.9l.7-.3z"/></g></svg>