<svg xmlns="http://www.w3.org/2000/svg" width="400.6" height="37.3" viewBox="0 0 400.6 37.3"><path d="M15.6.4L18.1 24 20.6.4h5.2l-4.6 36.4h-5.9L13 15.7l-2.3 21.2H4.5L0 .4h5.6L8.1 24 10.5.5h5.1zm17.7 36.5h-5.5V.4h5.5V15h3.8V.4h5.5v36.4h-5.5v-16h-3.8v16.1zm17.8 0h-5.5V.4h5.5v36.5zM63.2 21h5.4v8.4c0 3.9-1.3 7.9-6.6 7.9h-1.2c-5.6 0-6.8-4-6.8-7.7V7.4C54 3.7 55.6.1 60.6.1h1.3c6.1 0 6.7 4 6.7 7.6v6.5h-5.4V7.8c0-1.6-.5-2.4-1.9-2.4s-1.7.8-1.7 2.4v21.6c0 1.6.5 2.5 1.8 2.5s1.8-1 1.8-2.4V21zm13.7 15.9h-5.5V.4h5.5V15h3.8V.4h5.5v36.4h-5.5v-16h-3.8v16.1zM95.1.4h8.4c4.7 0 6.2 2.7 6.2 7v22.2c0 4.5-1.7 7.2-6.2 7.2h-8.4V.4zm5.6 31.2h1.3c1.7 0 2.1-.9 2.1-2.8V8.2c0-2.1-.5-2.8-1.9-2.8h-1.6v26.2zM125.3.4v5.3h-7v9.5h5.5v5.5h-5.5v10.5h7.3v5.5h-12.8V.4h12.5zm10.3-.3c4.5 0 6.3 2 6.3 6.3v6h-5.3V7.1c0-1.2-.2-2.2-1.6-2.2s-1.6.8-1.6 2.5v.7c0 2.1.4 3.2 2.2 5.6l3.5 4.6c2.5 3.2 3.3 5.1 3.3 9.2v1.2c0 5.3-2.3 8.5-7.1 8.5h-1.1c-4.4 0-6.7-2.4-6.7-6.9V23h5.5v6.4c0 1.7.5 2.5 1.8 2.5s1.8-.9 1.8-3.1V28c0-2.6-.2-3.5-2.2-6.1l-3.5-4.5c-2.3-3-3-5.4-3-9V7.2c0-4.8 2.4-7.1 6.8-7.1h.9zM154 21h5.4v8.4c0 3.9-1.3 7.9-6.6 7.9h-1.2c-5.6 0-6.8-4-6.8-7.7V7.4c0-3.7 1.6-7.3 6.6-7.3h1.3c6.1 0 6.7 4 6.7 7.6v6.5H154V7.8c0-1.6-.5-2.4-1.9-2.4s-1.7.8-1.7 2.4v21.6c0 1.6.5 2.5 1.8 2.5s1.8-1 1.8-2.4V21zm13.7 15.9h-5.5V.4h8.9c3.7 0 5.5 1.6 5.5 5.6v6.5c0 3-1.4 4.2-2.4 4.7 1.2.5 2.4 1.5 2.4 4V34c0 1.5.3 2.2.5 2.7v.2h-5.5c-.2-.4-.5-1-.5-3v-11c0-1.6-.3-2.3-2.1-2.3h-1.4v16.3zm0-21.5h1.5c1.5 0 2-1 2-2.6V7.7c0-1.6-.3-2.3-2-2.3h-1.5v10zM185 36.9h-5.5V.4h5.5v36.5zM188.1.4h8.7c4.6 0 5.8 2.4 5.8 5.9v5.6c0 3-1.3 4.5-2.7 5 1.5.5 3.2 1.7 3.2 5.3v7.9c0 3.9-1.7 6.7-5.9 6.7h-9.1V.4zm5.5 5v9.4h1.7c1.5 0 1.9-1 1.9-2.5V7.7c0-1.5-.4-2.3-1.9-2.3h-1.7zm0 14.9v11.5h1.7c1.8 0 2.1-.8 2.1-2.4v-6.7c0-1.5-.4-2.4-2.1-2.4h-1.7zM218.3.4v5.3h-7v9.5h5.5v5.5h-5.5v10.5h7.3v5.5h-12.8V.4h12.5zm10.3-.3c4.5 0 6.3 2 6.3 6.3v6h-5.3V7.1c0-1.2-.2-2.2-1.6-2.2-1.3 0-1.6.8-1.6 2.5v.7c0 2.1.4 3.2 2.2 5.6l3.5 4.6c2.5 3.2 3.3 5.1 3.3 9.2v1.2c0 5.3-2.3 8.5-7.1 8.5h-1.1c-4.4 0-6.7-2.4-6.7-6.9V23h5.5v6.4c0 1.7.5 2.5 1.8 2.5s1.8-.9 1.8-3.1V28c0-2.6-.2-3.5-2.2-6.1l-3.5-4.5c-2.3-3-3-5.4-3-9V7.2c0-4.8 2.4-7.1 6.8-7.1h.9zm29.4.3v5.3h-4.6v31.1h-5.5V5.7h-4.6V.4H258zm7.9 36.5h-5.5V.4h5.5V15h3.8V.4h5.5v36.4h-5.5v-16h-3.8v16.1zM290.7.4v5.3h-7v9.5h5.5v5.5h-5.5v10.5h7.3v5.5h-12.8V.4h12.5zm2.7 0h7.1l2.6 19.2L305.8.4h6.6v36.4h-5.2V13.3l-3.3 23.5h-2.2l-3.4-23.5v23.5h-4.9V.4zm28 0h8.7c4.6 0 5.8 2.4 5.8 5.9v5.6c0 3-1.3 4.5-2.7 5 1.5.5 3.2 1.7 3.2 5.3v7.9c0 3.9-1.7 6.7-5.9 6.7h-9.1V.4zm5.5 5v9.4h1.7c1.5 0 1.9-1 1.9-2.5V7.7c0-1.5-.4-2.3-1.9-2.3h-1.7zm0 14.9v11.5h1.7c1.8 0 2.1-.8 2.1-2.4v-6.7c0-1.5-.4-2.4-2.1-2.4h-1.7zM351.6.4v5.3h-7v9.5h5.5v5.5h-5.5v10.5h7.3v5.5H339V.4h12.6zm10.3-.3c4.5 0 6.3 2 6.3 6.3v6h-5.3V7.1c0-1.2-.2-2.2-1.6-2.2-1.3 0-1.6.8-1.6 2.5v.7c0 2.1.4 3.2 2.2 5.6l3.5 4.6c2.5 3.2 3.3 5.1 3.3 9.2v1.2c0 5.3-2.3 8.5-7.1 8.5h-1.1c-4.4 0-6.7-2.4-6.7-6.9V23h5.5v6.4c0 1.7.5 2.5 1.8 2.5s1.8-.9 1.8-3.1V28c0-2.6-.2-3.5-2.2-6.1l-3.5-4.5c-2.3-3-3-5.4-3-9V7.2c0-4.8 2.4-7.1 6.8-7.1h.9zm23.1.3v5.3h-4.6v31.1h-5.5V5.7h-4.6V.4H385zm5.8 29v-5.9c0-3.1.2-4 1.7-6.6l1.4-2.4c1.1-1.8 1.1-2.7 1.1-4.7V7.1c0-1.4-.3-1.9-1.4-1.9-1.1 0-1.3.5-1.3 1.9V13H387V7.1c0-4.1 1-7.1 6.1-7.1h1.1c5 0 6.5 2.5 6.5 6.8v3.6c0 2.4-.5 4.1-2.2 6.6l-1.6 2.3c-1.5 2.1-1.6 3-1.6 5.9v4.3h-4.5zm4.7 7.5h-5.1v-6.3h5.1v6.3z" fill="#DB0000"/></svg>