<svg width="64" height="85" viewBox="0 0 64 85" xmlns="http://www.w3.org/2000/svg"><title>Artboard 2</title><g fill="none" fill-rule="evenodd"><path d="M8.275 38h8.65c4.65 0 6.35-2.85 6.35-7.4V7.95c0-4.4-1.5-7.15-6.35-7.15h-8.65V38zm5.65-32.15h1.6c1.4 0 1.95.75 1.95 2.9V29.7c0 2-.5 2.9-2.2 2.9h-1.35V5.85zM34.975 38h5.45L35.575.8h-6.7L24.325 38h5.05l.7-7h4.15l.75 7zm-2.85-26.3l1.5 13.75h-2.95l1.45-13.75zm9.7 26.3h8.65c4.65 0 6.35-2.85 6.35-7.4V7.95c0-4.4-1.5-7.15-6.35-7.15h-8.65V38zm5.65-32.15h1.6c1.4 0 1.95.75 1.95 2.9V29.7c0 2-.5 2.9-2.2 2.9h-1.35V5.85z" fill="#000"/><path d="M14.71 58.54L16.59 65h2.32l-2.32-7.96 2.1-6.92h-2.2l-1.78 5.96v-5.96h-2.26V65h2.26v-6.46zm7.16-8.42h-2.26V65h2.26V50.12zm1.24 0V65h2.04v-8.56L27.31 65h1.84V50.12h-2.06v7.98l-1.94-7.98h-2.04zm9.52 15.08c1.14 0 1.9-1.16 2.06-1.66.18.64.36 1.38.38 1.46h1.28v-9.04h-3.16v2.28h1.02v3.72c0 .56-.26.96-.84.96-.46 0-.74-.36-.74-1.06v-8.7c0-.66.22-1.02.7-1.02.56 0 .72.36.72 1.02v1.68h2.2v-1.52c0-1.76-.28-3.34-2.7-3.34h-.44c-2.14 0-2.78 1.54-2.78 3.2v9.3c0 1.54.84 2.72 2.16 2.72h.14zm13.46-11.82c0-2.04-.7-3.4-2.9-3.4h-.38c-2.12 0-2.9 1.36-2.9 3.42v8.28c0 2.08.76 3.5 2.92 3.5h.38c2.18 0 2.88-1.42 2.88-3.5v-8.3zm-2.3 8.46c0 .64-.16 1.14-.76 1.14-.64 0-.82-.5-.82-1.14v-8.56c0-.76.22-1.14.8-1.14.52 0 .78.36.78 1.14v8.56zM47.27 65h2.26v-6.54h2.28V56.2h-2.28v-3.92h2.88v-2.16h-5.14V65zM1.48 69.12v2.16h1.9V84h2.24V71.28h1.9v-2.16H1.48zm9.26 8.34h1.54V84h2.26V69.12h-2.26v5.96h-1.54v-5.96H8.48V84h2.26v-6.54zm5.04-8.34V84h5.26v-2.26h-3v-4.3h2.26v-2.26h-2.26v-3.9h2.88v-2.16h-5.14zm12.38 11.86c0 .6-.2 1-.74 1-.5 0-.72-.36-.72-1.02v-8.84c0-.66.14-.98.7-.98.56 0 .76.34.76.98v2.62h2.22v-2.66c0-1.46-.28-3.1-2.76-3.1h-.52c-2.04 0-2.7 1.46-2.7 2.98v9.08c0 1.5.5 3.14 2.78 3.14h.5c2.18 0 2.7-1.62 2.7-3.22v-3.44h-2.22v3.46zM35.28 84h2.18l-1.94-14.88h-2.68L31.02 84h2.02l.28-2.8h1.66l.3 2.8zm-1.14-10.52l.6 5.5h-1.18l.58-5.5zm6.86-4.5c-1.78 0-2.78.92-2.78 2.9v.48c0 1.48.28 2.44 1.24 3.68l1.44 1.84c.82 1.06.92 1.44.92 2.5v.34c0 .92-.2 1.28-.74 1.28-.52 0-.74-.36-.74-1.04v-2.6H38.1v2.98c0 1.84.96 2.82 2.76 2.82h.44c1.98 0 2.92-1.3 2.92-3.48v-.48c0-1.68-.32-2.44-1.34-3.76l-1.44-1.86c-.76-.98-.92-1.44-.92-2.28v-.28c0-.7.12-1.04.66-1.04s.64.38.64.88V74H44v-2.44c0-1.76-.72-2.58-2.58-2.58H41zm3.84.14v2.16h1.9V84h2.24V71.28h1.9v-2.16h-6.04zm7 0V84h5.02v-2.3H54.1V69.12h-2.26zm6 0V84h5.26v-2.26h-3v-4.3h2.26v-2.26H60.1v-3.9h2.88v-2.16h-5.14z" fill="#DB0000"/></g></svg>