<svg width="171" height="16" viewBox="0 0 171 16" xmlns="http://www.w3.org/2000/svg"><title>BE THE #1 GIFT GIVER</title><path d="M.499 15h3.534c1.615 0 2.28-1.083 2.28-2.584V9.357c0-1.406-.665-1.881-1.235-2.071.551-.209 1.064-.779 1.064-1.957V3.163c0-1.368-.475-2.299-2.261-2.299H.499V15zm2.793-6.441c.684 0 .836.323.836.912v2.584c0 .627-.152.95-.836.95h-.646V8.559h.646zm0-5.776c.589 0 .741.323.741.893v1.786c0 .589-.171.988-.741.988h-.646V2.783h.646zM7.478.864V15h4.997v-2.147h-2.85V8.768h2.147V6.621H9.625V2.916h2.736V.864H7.478zm8.22 0v2.052h1.805V15h2.128V2.916h1.805V.864h-5.738zm8.917 7.923h1.463V15h2.147V.864h-2.147v5.662h-1.463V.864h-2.147V15h2.147V8.787zM29.523.864V15h4.997v-2.147h-2.85V8.768h2.147V6.621H31.67V2.916h2.736V.864h-4.883zm10.177 0l-.38 4.123h-1.178l-.171 1.558h1.216l-.19 1.995H37.8l-.171 1.596h1.235L38.427 15h1.558l.437-4.864h.76L40.745 15h1.577l.437-4.864h1.197l.171-1.596h-1.216l.171-1.995h1.235l.152-1.558h-1.235l.38-4.123h-1.577l-.38 4.123h-.76l.38-4.123H39.7zm1.045 5.681h.76l-.171 1.995h-.76l.171-1.995zm5.516-2.375V15h2.166V.864h-1.729c-.209 1.121-.608 1.482-1.881 1.558V4.17h1.444zm8.087 11.02c1.083 0 1.805-1.102 1.957-1.577.171.608.342 1.311.361 1.387h1.216V6.412H54.88v2.166h.969v3.534c0 .532-.247.912-.798.912-.437 0-.703-.342-.703-1.007V3.752c0-.627.209-.969.665-.969.532 0 .684.342.684.969v1.596h2.09V3.904c0-1.672-.266-3.173-2.565-3.173h-.418c-2.033 0-2.641 1.463-2.641 3.04v8.835c0 1.463.798 2.584 2.052 2.584h.133zM61.27.864h-2.147V15h2.147V.864zM62.568 15h2.147V8.787h2.166V6.64h-2.166V2.916h2.736V.864h-4.883V15zM68.331.864v2.052h1.805V15h2.128V2.916h1.805V.864h-5.738zM79.667 15.19c1.083 0 1.805-1.102 1.957-1.577.171.608.342 1.311.361 1.387h1.216V6.412h-3.002v2.166h.969v3.534c0 .532-.247.912-.798.912-.437 0-.703-.342-.703-1.007V3.752c0-.627.209-.969.665-.969.532 0 .684.342.684.969v1.596h2.09V3.904c0-1.672-.266-3.173-2.565-3.173h-.418c-2.033 0-2.641 1.463-2.641 3.04v8.835c0 1.463.798 2.584 2.052 2.584h.133zM86.589.864h-2.147V15h2.147V.864zM89.255 15h2.603L93.644.864h-2.033l-.988 9.728-.969-9.728h-2.185L89.255 15zM94.524.864V15h4.997v-2.147h-2.85V8.768h2.147V6.621h-2.147V2.916h2.736V.864h-4.883zm8.195 1.919h.57c.646 0 .779.304.779.912v1.976c0 .627-.19 1.007-.779 1.007h-.57V2.783zm0 5.909h.551c.684 0 .798.266.798.893v4.256c0 .76.114 1.007.209 1.159h2.128v-.095c-.095-.209-.209-.475-.209-1.045V8.901c0-.95-.456-1.33-.931-1.539.38-.171.931-.627.931-1.805V3.049c0-1.577-.722-2.185-2.147-2.185h-3.477V15h2.147V8.692zm6.58 3.876h-1.995V15h1.995v-2.432zM114.593.864l-.38 4.123h-1.178l-.171 1.558h1.216l-.19 1.995h-1.197l-.171 1.596h1.235L113.32 15h1.558l.437-4.864h.76L115.638 15h1.577l.437-4.864h1.197l.171-1.596h-1.216l.171-1.995h1.235l.152-1.558h-1.235l.38-4.123h-1.577l-.38 4.123h-.76l.38-4.123h-1.577zm1.045 5.681h.76l-.171 1.995h-.76l.171-1.995zm6.77 8.645c1.083 0 1.805-1.102 1.957-1.577.171.608.342 1.311.361 1.387h1.216V6.412h-3.002v2.166h.969v3.534c0 .532-.247.912-.798.912-.437 0-.703-.342-.703-1.007V3.752c0-.627.209-.969.665-.969.532 0 .684.342.684.969v1.596h2.09V3.904c0-1.672-.266-3.173-2.565-3.173h-.418c-2.033 0-2.641 1.463-2.641 3.04v8.835c0 1.463.798 2.584 2.052 2.584h.133zM127.183.864V15h4.997v-2.147h-2.85V8.768h2.147V6.621h-2.147V2.916h2.736V.864h-4.883zm5.782 0v2.052h1.805V15h2.128V2.916h1.805V.864h-5.738zM139.735 15h3.534c1.615 0 2.28-1.083 2.28-2.584V9.357c0-1.406-.665-1.881-1.235-2.071.551-.209 1.064-.779 1.064-1.957V3.163c0-1.368-.475-2.299-2.261-2.299h-3.382V15zm2.793-6.441c.684 0 .836.323.836.912v2.584c0 .627-.152.95-.836.95h-.646V8.559h.646zm0-5.776c.589 0 .741.323.741.893v1.786c0 .589-.171.988-.741.988h-.646V2.783h.646zm4.186-1.919V15h4.997v-2.147h-2.85V8.768h2.147V6.621h-2.147V2.916h2.736V.864h-4.883zM156.524 15h2.071L156.752.864h-2.546L152.477 15h1.919l.266-2.66h1.577l.285 2.66zm-1.083-9.994l.57 5.225h-1.121l.551-5.225zm2.837-4.142v2.052h1.805V15h2.128V2.916h1.805V.864h-5.738zm9.354-.133c-1.691 0-2.641.874-2.641 2.755v.456c0 1.406.266 2.318 1.178 3.496l1.368 1.748c.779 1.007.874 1.368.874 2.375v.323c0 .874-.19 1.216-.703 1.216-.494 0-.703-.342-.703-.988v-2.47h-2.128v2.831c0 1.748.912 2.679 2.622 2.679h.418c1.881 0 2.774-1.235 2.774-3.306v-.456c0-1.596-.304-2.318-1.273-3.572l-1.368-1.767c-.722-.931-.874-1.368-.874-2.166v-.266c0-.665.114-.988.627-.988s.608.361.608.836V5.5h2.071V3.182c0-1.672-.684-2.451-2.451-2.451h-.399z" fill-rule="evenodd"/></svg>