<svg xmlns="http://www.w3.org/2000/svg" width="325.3" height="32.4" viewBox="0 0 325.3 32.4"><path d="M0 1.1h7.4c3.9 0 4.9 2 4.9 5v4.7c0 2.6-1.1 3.8-2.3 4.3 1.2.4 2.7 1.5 2.7 4.5v6.7c0 3.3-1.5 5.7-5 5.7H0V1.1zm4.7 4.2v8h1.4c1.2 0 1.6-.9 1.6-2.2V7.3c0-1.2-.3-2-1.6-2H4.7zm0 12.6v9.7h1.4c1.5 0 1.8-.7 1.8-2.1v-5.7c0-1.3-.3-2-1.8-2H4.7zM24.6 1.1v4.5h-6v8.1h4.7v4.7h-4.7v8.9h6.2V32H13.9V1.1h10.7zm9.1 25.1h-3.5l-.5 5.8h-4.2l3.8-30.9h5.6l4 30.9h-4.5l-.7-5.8zm-3-4.6h2.5L32 10.2l-1.3 11.4zM50.2 1.1v4.5h-4V32h-4.7V5.6h-4V1.1h12.7zm7.6-.3c3.9 0 5.4 1.7 5.4 5.4v5.1h-4.5V6.8c0-1-.2-1.8-1.3-1.8S56 5.7 56 7.1v.6c0 1.7.3 2.7 1.9 4.7l3 3.9c2.1 2.7 2.8 4.3 2.8 7.8v1c0 4.5-2 7.2-6.1 7.2h-.9c-3.7 0-5.7-2-5.7-5.9v-6.2h4.7v5.4c0 1.4.5 2.2 1.5 2.2 1.1 0 1.5-.7 1.5-2.7v-.7c0-2.2-.2-3-1.9-5.2l-3-3.8c-2-2.6-2.6-4.6-2.6-7.7v-1c0-4.1 2.1-6 5.8-6h.8zm16.1 18.4V32h-4.7V1.1h7.4c3.3 0 4.8 1.4 4.8 5.1v7.3c0 3.7-1.6 5.7-4.8 5.7h-2.7zm0-4.5h1.2c1.4 0 1.6-1 1.6-2.2V7.4c0-1.2-.2-2.1-1.6-2.1h-1.2v9.4zm21.6 10.4c0 4.3-1.5 7.3-6 7.3h-.8c-4.5 0-6.1-3-6.1-7.3V7.9c0-4.3 1.6-7.1 6-7.1h.8c4.6 0 6 2.8 6 7.1v17.2zM90.7 7.7c0-1.6-.5-2.4-1.6-2.4-1.2 0-1.7.8-1.7 2.4v17.8c0 1.3.4 2.4 1.7 2.4 1.2 0 1.6-1 1.6-2.4V7.7zm18.6-6.6l2.1 20 2.2-20h4.4L114 32h-5l-2-18-2 18h-5.2L96 1.1h4.7l2.1 20 2.1-20h4.4zm20.3 0v4.5h-6v8.1h4.7v4.7h-4.7v8.9h6.2V32h-10.9V1.1h10.7zm6 30.9h-4.7V1.1h7.6c3.1 0 4.7 1.3 4.7 4.8v5.5c0 2.6-1.2 3.6-2 4 1 .5 2 1.3 2 3.4v10.9c0 1.2.2 1.8.5 2.3H139c-.2-.3-.5-.9-.5-2.5v-9.3c0-1.4-.2-2-1.7-2h-1.2V32zm0-18.2h1.2c1.3 0 1.7-.8 1.7-2.2V7.3c0-1.3-.3-2-1.7-2h-1.2v8.5zm9.1-12.7h7.4c3.9 0 4.9 2 4.9 5v4.7c0 2.6-1.1 3.8-2.3 4.3 1.2.4 2.7 1.5 2.7 4.5v6.7c0 3.3-1.5 5.7-5 5.7h-7.7V1.1zm4.7 4.2v8h1.4c1.2 0 1.6-.9 1.6-2.2V7.3c0-1.2-.3-2-1.6-2h-1.4zm0 12.6v9.7h1.4c1.5 0 1.8-.7 1.8-2.1v-5.7c0-1.3-.3-2-1.8-2h-1.4zm19.9-16.8v4.5h-6v8.1h4.7v4.7h-4.7v8.9h6.2V32h-10.9V1.1h10.7zm9.1 25.1h-3.5l-.6 5.8h-4.2l3.8-30.9h5.6l4 30.9H179l-.6-5.8zm-3-4.6h2.5l-1.2-11.4-1.3 11.4zm19.5-20.5v4.5h-4V32h-4.7V5.6h-4V1.1h12.7zm7.6-.3c3.9 0 5.4 1.7 5.4 5.4v5.1h-4.5V6.8c0-1-.2-1.8-1.3-1.8s-1.4.7-1.4 2.2v.6c0 1.7.3 2.7 1.9 4.7l3 3.9c2.1 2.7 2.8 4.3 2.8 7.8v1c0 4.5-2 7.2-6.1 7.2h-.9c-3.7 0-5.7-2-5.7-5.9v-6.2h4.7v5.4c0 1.4.5 2.2 1.5 2.2 1.1 0 1.5-.7 1.5-2.7v-.7c0-2.2-.2-3-1.9-5.2l-3-3.8c-2-2.6-2.6-4.6-2.6-7.7v-1c0-4.1 2.1-6 5.8-6h.8zm9.5 2.8v3.1h-2.6V3.3c0-1.7.7-3.3 3-3.3h.6c2 0 3.3.9 3.3 3.3v.9c0 2.1-.1 3-1.6 5.2-.5.7-1.2 1.7-1.7 2.5-1.6 2.3-1.7 3-1.7 3.7h2.4v-3.5h2.8v6H209v-1.4c0-2.4.4-3.5 2.1-6.6l1.6-2.8c.8-1.3.8-1.9.8-2.8v-.9c0-.7-.2-.9-.7-.9-.7-.1-.8.2-.8.9zm22.2-2.5l2.1 20 2.2-20h4.4l-4 30.9h-5l-2-18-2 18h-5.2l-3.9-30.9h4.7l2.1 20 2.1-20h4.5zM248.5 32h-4.7V1.1h4.7V32zm6 0h-4.7V1.1h7.6c3.1 0 4.7 1.3 4.7 4.8v5.5c0 2.6-1.2 3.6-2 4 1 .5 2 1.3 2 3.4v10.9c0 1.2.2 1.8.5 2.3h-4.7c-.2-.3-.5-.9-.5-2.5v-9.3c0-1.4-.2-2-1.7-2h-1.2V32zm0-18.2h1.2c1.3 0 1.7-.8 1.7-2.2V7.3c0-1.3-.3-2-1.7-2h-1.2v8.5zm19.8-12.7v4.5h-6v8.1h4.7v4.7h-4.7v8.9h6.2V32h-10.9V1.1h10.7zm6 0v26.2h5.7V32h-10.4V1.1h4.7zm17.5 0v4.5h-6v8.1h4.7v4.7h-4.7v8.9h6.2V32h-10.9V1.1h10.7zm8-.3c3.9 0 5.4 1.7 5.4 5.4v5.1h-4.5V6.8c0-1-.2-1.8-1.3-1.8s-1.4.7-1.4 2.2v.6c0 1.7.3 2.7 1.9 4.7l3 3.9c2.1 2.7 2.8 4.3 2.8 7.8v1c0 4.5-2 7.2-6.1 7.2h-.9c-3.7 0-5.7-2-5.7-5.9v-6.2h4.7v5.4c0 1.4.5 2.2 1.5 2.2 1.1 0 1.5-.7 1.5-2.7v-.7c0-2.2-.2-3-1.9-5.2l-3-3.8c-2-2.6-2.6-4.6-2.6-7.7v-1c0-4.1 2.1-6 5.8-6h.8zm13.7 0c3.9 0 5.4 1.7 5.4 5.4v5.1h-4.5V6.8c0-1-.2-1.8-1.3-1.8s-1.4.7-1.4 2.2v.6c0 1.7.3 2.7 1.9 4.7l3 3.9c2.1 2.7 2.8 4.3 2.8 7.8v1c0 4.5-2 7.2-6.1 7.2h-.9c-3.7 0-5.7-2-5.7-5.9v-6.2h4.7v5.4c0 1.4.5 2.2 1.5 2.2 1.1 0 1.5-.7 1.5-2.7v-.7c0-2.2-.2-3-1.9-5.2l-3-3.8c-2-2.6-2.6-4.6-2.6-7.7v-1c0-4.1 2.1-6 5.8-6h.8z" fill="#DB0000"/></svg>