<svg width="158" height="80" viewBox="0 0 158 80" xmlns="http://www.w3.org/2000/svg"><title>Artboard 8</title><g fill="none" fill-rule="evenodd"><path d="M8.396 18.331c3.157 0 4.756-1.968 4.756-5.576V5.539c0-3.649-1.475-5.043-4.756-5.043H1.057V31H5.69V18.331h2.706zM5.69 4.637h1.19c1.352 0 1.598.902 1.598 2.091v5.002c0 1.23-.205 2.214-1.599 2.214H5.69V4.637zM14.946.496V31h10.292v-4.715h-5.659V.496h-4.633zM35.026 31h4.47L35.519.496h-5.494L26.294 31h4.14l.575-5.74h3.402l.615 5.74zM32.69 9.434l1.23 11.275h-2.418L32.69 9.434zM50.761.496h-4.183l-2.05 11.398L42.398.496h-4.51l4.181 17.794V31h4.634V18.331L50.76.496zm1.014 0V31h10.291v-4.715h-5.658V.496h-4.633zm16.514 0h-4.633V31h4.633V.496zm7.698-.287c-3.65 0-5.7 1.886-5.7 5.945v.984c0 3.034.575 5.002 2.542 7.544l2.953 3.772c1.68 2.173 1.886 2.952 1.886 5.125v.697c0 1.886-.41 2.624-1.518 2.624-1.066 0-1.517-.738-1.517-2.132v-5.33h-4.591v6.109c0 3.772 1.968 5.781 5.657 5.781h.903c4.058 0 5.986-2.665 5.986-7.134v-.984c0-3.444-.656-5.002-2.747-7.708l-2.953-3.813c-1.558-2.009-1.886-2.952-1.886-4.674v-.574c0-1.435.247-2.132 1.354-2.132 1.107 0 1.312.779 1.312 1.804V10.5h4.468V5.498c0-3.608-1.475-5.289-5.288-5.289h-.861zm7.452.287v4.428h3.895V31h4.591V4.924h3.895V.496H83.44zm23.104 30.914c2.336 0 3.894-2.378 4.222-3.403.37 1.312.739 2.829.78 2.993h2.623V12.468h-6.478v4.674h2.091v7.626c0 1.148-.532 1.968-1.722 1.968-.942 0-1.516-.738-1.516-2.173V6.728c0-1.353.45-2.091 1.434-2.091 1.148 0 1.477.738 1.477 2.091v3.444h4.51V7.056c0-3.608-.575-6.847-5.535-6.847h-.903c-4.386 0-5.698 3.157-5.698 6.56v19.065c0 3.157 1.721 5.576 4.427 5.576h.288zm9.542-7.052c0 4.387 1.681 7.011 5.782 7.011h.82c4.1 0 5.822-2.706 5.822-7.011V.496h-4.715v24.149c0 1.353-.41 2.173-1.517 2.173-1.026 0-1.477-.861-1.477-2.173V.496h-4.715v23.862zm19.097-19.721h1.23c1.393 0 1.68.656 1.68 1.968v4.264c0 1.353-.41 2.173-1.68 2.173h-1.23V4.637zm0 12.751h1.189c1.475 0 1.721.574 1.721 1.927v9.184c0 1.64.246 2.173.451 2.501h4.593v-.205c-.206-.451-.451-1.025-.451-2.255V17.839c0-2.05-.984-2.87-2.01-3.321.82-.369 2.01-1.353 2.01-3.895V5.211c0-3.403-1.559-4.715-4.633-4.715h-7.504V31h4.633V17.388zm9.42 6.97c0 4.387 1.68 7.011 5.78 7.011h.82c4.1 0 5.822-2.706 5.822-7.011V.496h-4.714v24.149c0 1.353-.41 2.173-1.518 2.173-1.024 0-1.476-.861-1.476-2.173V.496h-4.715v23.862z" fill="#000"/><path d="M29.81 43.14v2.16h1.9v12.72h2.24V45.3h1.9v-2.16h-6.04zm9.31 8.34h1.54v6.54h2.26V43.14h-2.26v5.96h-1.54v-5.96h-2.26v14.88h2.26v-6.54zm5.09-8.34v14.88h5.26v-2.26h-3v-4.3h2.26V49.2h-2.26v-3.9h2.88v-2.16h-5.14zm12.36 8.7c1.54 0 2.32-.96 2.32-2.72V45.6c0-1.78-.72-2.46-2.32-2.46h-3.58v14.88h2.26v-6.18h1.32zm-1.32-6.68h.58c.66 0 .78.44.78 1.02v2.44c0 .6-.1 1.08-.78 1.08h-.58v-4.54zm7.95 12.86h2.18l-1.94-14.88h-2.68l-1.82 14.88h2.02l.28-2.8h1.66l.3 2.8zM62.06 47.5l.6 5.5h-1.18l.58-5.5zm6.39-2.34h.6c.68 0 .82.32.82.96v2.08c0 .66-.2 1.06-.82 1.06h-.6v-4.1zm0 6.22h.58c.72 0 .84.28.84.94v4.48c0 .8.12 1.06.22 1.22h2.24v-.1c-.1-.22-.22-.5-.22-1.1V51.6c0-1-.48-1.4-.98-1.62.4-.18.98-.66.98-1.9v-2.64c0-1.66-.76-2.3-2.26-2.3h-3.66v14.88h2.26v-6.64zm4.51-8.24v2.16h1.9v12.72h2.24V45.3H79v-2.16h-6.04zm12.99 0h-2.04l-1 5.56-1.04-5.56h-2.2l2.04 8.68v6.2h2.26v-6.18l1.98-8.7zm5.96-.14c-1.78 0-2.78.92-2.78 2.9v.48c0 1.48.28 2.44 1.24 3.68l1.44 1.84c.82 1.06.92 1.44.92 2.5v.34c0 .92-.2 1.28-.74 1.28-.52 0-.74-.36-.74-1.04v-2.6h-2.24v2.98c0 1.84.96 2.82 2.76 2.82h.44c1.98 0 2.92-1.3 2.92-3.48v-.48c0-1.68-.32-2.44-1.34-3.76l-1.44-1.86c-.76-.98-.92-1.44-.92-2.28v-.28c0-.7.12-1.04.66-1.04s.64.38.64.88v2.14h2.18v-2.44c0-1.76-.72-2.58-2.58-2.58h-.42zm3.89.14v2.16h1.9v12.72h2.24V45.3h1.9v-2.16H95.8zm9.97 14.88h2.18l-1.94-14.88h-2.68l-1.82 14.88h2.02l.28-2.8h1.66l.3 2.8zm-1.14-10.52l.6 5.5h-1.18l.58-5.5zm6.39-2.34h.6c.68 0 .82.32.82.96v2.08c0 .66-.2 1.06-.82 1.06h-.6v-4.1zm0 6.22h.58c.72 0 .84.28.84.94v4.48c0 .8.12 1.06.22 1.22h2.24v-.1c-.1-.22-.22-.5-.22-1.1V51.6c0-1-.48-1.4-.98-1.62.4-.18.98-.66.98-1.9v-2.64c0-1.66-.76-2.3-2.26-2.3h-3.66v14.88h2.26v-6.64zm4.51-8.24v2.16h1.9v12.72h2.24V45.3h1.9v-2.16h-6.04zm9.67-.14c-1.78 0-2.78.92-2.78 2.9v.48c0 1.48.28 2.44 1.24 3.68l1.44 1.84c.82 1.06.92 1.44.92 2.5v.34c0 .92-.2 1.28-.74 1.28-.52 0-.74-.36-.74-1.04v-2.6h-2.24v2.98c0 1.84.96 2.82 2.76 2.82h.44c1.98 0 2.92-1.3 2.92-3.48v-.48c0-1.68-.32-2.44-1.34-3.76l-1.44-1.86c-.76-.98-.92-1.44-.92-2.28v-.28c0-.7.12-1.04.66-1.04s.64.38.64.88v2.14h2.18v-2.44c0-1.76-.72-2.58-2.58-2.58h-.42zM32.8 62.14l-1 9.62-1.02-9.62H28.5l1.86 14.88h2.5l.96-8.66.94 8.66h2.42l1.9-14.88h-2.12l-1.04 9.64-1.02-9.64h-2.1zm9.39 8.34h1.54v6.54h2.26V62.14h-2.26v5.96h-1.54v-5.96h-2.26v14.88h2.26v-6.54zm5.09-8.34v14.88h5.26v-2.26h-3v-4.3h2.26V68.2h-2.26v-3.9h2.88v-2.16h-5.14zm6.29 0v14.88h2.04v-8.56l2.16 8.56h1.84V62.14h-2.06v7.98l-1.94-7.98h-2.04zm9.54 0v2.16h1.9v12.72h2.24V64.3h1.9v-2.16h-6.04zm9.31 8.34h1.54v6.54h2.26V62.14h-2.26v5.96h-1.54v-5.96h-2.26v14.88h2.26v-6.54zm5.09-8.34v14.88h5.26v-2.26h-3v-4.3h2.26V68.2h-2.26v-3.9h2.88v-2.16h-5.14zm12.09 0h-2.04l-1 5.56-1.04-5.56h-2.2l2.04 8.68v6.2h2.26v-6.18l1.98-8.7zm7.02 14.88h2.18l-1.94-14.88h-2.68l-1.82 14.88h2.02l.28-2.8h1.66l.3 2.8zM95.48 66.5l.6 5.5H94.9l.58-5.5zm6.39-2.34h.6c.68 0 .82.32.82.96v2.08c0 .66-.2 1.06-.82 1.06h-.6v-4.1zm0 6.22h.58c.72 0 .84.28.84.94v4.48c0 .8.12 1.06.22 1.22h2.24v-.1c-.1-.22-.22-.5-.22-1.1V70.6c0-1-.48-1.4-.98-1.62.4-.18.98-.66.98-1.9v-2.64c0-1.66-.76-2.3-2.26-2.3h-3.66v14.88h2.26v-6.64zm7.15-6.22h.6c.68 0 .82.32.82.96v2.08c0 .66-.2 1.06-.82 1.06h-.6v-4.1zm0 6.22h.58c.72 0 .84.28.84.94v4.48c0 .8.12 1.06.22 1.22h2.24v-.1c-.1-.22-.22-.5-.22-1.1V70.6c0-1-.48-1.4-.98-1.62.4-.18.98-.66.98-1.9v-2.64c0-1.66-.76-2.3-2.26-2.3h-3.66v14.88h2.26v-6.64zm7.15-8.24h-2.26v14.88h2.26V62.14zm2.73 14.88h2.74l1.88-14.88h-2.14l-1.04 10.24-1.02-10.24h-2.3l1.88 14.88zm5.47-14.88v14.88h5.26v-2.26h-3v-4.3h2.26V68.2h-2.26v-3.9h2.88v-2.16h-5.14z" fill="#DB0000"/></g></svg>