<svg width="128" height="85" viewBox="0 0 128 85" xmlns="http://www.w3.org/2000/svg"><title>Artboard 5</title><g fill="none" fill-rule="evenodd"><path d="M21.525.45c-4.45 0-6.95 2.3-6.95 7.25v1.2c0 3.7.7 6.1 3.1 9.2l3.6 4.6c2.05 2.65 2.3 3.6 2.3 6.25v.85c0 2.3-.5 3.2-1.85 3.2-1.3 0-1.85-.9-1.85-2.6v-6.5h-5.6v7.45c0 4.6 2.4 7.05 6.9 7.05h1.1c4.95 0 7.3-3.25 7.3-8.7v-1.2c0-4.2-.8-6.1-3.35-9.4l-3.6-4.65c-1.9-2.45-2.3-3.6-2.3-5.7v-.7c0-1.75.3-2.6 1.65-2.6 1.35 0 1.6.95 1.6 2.2V13h5.45V6.9c0-4.4-1.8-6.45-6.45-6.45h-1.05zm15.9.35h-5.65V38h5.65V.8zm2.7 37.2h9.3c4.25 0 6-2.85 6-6.8v-8.05c0-3.7-1.75-4.95-3.25-5.45 1.45-.55 2.8-2.05 2.8-5.15v-5.7c0-3.6-1.25-6.05-5.95-6.05h-8.9V38zm7.35-16.95c1.8 0 2.2.85 2.2 2.4v6.8c0 1.65-.4 2.5-2.2 2.5h-1.7v-11.7h1.7zm0-15.2c1.55 0 1.95.85 1.95 2.35v4.7c0 1.55-.45 2.6-1.95 2.6h-1.7V5.85h1.7zM57.775.8V38h12.55v-5.75h-6.9V.8h-5.65zm20.25 0h-5.65V38h5.65V.8zm2.7 0V38h5.1V16.6l5.4 21.4h4.6V.8h-5.15v19.95L85.825.8h-5.1zm23.4 37.7c2.85 0 4.75-2.9 5.15-4.15.45 1.6.9 3.45.95 3.65h3.2V15.4h-7.9v5.7h2.55v9.3c0 1.4-.65 2.4-2.1 2.4-1.15 0-1.85-.9-1.85-2.65V8.4c0-1.65.55-2.55 1.75-2.55 1.4 0 1.8.9 1.8 2.55v4.2h5.5V8.8c0-4.4-.7-8.35-6.75-8.35h-1.1c-5.35 0-6.95 3.85-6.95 8V31.7c0 3.85 2.1 6.8 5.4 6.8h.35z" fill="#000"/><path d="M12.94 61.98c0 .6-.2 1-.74 1-.5 0-.72-.36-.72-1.02v-8.84c0-.66.14-.98.7-.98.56 0 .76.34.76.98v2.62h2.22v-2.66c0-1.46-.28-3.1-2.76-3.1h-.52c-2.04 0-2.7 1.46-2.7 2.98v9.08c0 1.5.5 3.14 2.78 3.14h.5c2.18 0 2.7-1.62 2.7-3.22v-3.44h-2.22v3.46zM20.06 65h2.18L20.3 50.12h-2.68L15.8 65h2.02l.28-2.8h1.66l.3 2.8zm-1.14-10.52l.6 5.5h-1.18l.58-5.5zM23 50.12V65h2.04v-8.56L27.2 65h1.84V50.12h-2.06v7.98l-1.94-7.98H23zm8.66 3.94c.18-.42.44-1.28.44-2.3v-1.64h-1.98v2.24h.8c-.04.62-.24 1.34-.36 1.7h1.1zM33 50.12v2.16h1.9V65h2.24V52.28h1.9v-2.16H33zm9.44 0V65h5.02v-2.3H44.7V50.12h-2.26zm8.26 0h-2.26V65h2.26V50.12zM53.38 65h2.74L58 50.12h-2.14l-1.04 10.24-1.02-10.24h-2.3L53.38 65zm5.42-14.88V65h5.26v-2.26h-3v-4.3h2.26v-2.26h-2.26v-3.9h2.88v-2.16H58.8zm12.54 0l-1 9.62-1.02-9.62h-2.28L68.9 65h2.5l.96-8.66.94 8.66h2.42l1.9-14.88H75.5l-1.04 9.64-1.02-9.64h-2.1zm9.34 0h-2.26V65h2.26V50.12zm.96 0v2.16h1.9V65h2.24V52.28h1.9v-2.16h-6.04zm9.26 8.34h1.54V65h2.26V50.12h-2.26v5.96H90.9v-5.96h-2.26V65h2.26v-6.54zm8.5-6.64c.04-.62.24-1.34.36-1.7h-1.1c-.18.42-.44 1.28-.44 2.3v1.64h1.98v-2.24h-.8zm1.88-1.7V65h5.26v-2.26h-3v-4.3h2.26v-2.26h-2.26v-3.9h2.88v-2.16h-5.14zM107.52 65h2.02v-9.62l1.38 9.62h.9l1.36-9.62V65h2.12V50.12h-2.7l-1.1 7.86-1.08-7.86h-2.9V65zm10.44 1.8c.2-.42.54-1.24.54-2.48v-1.88h-2.1V65h.86c-.04.66-.3 1.46-.42 1.8h1.12zM3.85 80.98c0 .6-.2 1-.74 1-.5 0-.72-.36-.72-1.02v-8.84c0-.66.14-.98.7-.98.56 0 .76.34.76.98v2.62h2.22v-2.66c0-1.46-.28-3.1-2.76-3.1h-.52c-2.04 0-2.7 1.46-2.7 2.98v9.08c0 1.5.5 3.14 2.78 3.14h.5c2.18 0 2.7-1.62 2.7-3.22v-3.44H3.85v3.46zM10.97 84h2.18l-1.94-14.88H8.53L6.71 84h2.02l.28-2.8h1.66l.3 2.8zM9.83 73.48l.6 5.5H9.25l.58-5.5zm4.08-4.36V84h2.04v-8.56L18.11 84h1.84V69.12h-2.06v7.98l-1.94-7.98h-2.04zm8.66 3.94c.18-.42.44-1.28.44-2.3v-1.64h-1.98v2.24h.8c-.04.62-.24 1.34-.36 1.7h1.1zm1.34-3.94v2.16h1.9V84h2.24V71.28h1.9v-2.16h-6.04zm9.44 0V84h5.02v-2.3h-2.76V69.12h-2.26zm8.26 0h-2.26V84h2.26V69.12zM44.29 84h2.74l1.88-14.88h-2.14l-1.04 10.24-1.02-10.24h-2.3L44.29 84zm5.42-14.88V84h5.26v-2.26h-3v-4.3h2.26v-2.26h-2.26v-3.9h2.88v-2.16h-5.14zm12.54 0l-1 9.62-1.02-9.62h-2.28L59.81 84h2.5l.96-8.66.94 8.66h2.42l1.9-14.88h-2.12l-1.04 9.64-1.02-9.64h-2.1zm9.34 0h-2.26V84h2.26V69.12zm.96 0v2.16h1.9V84h2.24V71.28h1.9v-2.16h-6.04zm9.26 8.34h1.54V84h2.26V69.12h-2.26v5.96h-1.54v-5.96h-2.26V84h2.26v-6.54zm11.16-5.08c0-2.04-.7-3.4-2.9-3.4h-.38c-2.12 0-2.9 1.36-2.9 3.42v8.28c0 2.08.76 3.5 2.92 3.5h.38c2.18 0 2.88-1.42 2.88-3.5v-8.3zm-2.3 8.46c0 .64-.16 1.14-.76 1.14-.64 0-.82-.5-.82-1.14v-8.56c0-.76.22-1.14.8-1.14.52 0 .78.36.78 1.14v8.56zm3.44-.08c0 2.14.82 3.42 2.82 3.42h.4c2 0 2.84-1.32 2.84-3.42V69.12h-2.3V80.9c0 .66-.2 1.06-.74 1.06-.5 0-.72-.42-.72-1.06V69.12h-2.3v11.64zm6.98-11.64v2.16h1.9V84h2.24V71.28h1.9v-2.16h-6.04zm10.46 1.7c.04-.62.24-1.34.36-1.7h-1.1c-.18.42-.44 1.28-.44 2.3v1.64h1.98v-2.24h-.8zm1.88-1.7V84h5.26v-2.26h-3v-4.3h2.26v-2.26h-2.26v-3.9h2.88v-2.16h-5.14zM119.67 84h2.02v-9.62l1.38 9.62h.9l1.36-9.62V84h2.12V69.12h-2.7l-1.1 7.86-1.08-7.86h-2.9V84z" fill="#DB0000"/></g></svg>