<svg width="114" height="85" viewBox="0 0 114 85" xmlns="http://www.w3.org/2000/svg"><title>Artboard 4</title><g fill="none" fill-rule="evenodd"><path d="M13.2 38h9.3c4.25 0 6-2.85 6-6.8v-8.05c0-3.7-1.75-4.95-3.25-5.45 1.45-.55 2.8-2.05 2.8-5.15v-5.7C28.05 3.25 26.8.8 22.1.8h-8.9V38zm7.35-16.95c1.8 0 2.2.85 2.2 2.4v6.8c0 1.65-.4 2.5-2.2 2.5h-1.7v-11.7h1.7zm0-15.2c1.55 0 1.95.85 1.95 2.35v4.7c0 1.55-.45 2.6-1.95 2.6h-1.7V5.85h1.7zM31.05.8V38H44.2v-5.65h-7.5V21.6h5.65v-5.65H36.7V6.2h7.2V.8H31.05zm22.2-.35c-4.45 0-6.95 2.3-6.95 7.25v1.2c0 3.7.7 6.1 3.1 9.2l3.6 4.6c2.05 2.65 2.3 3.6 2.3 6.25v.85c0 2.3-.5 3.2-1.85 3.2-1.3 0-1.85-.9-1.85-2.6v-6.5H46v7.45c0 4.6 2.4 7.05 6.9 7.05H54c4.95 0 7.3-3.25 7.3-8.7v-1.2c0-4.2-.8-6.1-3.35-9.4l-3.6-4.65c-1.9-2.45-2.3-3.6-2.3-5.7v-.7c0-1.75.3-2.6 1.65-2.6 1.35 0 1.6.95 1.6 2.2V13h5.45V6.9c0-4.4-1.8-6.45-6.45-6.45h-1.05zm9.4.35v5.4h4.75V38H73V6.2h4.75V.8h-15.1zM85.6.8h-5.65V38h5.65V.8zm2.9 0V38h13.15v-5.65h-7.5V21.6h5.65v-5.65h-5.65V6.2h7.2V.8H88.5z" fill="#000"/><path d="M20.98 52.14h.6c.68 0 .82.32.82.96v2.08c0 .66-.2 1.06-.82 1.06h-.6v-4.1zm0 6.22h.58c.72 0 .84.28.84.94v4.48c0 .8.12 1.06.22 1.22h2.24v-.1c-.1-.22-.22-.5-.22-1.1v-5.22c0-1-.48-1.4-.98-1.62.4-.18.98-.66.98-1.9v-2.64c0-1.66-.76-2.3-2.26-2.3h-3.66V65h2.26v-6.64zM29.66 65h2.18L29.9 50.12h-2.68L25.4 65h2.02l.28-2.8h1.66l.3 2.8zm-1.14-10.52l.6 5.5h-1.18l.58-5.5zm6.34-4.36H32.6V65h2.26V50.12zm1.24 0V65h2.04v-8.56L40.3 65h1.84V50.12h-2.06v7.98l-1.94-7.98H36.1zm15.84 3.26c0-2.04-.7-3.4-2.9-3.4h-.38c-2.12 0-2.9 1.36-2.9 3.42v8.28c0 2.08.76 3.5 2.92 3.5h.38c2.18 0 2.88-1.42 2.88-3.5v-8.3zm-2.3 8.46c0 .64-.16 1.14-.76 1.14-.64 0-.82-.5-.82-1.14v-8.56c0-.76.22-1.14.8-1.14.52 0 .78.36.78 1.14v8.56zm5.74-9.7h.6c.68 0 .82.32.82.96v2.08c0 .66-.2 1.06-.82 1.06h-.6v-4.1zm0 6.22h.58c.72 0 .84.28.84.94v4.48c0 .8.12 1.06.22 1.22h2.24v-.1c-.1-.22-.22-.5-.22-1.1v-5.22c0-1-.48-1.4-.98-1.62.4-.18.98-.66.98-1.9v-2.64c0-1.66-.76-2.3-2.26-2.3h-3.66V65h2.26v-6.64zm10-8.38c-1.78 0-2.78.92-2.78 2.9v.48c0 1.48.28 2.44 1.24 3.68l1.44 1.84c.82 1.06.92 1.44.92 2.5v.34c0 .92-.2 1.28-.74 1.28-.52 0-.74-.36-.74-1.04v-2.6h-2.24v2.98c0 1.84.96 2.82 2.76 2.82h.44c1.98 0 2.92-1.3 2.92-3.48v-.48c0-1.68-.32-2.44-1.34-3.76l-1.44-1.86c-.76-.98-.92-1.44-.92-2.28v-.28c0-.7.12-1.04.66-1.04s.64.38.64.88V55h2.18v-2.44c0-1.76-.72-2.58-2.58-2.58h-.42zm6.52 8.48h1.54V65h2.26V50.12h-2.26v5.96H71.9v-5.96h-2.26V65h2.26v-6.54zm7.3-8.34h-2.26V65h2.26V50.12zm1.24 0V65h2.04v-8.56L84.64 65h1.84V50.12h-2.06v7.98l-1.94-7.98h-2.04zm7.28 0V65h5.26v-2.26h-3v-4.3h2.26v-2.26h-2.26v-3.9h2.88v-2.16h-5.14zm7.76 16.68c.2-.42.54-1.24.54-2.48v-1.88h-2.1V65h.86c-.04.66-.3 1.46-.42 1.8h1.12zM4.82 84H7L5.06 69.12H2.38L.56 84h2.02l.28-2.8h1.66l.3 2.8zM3.68 73.48l.6 5.5H3.1l.58-5.5zm4.08-4.36V84h5.02v-2.3h-2.76V69.12H7.76zm8.86 0l-1 9.62-1.02-9.62h-2.28L14.18 84h2.5l.96-8.66.94 8.66H21l1.9-14.88h-2.12l-1.04 9.64-1.02-9.64h-2.1zM26.9 84h2.18l-1.94-14.88h-2.68L22.64 84h2.02l.28-2.8h1.66l.3 2.8zm-1.14-10.52l.6 5.5h-1.18l.58-5.5zm9.02-4.36h-2.04l-1 5.56-1.04-5.56h-2.2l2.04 8.68V84h2.26v-6.18l1.98-8.7zm3.3-.14c-1.78 0-2.78.92-2.78 2.9v.48c0 1.48.28 2.44 1.24 3.68l1.44 1.84c.82 1.06.92 1.44.92 2.5v.34c0 .92-.2 1.28-.74 1.28-.52 0-.74-.36-.74-1.04v-2.6h-2.24v2.98c0 1.84.96 2.82 2.76 2.82h.44c1.98 0 2.92-1.3 2.92-3.48v-.48c0-1.68-.32-2.44-1.34-3.76l-1.44-1.86c-.76-.98-.92-1.44-.92-2.28v-.28c0-.7.12-1.04.66-1.04s.64.38.64.88V74h2.18v-2.44c0-1.76-.72-2.58-2.58-2.58h-.42zM44.78 84h3.72c1.7 0 2.4-1.14 2.4-2.72v-3.22c0-1.48-.7-1.98-1.3-2.18.58-.22 1.12-.82 1.12-2.06v-2.28c0-1.44-.5-2.42-2.38-2.42h-3.56V84zm2.94-6.78c.72 0 .88.34.88.96v2.72c0 .66-.16 1-.88 1h-.68v-4.68h.68zm0-6.08c.62 0 .78.34.78.94v1.88c0 .62-.18 1.04-.78 1.04h-.68v-3.86h.68zm9.76-2.02h-2.04l-1 5.56-1.04-5.56h-2.2l2.04 8.68V84h2.26v-6.18l1.98-8.7zm8.88 0h-2.04l-1 5.56-1.04-5.56h-2.2l2.04 8.68V84h2.26v-6.18l1.98-8.7zm6.58 3.26c0-2.04-.7-3.4-2.9-3.4h-.38c-2.12 0-2.9 1.36-2.9 3.42v8.28c0 2.08.76 3.5 2.92 3.5h.38c2.18 0 2.88-1.42 2.88-3.5v-8.3zm-2.3 8.46c0 .64-.16 1.14-.76 1.14-.64 0-.82-.5-.82-1.14v-8.56c0-.76.22-1.14.8-1.14.52 0 .78.36.78 1.14v8.56zm3.44-.08c0 2.14.82 3.42 2.82 3.42h.4c2 0 2.84-1.32 2.84-3.42V69.12h-2.3V80.9c0 .66-.2 1.06-.74 1.06-.5 0-.72-.42-.72-1.06V69.12h-2.3v11.64zm9.52-9.62h.6c.68 0 .82.32.82.96v2.08c0 .66-.2 1.06-.82 1.06h-.6v-4.1zm0 6.22h.58c.72 0 .84.28.84.94v4.48c0 .8.12 1.06.22 1.22h2.24v-.1c-.1-.22-.22-.5-.22-1.1v-5.22c0-1-.48-1.4-.98-1.62.4-.18.98-.66.98-1.9v-2.64c0-1.66-.76-2.3-2.26-2.3h-3.66V84h2.26v-6.64zm10-8.38c-1.78 0-2.78.92-2.78 2.9v.48c0 1.48.28 2.44 1.24 3.68l1.44 1.84c.82 1.06.92 1.44.92 2.5v.34c0 .92-.2 1.28-.74 1.28-.52 0-.74-.36-.74-1.04v-2.6H90.7v2.98c0 1.84.96 2.82 2.76 2.82h.44c1.98 0 2.92-1.3 2.92-3.48v-.48c0-1.68-.32-2.44-1.34-3.76l-1.44-1.86c-.76-.98-.92-1.44-.92-2.28v-.28c0-.7.12-1.04.66-1.04s.64.38.64.88V74h2.18v-2.44c0-1.76-.72-2.58-2.58-2.58h-.42zm6.52.14h-2.26V84h2.26V69.12zM101.36 84h3.46c1.86 0 2.54-1.14 2.54-2.96v-9.06c0-1.76-.6-2.86-2.54-2.86h-3.46V84zm2.26-12.86h.64c.56 0 .78.3.78 1.16v8.38c0 .8-.2 1.16-.88 1.16h-.54v-10.7zm4.94-2.02V84h5.26v-2.26h-3v-4.3h2.26v-2.26h-2.26v-3.9h2.88v-2.16h-5.14z" fill="#DB0000"/></g></svg>