<svg width="176" height="18" viewBox="0 0 176 18" xmlns="http://www.w3.org/2000/svg"><title>Artboard 3</title><path d="M4.169 13.805c0 .665-.222 1.109-.82 1.109-.555 0-.799-.4-.799-1.131V3.98c0-.731.155-1.086.776-1.086s.843.377.843 1.086v2.905H6.63V3.937C6.63 2.318 6.32.5 3.57.5h-.576C.732.5 0 2.119 0 3.804v10.067c0 1.663.554 3.482 3.082 3.482h.555c2.417 0 2.993-1.796 2.993-3.57V9.969H4.17v3.836zM7.429.655v16.498h5.565v-2.55h-3.06V.655H7.428zm8.714 0h-2.506v16.498h2.506V.655zm5.034 13.15c0 .665-.222 1.109-.82 1.109-.555 0-.799-.4-.799-1.131V3.98c0-.731.155-1.086.776-1.086s.843.377.843 1.086v2.905h2.461V3.937c0-1.619-.31-3.437-3.06-3.437h-.576c-2.262 0-2.994 1.619-2.994 3.304v10.067c0 1.663.554 3.482 3.082 3.482h.555c2.417 0 2.993-1.796 2.993-3.57V9.969h-2.461v3.836zm5.765-3.814l2.085 7.162h2.572l-2.572-8.825L31.355.655h-2.44l-1.973 6.608V.655h-2.506v16.498h2.506V9.991zm6.94-9.336V3.05h2.107v14.103h2.484V3.05h2.107V.655h-6.697zM47.876 4.27c0-2.262-.776-3.77-3.215-3.77h-.422c-2.35 0-3.215 1.508-3.215 3.792v9.18c0 2.306.843 3.88 3.238 3.88h.42c2.418 0 3.194-1.574 3.194-3.88V4.27zm-2.55 9.38c0 .71-.177 1.264-.843 1.264-.71 0-.909-.555-.909-1.264V4.159c0-.843.244-1.264.887-1.264.577 0 .865.399.865 1.264v9.49zm5.677 3.503h2.505V9.902h2.528V7.396h-2.528V3.05h3.194V.655H51v16.498zM59.849.655h-2.505v16.498h2.505V.655zm.932 0v16.498h2.261v-9.49l2.395 9.49h2.04V.655h-2.284v8.848L63.043.655H60.78zm7.628 16.498h3.836c2.062 0 2.816-1.264 2.816-3.282V3.826c0-1.951-.665-3.17-2.816-3.17h-3.836v16.497zm2.505-14.258h.71c.62 0 .865.332.865 1.286v9.291c0 .887-.222 1.286-.976 1.286h-.599V2.895zM77.9.655V3.05h2.107v14.103h2.484V3.05h2.106V.655H77.9zm9.824 9.247h1.707v7.251h2.506V.655H89.43v6.608h-1.707V.655h-2.506v16.498h2.506V9.902zM92.867.655v16.498H98.7v-2.506h-3.326V9.88h2.506V7.374h-2.506V3.05h3.193V.655h-5.699zm12.706 9.646c1.708 0 2.573-1.064 2.573-3.016V3.383c0-1.974-.799-2.728-2.573-2.728h-3.969v16.498h2.506v-6.852h1.463zm-1.463-7.406h.643c.732 0 .865.488.865 1.13v2.706c0 .665-.111 1.197-.865 1.197h-.643V2.895zm4.79-2.24v16.498h5.832v-2.506h-3.327V9.88h2.506V7.374h-2.506V3.05h3.193V.655H108.9zm8.98 2.24h.666c.753 0 .909.355.909 1.064v2.306c0 .732-.222 1.176-.91 1.176h-.665V2.895zm0 6.896h.643c.799 0 .932.31.932 1.042V15.8c0 .887.133 1.176.244 1.353h2.483v-.11c-.11-.245-.244-.555-.244-1.22v-5.788c0-1.109-.532-1.552-1.086-1.796.443-.2 1.086-.732 1.086-2.107V3.205c0-1.84-.842-2.55-2.505-2.55h-4.058v16.498h2.505V9.791zm4.923 7.362h2.506V9.902h2.528V7.396h-2.528V3.05h3.193V.655h-5.699v16.498zM129.145.655v16.498h5.832v-2.506h-3.326V9.88h2.505V7.374h-2.505V3.05h3.193V.655h-5.699zm10.466 13.15c0 .665-.221 1.109-.82 1.109-.554 0-.798-.4-.798-1.131V3.98c0-.731.155-1.086.776-1.086.62 0 .842.377.842 1.086v2.905h2.462V3.937c0-1.619-.31-3.437-3.06-3.437h-.577c-2.262 0-2.993 1.619-2.993 3.304v10.067c0 1.663.554 3.482 3.082 3.482h.554c2.417 0 2.994-1.796 2.994-3.57V9.969h-2.462v3.836zm2.905-13.15V3.05h2.107v14.103h2.483V3.05h2.107V.655h-6.697zm12.063 16.72c1.264 0 2.107-1.286 2.284-1.84.2.709.4 1.53.422 1.618h1.419V7.13H155.2v2.528h1.131v4.125c0 .62-.288 1.064-.931 1.064-.51 0-.82-.4-.82-1.175V4.026c0-.732.243-1.131.775-1.131.621 0 .799.399.799 1.13v1.863h2.439V4.203c0-1.951-.31-3.703-2.994-3.703h-.487c-2.373 0-3.083 1.707-3.083 3.548v10.311c0 1.708.932 3.016 2.395 3.016h.155zm7.495-16.72h-2.505v16.498h2.505V.655zm.932 16.498h2.505V9.902h2.528V7.396h-2.528V3.05h3.194V.655h-5.7v16.498zM169.148.655V3.05h2.107v14.103h2.483V3.05h2.107V.655h-6.697z" fill="#FFF" fill-rule="evenodd"/></svg>