<svg width="120px" height="80px" viewBox="0 0 120 80" version="1.1" xmlns="http://www.w3.org/2000/svg" xmlns:xlink="http://www.w3.org/1999/xlink">
  <defs>
    <rect id="button" x="0" y="0" width="120" height="40" rx="5"></rect>
    <path id="launch-tool" fill="#444444" d="M20.156,25 L20.156,14.536 L22.012,14.536 L22.012,23.432 L26.364,23.432 L26.364,25 L20.156,25 Z M29.932,25.192 C29.2386632,25.192 28.6786688,24.9813354 28.252,24.56 C27.8253312,24.1386646 27.612,23.5813368 27.612,22.888 C27.612,22.4719979 27.6999991,22.101335 27.876,21.776 C28.0520009,21.450665 28.3293314,21.1706678 28.708,20.936 C29.0866686,20.7013322 29.5666638,20.5040008 30.148,20.344 C30.7293362,20.1839992 31.4253293,20.0613338 32.236,19.976 C32.2253333,19.7733323 32.1960002,19.5786676 32.148,19.392 C32.0999998,19.2053324 32.0200006,19.0400007 31.908,18.896 C31.7959994,18.7519993 31.6493342,18.6400004 31.468,18.56 C31.2866658,18.4799996 31.062668,18.44 30.796,18.44 C30.4119981,18.44 30.0360018,18.5146659 29.668,18.664 C29.2999982,18.8133341 28.9400018,18.9946656 28.588,19.208 L27.916,17.976 C28.3533355,17.6986653 28.8439973,17.4586677 29.388,17.256 C29.9320027,17.0533323 30.5186635,16.952 31.148,16.952 C32.1293382,16.952 32.8626642,17.2426638 33.348,17.824 C33.8333358,18.4053362 34.076,19.2453278 34.076,20.344 L34.076,25 L32.556,25 L32.428,24.136 L32.364,24.136 C32.0119982,24.4346682 31.636002,24.6853323 31.236,24.888 C30.835998,25.0906677 30.4013357,25.192 29.932,25.192 Z M30.524,23.752 C30.8440016,23.752 31.1346654,23.6773341 31.396,23.528 C31.6573346,23.3786659 31.9373318,23.1653347 32.236,22.888 L32.236,21.128 C31.702664,21.1920003 31.2546685,21.2773328 30.892,21.384 C30.5293315,21.4906672 30.2360011,21.610666 30.012,21.744 C29.7879989,21.877334 29.6280005,22.0293325 29.532,22.2 C29.4359995,22.3706675 29.388,22.551999 29.388,22.744 C29.388,23.0960018 29.4946656,23.3519992 29.708,23.512 C29.9213344,23.6720008 30.1933317,23.752 30.524,23.752 Z M38.62,25.192 C37.7773291,25.192 37.1640019,24.9226694 36.78,24.384 C36.3959981,23.8453306 36.204,23.0746717 36.204,22.072 L36.204,17.144 L38.044,17.144 L38.044,21.832 C38.044,22.4826699 38.139999,22.941332 38.332,23.208 C38.524001,23.474668 38.8333312,23.608 39.26,23.608 C39.601335,23.608 39.9026654,23.5226675 40.164,23.352 C40.4253346,23.1813325 40.7053318,22.9040019 41.004,22.52 L41.004,17.144 L42.844,17.144 L42.844,25 L41.34,25 L41.196,23.848 L41.148,23.848 C40.806665,24.2533354 40.436002,24.5786654 40.036,24.824 C39.635998,25.0693346 39.1640027,25.192 38.62,25.192 Z M45.18,25 L45.18,17.144 L46.7,17.144 L46.828,18.2 L46.892,18.2 C47.2440018,17.858665 47.6253313,17.5653346 48.036,17.32 C48.4466687,17.0746654 48.9239973,16.952 49.468,16.952 C50.3106709,16.952 50.9239981,17.2213306 51.308,17.76 C51.6920019,18.2986694 51.884,19.0693283 51.884,20.072 L51.884,25 L50.044,25 L50.044,20.312 C50.044,19.6613301 49.948001,19.202668 49.756,18.936 C49.563999,18.669332 49.2493355,18.536 48.812,18.536 C48.470665,18.536 48.1693346,18.6186658 47.908,18.784 C47.6466654,18.9493342 47.3506683,19.1919984 47.02,19.512 L47.02,25 L45.18,25 Z M57.42,25.192 C56.886664,25.192 56.3880023,25.1013342 55.924,24.92 C55.4599977,24.7386658 55.057335,24.4720018 54.716,24.12 C54.374665,23.7679982 54.108001,23.3360026 53.916,22.824 C53.723999,22.3119974 53.628,21.7306699 53.628,21.08 C53.628,20.4293301 53.7346656,19.8480026 53.948,19.336 C54.1613344,18.8239974 54.4493315,18.3920018 54.812,18.04 C55.1746685,17.6879982 55.593331,17.4186676 56.068,17.232 C56.542669,17.0453324 57.0413307,16.952 57.564,16.952 C58.0760026,16.952 58.5159982,17.0373325 58.884,17.208 C59.2520018,17.3786675 59.5799986,17.5866654 59.868,17.832 L58.972,19.032 C58.7586656,18.8506658 58.548001,18.7093338 58.34,18.608 C58.131999,18.5066662 57.9053346,18.456 57.66,18.456 C57.0199968,18.456 56.5026686,18.693331 56.108,19.168 C55.7133314,19.642669 55.516,20.279996 55.516,21.08 C55.516,21.8693373 55.7106647,22.501331 56.1,22.976 C56.4893353,23.450669 56.9933302,23.688 57.612,23.688 C57.9213349,23.688 58.2119986,23.621334 58.484,23.488 C58.7560014,23.354666 59.0039989,23.1973342 59.228,23.016 L59.98,24.232 C59.6066648,24.5520016 59.1986689,24.7919992 58.756,24.952 C58.3133311,25.1120008 57.8680022,25.192 57.42,25.192 Z M61.532,25 L61.532,13.704 L63.372,13.704 L63.372,16.616 L63.308,18.136 C63.6386683,17.8266651 64.003998,17.5520012 64.404,17.312 C64.804002,17.0719988 65.2759973,16.952 65.82,16.952 C66.6626709,16.952 67.2759981,17.2213306 67.66,17.76 C68.0440019,18.2986694 68.236,19.0693283 68.236,20.072 L68.236,25 L66.396,25 L66.396,20.312 C66.396,19.6613301 66.300001,19.202668 66.108,18.936 C65.915999,18.669332 65.6013355,18.536 65.164,18.536 C64.822665,18.536 64.5213346,18.6186658 64.26,18.784 C63.9986654,18.9493342 63.7026683,19.1919984 63.372,19.512 L63.372,25 L61.532,25 Z M76.428,25.192 C75.969331,25.192 75.5826682,25.1226674 75.268,24.984 C74.9533318,24.8453326 74.6973343,24.6506679 74.5,24.4 C74.3026657,24.1493321 74.1586671,23.8506684 74.068,23.504 C73.9773329,23.1573316 73.932,22.7706688 73.932,22.344 L73.932,18.6 L72.812,18.6 L72.812,17.224 L74.028,17.144 L74.252,15 L75.788,15 L75.788,17.144 L77.788,17.144 L77.788,18.6 L75.788,18.6 L75.788,22.344 C75.788,23.2613379 76.1559963,23.72 76.892,23.72 C77.0306674,23.72 77.1719993,23.7040002 77.316,23.672 C77.4600007,23.6399998 77.5906661,23.5973336 77.708,23.544 L78.028,24.904 C77.8146656,24.978667 77.5720014,25.045333 77.3,25.104 C77.0279986,25.162667 76.7373349,25.192 76.428,25.192 Z M82.652,25.192 C82.1613309,25.192 81.6920022,25.1013342 81.244,24.92 C80.7959978,24.7386658 80.3986684,24.4720018 80.052,24.12 C79.7053316,23.7679982 79.4306677,23.3360026 79.228,22.824 C79.0253323,22.3119974 78.924,21.7306699 78.924,21.08 C78.924,20.4293301 79.0253323,19.8480026 79.228,19.336 C79.4306677,18.8239974 79.7053316,18.3920018 80.052,18.04 C80.3986684,17.6879982 80.7959978,17.4186676 81.244,17.232 C81.6920022,17.0453324 82.1613309,16.952 82.652,16.952 C83.1426691,16.952 83.6146644,17.0453324 84.068,17.232 C84.5213356,17.4186676 84.918665,17.6879982 85.26,18.04 C85.601335,18.3920018 85.875999,18.8239974 86.084,19.336 C86.292001,19.8480026 86.396,20.4293301 86.396,21.08 C86.396,21.7306699 86.292001,22.3119974 86.084,22.824 C85.875999,23.3360026 85.601335,23.7679982 85.26,24.12 C84.918665,24.4720018 84.5213356,24.7386658 84.068,24.92 C83.6146644,25.1013342 83.1426691,25.192 82.652,25.192 Z M82.652,23.688 C83.2280029,23.688 83.6813317,23.450669 84.012,22.976 C84.3426683,22.501331 84.508,21.8693373 84.508,21.08 C84.508,20.279996 84.3426683,19.642669 84.012,19.168 C83.6813317,18.693331 83.2280029,18.456 82.652,18.456 C82.0759971,18.456 81.625335,18.693331 81.3,19.168 C80.974665,19.642669 80.812,20.279996 80.812,21.08 C80.812,21.8693373 80.974665,22.501331 81.3,22.976 C81.625335,23.450669 82.0759971,23.688 82.652,23.688 Z M91.436,25.192 C90.9453309,25.192 90.4760022,25.1013342 90.028,24.92 C89.5799978,24.7386658 89.1826684,24.4720018 88.836,24.12 C88.4893316,23.7679982 88.2146677,23.3360026 88.012,22.824 C87.8093323,22.3119974 87.708,21.7306699 87.708,21.08 C87.708,20.4293301 87.8093323,19.8480026 88.012,19.336 C88.2146677,18.8239974 88.4893316,18.3920018 88.836,18.04 C89.1826684,17.6879982 89.5799978,17.4186676 90.028,17.232 C90.4760022,17.0453324 90.9453309,16.952 91.436,16.952 C91.9266691,16.952 92.3986644,17.0453324 92.852,17.232 C93.3053356,17.4186676 93.702665,17.6879982 94.044,18.04 C94.385335,18.3920018 94.659999,18.8239974 94.868,19.336 C95.076001,19.8480026 95.18,20.4293301 95.18,21.08 C95.18,21.7306699 95.076001,22.3119974 94.868,22.824 C94.659999,23.3360026 94.385335,23.7679982 94.044,24.12 C93.702665,24.4720018 93.3053356,24.7386658 92.852,24.92 C92.3986644,25.1013342 91.9266691,25.192 91.436,25.192 Z M91.436,23.688 C92.0120029,23.688 92.4653317,23.450669 92.796,22.976 C93.1266683,22.501331 93.292,21.8693373 93.292,21.08 C93.292,20.279996 93.1266683,19.642669 92.796,19.168 C92.4653317,18.693331 92.0120029,18.456 91.436,18.456 C90.8599971,18.456 90.409335,18.693331 90.084,19.168 C89.758665,19.642669 89.596,20.279996 89.596,21.08 C89.596,21.8693373 89.758665,22.501331 90.084,22.976 C90.409335,23.450669 90.8599971,23.688 91.436,23.688 Z M98.796,25.192 C98.1346634,25.192 97.670668,24.9946686 97.404,24.6 C97.137332,24.2053314 97.004,23.6666701 97.004,22.984 L97.004,13.704 L98.844,13.704 L98.844,23.08 C98.844,23.3040011 98.8866662,23.4613329 98.972,23.552 C99.0573338,23.6426671 99.1479995,23.688 99.244,23.688 L99.364,23.688 C99.4013335,23.688 99.457333,23.6773334 99.532,23.656 L99.772,25.032 C99.5266654,25.1386672 99.2013354,25.192 98.796,25.192 Z"></path>
  </defs>
    <g id="cta">
      <use x="0" y="0" fill="#FFD900" xlink:href="#button" />
      <use x="0" y="0" xlink:href="#launch-tool" />
    </g>
    <g id="cta-over">
      <use x="0" y="40" fill="#F5C804" xlink:href="#button" />
      <use x="0" y="40" xlink:href="#launch-tool" />
    </g>
</svg>
