<svg width="70" height="81" viewBox="0 0 70 81" xmlns="http://www.w3.org/2000/svg" xmlns:xlink="http://www.w3.org/1999/xlink"><title>logo</title><defs><path d="M32.258 3.148c0-1.52 1.167-2.752 3.07-2.752 1.904 0 3.07 1.232 3.07 2.752 0 1.504-1.14 2.726-3.007 2.754h-.126c-1.865-.028-3.007-1.25-3.007-2.754zm1.436 0c0 1.372.581 1.942 1.634 1.942 1.052 0 1.636-.57 1.636-1.942 0-1.371-.584-1.94-1.636-1.94-1.053 0-1.634.569-1.634 1.94zM45.996.841c-.379.252-.569.59-.569 1.006 0 .342.151.663.454.96.182.178.482.392.9.64.456.277.706.43.75.46.314.236.473.46.473.673 0 .18-.099.315-.296.402a1.334 1.334 0 0 1-.531.096 3.903 3.903 0 0 1-1.81-.42v.911c.54.168 1.103.251 1.684.251.51 0 .946-.064 1.312-.193.715-.25 1.083-.68 1.098-1.287v-.069c-.016-.497-.42-.989-1.214-1.475a56.824 56.824 0 0 1-.813-.497c-.407-.277-.61-.484-.61-.62 0-.107.046-.198.143-.274.18-.15.456-.224.825-.224.244 0 .455.03.631.09.332.12.534.287.606.503h.165V.659a4.717 4.717 0 0 0-1.482-.22c-.738 0-1.31.134-1.716.402zm-23.374 0c-.38.252-.57.59-.57 1.006 0 .342.152.663.454.96.182.178.482.392.9.64.457.277.707.43.75.46.315.236.474.46.474.673 0 .18-.1.315-.297.402a1.342 1.342 0 0 1-.53.096c-.66 0-1.263-.139-1.811-.42v.911a5.651 5.651 0 0 0 1.684.251c.51 0 .947-.064 1.31-.193.735-.256 1.1-.698 1.1-1.326 0-.506-.405-1.009-1.214-1.505a41.207 41.207 0 0 1-.812-.497c-.407-.277-.61-.484-.61-.62 0-.107.047-.198.14-.274.183-.15.459-.224.828-.224.244 0 .455.03.631.09.33.12.532.287.605.503h.164V.659a4.7 4.7 0 0 0-1.48-.22c-.74 0-1.31.134-1.716.402zM39.009.532h2.94c1.493 0 2.241.507 2.241 1.52 0 .737-.517 1.185-1.55 1.342.1.072.22.188.359.351.034.037.094.106.18.206l.21.26 1.24 1.514h-1.634L41.98 4.47c-.231-.285-.39-.475-.478-.566a2.383 2.383 0 0 0-.586-.452v2.272H39.54V1.118c0-.108-.064-.204-.19-.284a.762.762 0 0 0-.342-.13V.532zm1.907 2.49c.116.01.273.016.47.016.95 0 1.426-.328 1.426-.988 0-.427-.212-.69-.636-.786a3.497 3.497 0 0 0-.754-.068h-.506v1.827zM26.756.534v.758h1.89v4.434h1.378V1.291h1.89V.533h-5.158zm-9.983 0v.17c.13.017.244.059.347.131.123.085.183.187.183.3v4.591h3.644v-.757h-2.268V3.344h2.078v-.738H18.68V1.29h2.268V.533h-4.174zm-1.775 0L13.39 4.327 11.855.533H9.92v.17c.307.062.504.2.593.416l1.85 4.606h1.48L16.031.533h-1.033zm-6.97 0v3.833L5.085.533H3.07v.17a.796.796 0 0 1 .348.134c.12.084.18.184.18.297v4.591h1.035V2.261L7.28 5.725h1.775V.533H8.027zm-7.882 0v.171c.126.016.242.06.348.133.12.085.181.183.181.296v4.592h1.377V.533H.146z" id="a"/><path d="M40.725.401h4.084l3.65 8.813h-2.557l-1.007-2.418h-4.07l-1.15 2.418h-1.941l3.673-7.755c.264-.55-.385-.72-.682-.78V.402zm2.271 1.833l-1.649 3.467h3.094l-1.445-3.467zM36.464.401h1.843L34.41 9.214h-2.644l-3.288-7.812c-.205-.487-.655-.65-1.055-.722V.4h3.465l2.718 6.462L36.464.401zm-13.903 0V.68c.201.035.931.235.931.72v7.814h2.464V.4h-3.395zm-3.18 0h1.844l-3.897 8.813H14.68l-3.286-7.812c-.206-.487-.653-.65-1.054-.722V.4h3.463l2.72 6.462L19.38.401zm-15.958 0h4.084l3.648 8.813H8.6L7.595 6.796H3.524l-1.15 2.418H.43l3.676-7.755c.262-.55-.385-.72-.684-.78V.402zm2.274 1.833L4.045 5.701h3.093L5.697 2.234z" id="c"/><path d="M1.864.043L.075 16.651a81.726 81.726 0 0 1 3.556-.272L1.865.043z" id="e"/><path d="M.062.043v.002l1.686 16.337a73.258 73.258 0 0 1 4.117-.12V.045L1.223.043H.063z" id="g"/><path d="M.356.045v19.859c3.579-1.483 8.24-2.586 13.516-3.135L15.587.045V.044L.357.045z" id="i"/></defs><g fill="none" fill-rule="evenodd"><path fill="#FFDE00" d="M0 81h70V-1H0z"/><g transform="translate(10.5 54.593)"><mask id="b" fill="#fff"><use xlink:href="#a"/></mask><path fill="#0069B4" mask="url(#b)" d="M-2.646 8.745h54.9V-2.447h-54.9z"/></g><g transform="translate(10.5 42.78)"><mask id="d" fill="#fff"><use xlink:href="#c"/></mask><path fill="#0069B4" mask="url(#d)" d="M-2.353 11.916h53.595V-2.3H-2.353z"/></g><g transform="translate(37.8 20.542)"><mask id="f" fill="#fff"><use xlink:href="#e"/></mask><path fill="#FFDE00" mask="url(#f)" d="M-2.925 19.43h9.557V-2.736h-9.557z"/></g><g transform="translate(39.2 20.542)"><mask id="h" fill="#fff"><use xlink:href="#g"/></mask><path fill="#64B445" mask="url(#h)" d="M-2.801 19.161H8.728V-2.737h-11.53z"/></g><g transform="translate(25.2 20.542)"><mask id="j" fill="#fff"><use xlink:href="#i"/></mask><path fill="#0069B4" mask="url(#j)" d="M-2.52 22.702h20.982V-2.755H-2.52z"/></g></g></svg>