<svg width="816" height="44" viewBox="0 0 816 44" xmlns="http://www.w3.org/2000/svg"><path d="M29.842 34.782h.276V5.848c0-2.53.506-3.128 5.336-3.68v-.23H23.862v.23c5.106.552 5.704 1.012 5.704 3.68v22.494h-.092L10.062 1.938h-8.28v.184c4.646.506 5.566 1.61 5.566 3.818v24.15c0 2.622-.598 3.128-5.566 3.68V34h11.822v-.23C8.498 33.218 7.9 32.758 7.9 30.09V5.066h.092l21.85 29.716zm17.144-.276c5.152 0 10.212-4.6 10.212-10.994 0-6.44-4.83-10.856-10.166-10.856-5.152 0-10.212 4.6-10.212 10.994 0 6.44 4.83 10.856 10.166 10.856zm.23-.368c-3.91 0-6.946-2.99-6.946-10.58s2.668-10.534 6.532-10.534c3.91 0 6.946 2.99 6.946 10.58s-2.668 10.534-6.532 10.534zm20.824.368c2.53 0 4.278-1.564 5.842-4.416l-.23-.138c-1.518 2.392-2.714 3.358-4.232 3.358-1.932 0-3.174-1.518-3.174-4.278V13.668h6.9v-.506h-6.9V5.388l-3.128 1.518v6.164l-4.278.184v.414h4.278v15.18c0 3.864 2.07 5.658 4.922 5.658zm27.618 0c3.864 0 6.67-2.53 8.602-5.52l-.322-.23c-1.886 2.622-4.232 4.692-7.452 4.692-4.324 0-7.222-3.68-7.222-9.752v-.046c0-.552 0-1.058.046-1.61h14.904c.276-5.014-2.852-9.384-8.418-9.384-5.52 0-9.844 5.382-9.844 11.316 0 6.394 4.232 10.534 9.706 10.534zm.046-21.436c4.048 0 5.474 3.588 5.29 8.464H89.356c.46-5.336 2.76-8.464 6.348-8.464zm20.318 21.666h.23l7.314-17.296c1.472-3.45 1.656-3.68 4.094-4.048v-.23h-6.762v.184c2.024.276 2.806.736 2.806 1.748 0 .506-.23 1.15-.552 1.978l-5.704 13.708h-.092l-5.612-14.536c-.23-.552-.368-1.104-.368-1.38 0-.966.874-1.38 3.312-1.518v-.184h-10.212v.23c2.76.184 3.174.782 4.14 3.174l7.406 18.17zm21.928-.23c3.864 0 6.67-2.53 8.602-5.52l-.322-.23c-1.886 2.622-4.232 4.692-7.452 4.692-4.324 0-7.222-3.68-7.222-9.752v-.046c0-.552 0-1.058.046-1.61h14.904c.276-5.014-2.852-9.384-8.418-9.384-5.52 0-9.844 5.382-9.844 11.316 0 6.394 4.232 10.534 9.706 10.534zm.046-21.436c4.048 0 5.474 3.588 5.29 8.464h-11.638c.46-5.336 2.76-8.464 6.348-8.464zM149.16 34h11.086v-.23c-3.312-.046-4.232-.276-4.232-1.84V19.188c1.564-3.174 3.634-5.244 5.658-5.52-.506.644-.69 1.15-.69 1.886 0 1.196.874 2.07 2.208 2.07 1.104 0 2.07-1.058 2.07-2.346 0-1.472-.966-2.576-2.898-2.576-2.53 0-5.244 2.99-6.394 5.842v-5.658l-6.808.276v.23c3.358.276 3.726.69 3.726 2.116V31.93c0 1.564-1.058 1.794-3.726 1.84V34zm29.012-.276l-.506 1.242c-2.346 6.026-4.278 7.222-5.566 7.314.46-.598.69-1.242.69-1.978 0-1.196-.874-2.116-1.978-2.116-1.38 0-2.024 1.058-2.024 2.208 0 1.288 1.058 2.53 2.714 2.53 2.254 0 4.14-1.426 6.624-7.59l7.222-17.894c1.38-3.45 1.61-3.68 4.048-4.048v-.23h-6.762v.184c3.036.414 3.266 1.288 2.3 3.726l-5.244 13.11-6.026-13.938c-.828-1.932-.552-2.714 2.852-2.898v-.184h-10.212v.23c2.76.184 3.174.782 4.232 3.174l7.636 17.158zm22.112.782c5.152 0 10.212-4.6 10.212-10.994 0-6.44-4.83-10.856-10.166-10.856-5.152 0-10.212 4.6-10.212 10.994 0 6.44 4.83 10.856 10.166 10.856zm.23-.368c-3.91 0-6.946-2.99-6.946-10.58s2.668-10.534 6.532-10.534c3.91 0 6.946 2.99 6.946 10.58s-2.668 10.534-6.532 10.534zM213.15 34h10.12v-.23c-2.438-.092-3.266-.322-3.266-1.84V19.188c1.426-2.714 3.864-4.784 6.256-4.784 2.944 0 4.048 2.116 4.048 5.382V31.93c0 1.518-.828 1.748-3.266 1.84V34h9.844v-.23c-2.484-.092-3.45-.322-3.45-1.84V19.05c0-4.002-1.886-6.394-5.566-6.394-3.22 0-6.072 2.668-7.912 5.704v-5.474l-6.808.276v.23c3.358.276 3.726.69 3.726 2.116V31.93c0 1.564-1.058 1.794-3.726 1.84V34zm35.59.506c3.864 0 6.67-2.53 8.602-5.52l-.322-.23c-1.886 2.622-4.232 4.692-7.452 4.692-4.324 0-7.222-3.68-7.222-9.752v-.046c0-.552 0-1.058.046-1.61h14.904c.276-5.014-2.852-9.384-8.418-9.384-5.52 0-9.844 5.382-9.844 11.316 0 6.394 4.232 10.534 9.706 10.534zm.046-21.436c4.048 0 5.474 3.588 5.29 8.464h-11.638c.46-5.336 2.76-8.464 6.348-8.464zm31.62 21.436c3.91 0 6.256-2.438 8.234-5.014l-.322-.23c-2.024 2.392-3.864 3.634-6.394 3.634-5.106 0-8.004-3.91-8.004-9.522 0-6.854 3.312-10.304 6.946-10.304 2.346 0 3.634.69 4.416 1.472-.644.368-1.656 1.058-1.656 2.392 0 1.288.966 2.116 2.116 2.116 1.104 0 2.116-.874 2.116-2.208 0-2.162-2.852-4.186-6.9-4.186-5.382 0-10.35 4.968-10.35 11.224 0 6.118 3.91 10.626 9.798 10.626zm16.5-.23c2.714 0 5.106-1.472 7.222-3.864h.046c0 2.806 1.38 3.772 3.358 3.772 1.288 0 2.576-.506 3.726-1.334l-.092-.138c-2.76 1.15-3.91.368-3.91-2.346V18.682c0-4.094-2.944-5.842-7.406-5.842-3.818 0-7.268 1.84-7.268 4.462 0 1.15.69 2.162 2.07 2.162 1.15 0 2.024-.828 2.024-2.162 0-1.012-.644-1.886-1.978-2.116.598-.92 2.116-1.794 4.462-1.794 3.45 0 4.968 1.426 4.968 5.658v3.312c-3.45.506-7.13 1.058-9.66 2.438-1.932 1.058-3.036 2.576-3.036 4.646 0 2.484 1.84 4.83 5.474 4.83zm1.518-1.426c-2.346 0-3.726-1.334-3.726-4.002 0-3.68 1.702-5.014 9.43-6.026v6.992c-1.518 1.84-3.404 3.036-5.704 3.036zm13.74 1.15h10.12v-.23c-2.438-.092-3.266-.322-3.266-1.84V19.188c1.426-2.714 3.864-4.784 6.256-4.784 2.944 0 4.048 2.116 4.048 5.382V31.93c0 1.518-.828 1.748-3.266 1.84V34h9.844v-.23c-2.484-.092-3.45-.322-3.45-1.84V19.05c0-4.002-1.886-6.394-5.566-6.394-3.22 0-6.072 2.668-7.912 5.704v-5.474l-6.808.276v.23c3.358.276 3.726.69 3.726 2.116V31.93c0 1.564-1.058 1.794-3.726 1.84V34zm45.19.506c3.864 0 6.67-2.53 8.602-5.52l-.322-.23c-1.886 2.622-4.232 4.692-7.452 4.692-4.324 0-7.222-3.68-7.222-9.752v-.046c0-.552 0-1.058.046-1.61h14.904c.276-5.014-2.852-9.384-8.418-9.384-5.52 0-9.844 5.382-9.844 11.316 0 6.394 4.232 10.534 9.706 10.534zm.046-21.436c4.048 0 5.474 3.588 5.29 8.464h-11.638c.46-5.336 2.76-8.464 6.348-8.464zm22.434 9.062l-3.864-5.612c-1.61-2.3-1.794-2.944 1.702-3.174v-.184h-9.89v.23c2.162.184 2.668.552 5.014 3.772l5.106 7.038-3.772 4.784c-2.99 3.818-3.818 4.554-6.716 4.784V34h8.924v-.184c-3.358-.276-4.324-1.196-1.794-4.508l3.634-4.738 4.232 6.072c1.61 2.3 1.794 2.944-1.702 3.174V34h9.89v-.23c-2.162-.184-2.668-.552-5.014-3.772l-5.428-7.452 3.404-4.37c2.944-3.818 3.818-4.554 6.716-4.784v-.23h-8.924v.184c3.358.276 4.37 1.196 1.794 4.508l-3.312 4.278zm11.348 20.7h11.454v-.322c-3.45 0-4.6-.276-4.6-1.84v-8.188a9.927 9.927 0 0 0 5.842 1.886c5.152 0 9.752-4.738 9.752-11.454 0-5.934-3.634-10.12-8.648-10.12-2.852 0-4.876 1.472-6.992 3.726v-3.634l-6.808.276v.23c3.358.276 3.726.69 3.726 2.116v25.254c0 1.564-1.058 1.794-3.726 1.84v.23zm12.696-8.924c-2.714 0-4.876-1.196-5.842-3.588V17.026c1.518-1.702 3.496-2.806 5.382-2.806 4.186 0 6.716 3.91 6.716 9.062 0 6.21-2.3 10.626-6.256 10.626zm12.268.092h10.304v-.23c-2.668-.046-3.588-.322-3.588-1.84V1.018l-6.854.184v.23c3.358.276 3.726.69 3.726 2.116V31.93c0 1.518-.92 1.794-3.588 1.84V34zm22.848.506c5.152 0 10.212-4.6 10.212-10.994 0-6.44-4.83-10.856-10.166-10.856-5.152 0-10.212 4.6-10.212 10.994 0 6.44 4.83 10.856 10.166 10.856zm.23-.368c-3.91 0-6.946-2.99-6.946-10.58s2.668-10.534 6.532-10.534c3.91 0 6.946 2.99 6.946 10.58s-2.668 10.534-6.532 10.534zM451.86 34h11.086v-.23c-3.312-.046-4.232-.276-4.232-1.84V19.188c1.564-3.174 3.634-5.244 5.658-5.52-.506.644-.69 1.15-.69 1.886 0 1.196.874 2.07 2.208 2.07 1.104 0 2.07-1.058 2.07-2.346 0-1.472-.966-2.576-2.898-2.576-2.53 0-5.244 2.99-6.394 5.842v-5.658l-6.808.276v.23c3.358.276 3.726.69 3.726 2.116V31.93c0 1.564-1.058 1.794-3.726 1.84V34zm27.678.506c3.864 0 6.67-2.53 8.602-5.52l-.322-.23c-1.886 2.622-4.232 4.692-7.452 4.692-4.324 0-7.222-3.68-7.222-9.752v-.046c0-.552 0-1.058.046-1.61h14.904c.276-5.014-2.852-9.384-8.418-9.384-5.52 0-9.844 5.382-9.844 11.316 0 6.394 4.232 10.534 9.706 10.534zm.046-21.436c4.048 0 5.474 3.588 5.29 8.464h-11.638c.46-5.336 2.76-8.464 6.348-8.464zm29.412 21.436c2.53 0 4.278-1.564 5.842-4.416l-.23-.138c-1.518 2.392-2.714 3.358-4.232 3.358-1.932 0-3.174-1.518-3.174-4.278V13.668h6.9v-.506h-6.9V5.388l-3.128 1.518v6.164l-4.278.184v.414h4.278v15.18c0 3.864 2.07 5.658 4.922 5.658zm6.886-.506h9.936v-.23c-2.438-.092-3.266-.322-3.266-1.84V19.188c1.426-2.714 3.864-4.784 6.256-4.784 2.944 0 4.048 2.116 4.048 5.382V31.93c0 1.518-.828 1.748-3.266 1.84V34h9.844v-.23c-2.484-.092-3.45-.322-3.45-1.84V19.05c0-4.002-1.886-6.394-5.566-6.394-3.22 0-6.026 2.622-7.866 5.658V1.018l-6.854.184v.23c3.358.276 3.726.69 3.726 2.116V31.93c0 1.564-.966 1.748-3.542 1.84V34zm35.59.506c3.864 0 6.67-2.53 8.602-5.52l-.322-.23c-1.886 2.622-4.232 4.692-7.452 4.692-4.324 0-7.222-3.68-7.222-9.752v-.046c0-.552 0-1.058.046-1.61h14.904c.276-5.014-2.852-9.384-8.418-9.384-5.52 0-9.844 5.382-9.844 11.316 0 6.394 4.232 10.534 9.706 10.534zm.046-21.436c4.048 0 5.474 3.588 5.29 8.464H545.17c.46-5.336 2.76-8.464 6.348-8.464zm37.324 6.164l-4.784 11.132h-.092l-5.474-13.984c-.23-.598-.276-1.058-.276-1.288 0-1.012.736-1.61 3.22-1.748v-.184h-10.074v.23c2.714.184 3.174.828 4.094 3.174l7.084 18.17h.23l6.302-14.904 5.52 14.904h.322l6.348-17.25c1.242-3.404 1.702-3.726 4.324-4.094v-.23h-6.9v.184c1.932.276 2.622.782 2.622 1.794 0 .506-.184 1.15-.46 1.978l-4.83 13.156h-.092l-5.06-13.892c-.184-.506-.276-.966-.276-1.196 0-1.104.92-1.702 3.358-1.84v-.184h-9.89v.184c2.484.184 2.944.782 3.818 3.22l.966 2.668zM605.158 34h9.936v-.23c-2.438-.092-3.266-.322-3.266-1.84V19.188c1.426-2.714 3.864-4.784 6.256-4.784 2.944 0 4.048 2.116 4.048 5.382V31.93c0 1.518-.828 1.748-3.266 1.84V34h9.844v-.23c-2.484-.092-3.45-.322-3.45-1.84V19.05c0-4.002-1.886-6.394-5.566-6.394-3.22 0-6.026 2.622-7.866 5.658V1.018l-6.854.184v.23c3.358.276 3.726.69 3.726 2.116V31.93c0 1.564-.966 1.748-3.542 1.84V34zm36.05.506c5.152 0 10.212-4.6 10.212-10.994 0-6.44-4.83-10.856-10.166-10.856-5.152 0-10.212 4.6-10.212 10.994 0 6.44 4.83 10.856 10.166 10.856zm.23-.368c-3.91 0-6.946-2.99-6.946-10.58s2.668-10.534 6.532-10.534c3.91 0 6.946 2.99 6.946 10.58s-2.668 10.534-6.532 10.534zm12.36-.138h10.304v-.23c-2.668-.046-3.588-.322-3.588-1.84V1.018l-6.854.184v.23c3.358.276 3.726.69 3.726 2.116V31.93c0 1.518-.92 1.794-3.588 1.84V34zm22.388.506c3.864 0 6.67-2.53 8.602-5.52l-.322-.23c-1.886 2.622-4.232 4.692-7.452 4.692-4.324 0-7.222-3.68-7.222-9.752v-.046c0-.552 0-1.058.046-1.61h14.904c.276-5.014-2.852-9.384-8.418-9.384-5.52 0-9.844 5.382-9.844 11.316 0 6.394 4.232 10.534 9.706 10.534zm.046-21.436c4.048 0 5.474 3.588 5.29 8.464h-11.638c.46-5.336 2.76-8.464 6.348-8.464zm37.324 6.164l-4.784 11.132h-.092l-5.474-13.984c-.23-.598-.276-1.058-.276-1.288 0-1.012.736-1.61 3.22-1.748v-.184h-10.074v.23c2.714.184 3.174.828 4.094 3.174l7.084 18.17h.23l6.302-14.904 5.52 14.904h.322l6.348-17.25c1.242-3.404 1.702-3.726 4.324-4.094v-.23h-6.9v.184c1.932.276 2.622.782 2.622 1.794 0 .506-.184 1.15-.46 1.978l-4.83 13.156h-.092l-5.06-13.892c-.184-.506-.276-.966-.276-1.196 0-1.104.92-1.702 3.358-1.84v-.184h-9.89v.184c2.484.184 2.944.782 3.818 3.22l.966 2.668zm27.218 15.272c5.152 0 10.212-4.6 10.212-10.994 0-6.44-4.83-10.856-10.166-10.856-5.152 0-10.212 4.6-10.212 10.994 0 6.44 4.83 10.856 10.166 10.856zm.23-.368c-3.91 0-6.946-2.99-6.946-10.58s2.668-10.534 6.532-10.534c3.91 0 6.946 2.99 6.946 10.58s-2.668 10.534-6.532 10.534zM753.64 34h11.086v-.23c-3.312-.046-4.232-.276-4.232-1.84V19.188c1.564-3.174 3.634-5.244 5.658-5.52-.506.644-.69 1.15-.69 1.886 0 1.196.874 2.07 2.208 2.07 1.104 0 2.07-1.058 2.07-2.346 0-1.472-.966-2.576-2.898-2.576-2.53 0-5.244 2.99-6.394 5.842v-5.658l-6.808.276v.23c3.358.276 3.726.69 3.726 2.116V31.93c0 1.564-1.058 1.794-3.726 1.84V34zm18.018 0h10.304v-.23c-2.668-.046-3.588-.322-3.588-1.84V1.018l-6.854.184v.23c3.358.276 3.726.69 3.726 2.116V31.93c0 1.518-.92 1.794-3.588 1.84V34zm21.468.368c2.852 0 4.876-1.472 6.992-3.726v3.496l6.808-.138v-.23c-2.668-.046-3.726-.276-3.726-1.84V1.018l-6.854.184v.23c3.358.276 3.726.69 3.726 2.116V14.68a9.927 9.927 0 0 0-5.842-1.886c-5.152 0-9.752 4.462-9.752 11.224 0 6.026 3.634 10.35 8.648 10.35zm1.564-1.426c-4.186 0-6.716-4.048-6.716-9.292 0-6.256 2.3-10.396 6.256-10.396 2.714 0 4.876 1.196 5.842 3.588v13.294c-1.518 1.702-3.496 2.806-5.382 2.806zm17.466 1.794a2.327 2.327 0 0 0 2.346-2.346c0-1.242-1.058-2.254-2.346-2.254a2.327 2.327 0 0 0-2.346 2.346c0 1.242 1.058 2.254 2.346 2.254z" vector-effect="non-scaling-stroke" stroke="#646464" stroke-width=".34" fill="#646464"/></svg>