<svg width="324" height="26" viewBox="0 0 324 26" xmlns="http://www.w3.org/2000/svg"><path d="M14.679 17.804c-.161.228-.404.486-.73.774-.326.288-.75.554-1.27.8-.52.245-1.147.453-1.879.622-.732.17-1.58.254-2.545.254-1.092 0-2.09-.197-2.996-.59a6.686 6.686 0 0 1-2.342-1.689c-.656-.732-1.166-1.619-1.53-2.66-.364-1.04-.546-2.209-.546-3.503V9.564c0-1.27.165-2.416.495-3.44.33-1.024.806-1.896 1.428-2.615a6.32 6.32 0 0 1 2.254-1.663c.88-.39 1.874-.584 2.983-.584 1.024 0 1.93.137 2.717.412.787.275 1.455.658 2.006 1.15a5.51 5.51 0 0 1 1.307 1.732c.322.665.533 1.386.635 2.165h-1.562a6.287 6.287 0 0 0-.482-1.575 4.105 4.105 0 0 0-.952-1.313 4.523 4.523 0 0 0-1.504-.902c-.597-.224-1.314-.336-2.152-.336-.906 0-1.706.167-2.4.501a4.952 4.952 0 0 0-1.758 1.41c-.478.605-.84 1.334-1.085 2.19-.246.854-.369 1.802-.369 2.843v2.273c0 1.083.14 2.063.42 2.938.279.876.674 1.623 1.186 2.241a5.308 5.308 0 0 0 1.847 1.435c.72.338 1.52.508 2.4.508.71 0 1.337-.053 1.879-.16a7.744 7.744 0 0 0 1.409-.399c.398-.16.726-.334.984-.52.258-.187.455-.364.59-.534v-4.773H8.153v-1.32h6.526v6.576zm3.537-4.875c0-.999.146-1.922.438-2.768a6.557 6.557 0 0 1 1.238-2.19 5.664 5.664 0 0 1 1.93-1.44c.753-.348 1.59-.521 2.513-.521.94 0 1.788.173 2.546.52a5.648 5.648 0 0 1 1.936 1.441 6.472 6.472 0 0 1 1.231 2.19c.288.846.432 1.769.432 2.768v.419c0 .998-.144 1.92-.432 2.767a6.472 6.472 0 0 1-1.231 2.19 5.593 5.593 0 0 1-1.93 1.435c-.753.343-1.595.514-2.526.514-.931 0-1.774-.171-2.527-.514a5.657 5.657 0 0 1-1.936-1.435 6.497 6.497 0 0 1-1.244-2.19c-.292-.846-.438-1.769-.438-2.767v-.42zm1.523.419c0 .753.102 1.47.305 2.152.203.68.5 1.278.889 1.79.39.512.872.92 1.447 1.225.576.304 1.236.457 1.98.457.745 0 1.403-.153 1.975-.457a4.374 4.374 0 0 0 1.44-1.225c.39-.512.686-1.11.89-1.79a7.493 7.493 0 0 0 .304-2.152v-.42a7.41 7.41 0 0 0-.305-2.126 5.619 5.619 0 0 0-.888-1.796 4.372 4.372 0 0 0-1.454-1.238c-.58-.309-1.242-.463-1.987-.463-.736 0-1.39.154-1.961.463a4.412 4.412 0 0 0-1.441 1.238 5.619 5.619 0 0 0-.889 1.796 7.403 7.403 0 0 0-.305 2.127v.419zm13.339-.42c0-.998.146-1.92.438-2.767a6.557 6.557 0 0 1 1.237-2.19 5.664 5.664 0 0 1 1.93-1.44c.753-.348 1.591-.521 2.514-.521.94 0 1.788.173 2.545.52a5.648 5.648 0 0 1 1.936 1.441 6.472 6.472 0 0 1 1.232 2.19c.287.846.431 1.769.431 2.768v.419c0 .998-.144 1.92-.431 2.767a6.472 6.472 0 0 1-1.232 2.19 5.593 5.593 0 0 1-1.93 1.435c-.753.343-1.595.514-2.526.514-.93 0-1.773-.171-2.526-.514a5.657 5.657 0 0 1-1.936-1.435 6.497 6.497 0 0 1-1.244-2.19c-.292-.846-.438-1.769-.438-2.767v-.42zm1.523.42c0 .753.102 1.47.305 2.152.203.68.499 1.278.888 1.79.39.512.872.92 1.448 1.225.575.304 1.235.457 1.98.457.745 0 1.403-.153 1.974-.457a4.374 4.374 0 0 0 1.441-1.225 5.54 5.54 0 0 0 .889-1.79 7.493 7.493 0 0 0 .304-2.152v-.42c0-.736-.101-1.444-.304-2.126a5.619 5.619 0 0 0-.889-1.796 4.372 4.372 0 0 0-1.454-1.238c-.58-.309-1.242-.463-1.986-.463-.737 0-1.39.154-1.962.463a4.412 4.412 0 0 0-1.44 1.238 5.619 5.619 0 0 0-.89 1.796 7.403 7.403 0 0 0-.304 2.127v.419zm13.567-.343c0-1.067.12-2.03.361-2.888.242-.86.59-1.594 1.048-2.203a4.72 4.72 0 0 1 1.67-1.41c.655-.33 1.398-.494 2.227-.494.982 0 1.824.197 2.527.59a4.93 4.93 0 0 1 1.739 1.644l.076-1.98h1.422v13.495c0 .888-.131 1.686-.394 2.393a5.058 5.058 0 0 1-1.11 1.796A4.81 4.81 0 0 1 56 25.078c-.678.262-1.435.394-2.273.394-.432 0-.872-.049-1.32-.146a6.198 6.198 0 0 1-1.301-.438 6.053 6.053 0 0 1-1.187-.73 4.839 4.839 0 0 1-.978-1.035l.85-.914c.56.686 1.152 1.187 1.778 1.504a4.484 4.484 0 0 0 2.057.476c.651 0 1.229-.099 1.732-.298a3.41 3.41 0 0 0 1.276-.863c.347-.377.612-.834.794-1.371.182-.538.273-1.15.273-1.835v-1.6a4.817 4.817 0 0 1-1.74 1.492c-.702.36-1.54.54-2.513.54-.821 0-1.557-.171-2.21-.514a4.902 4.902 0 0 1-1.662-1.435c-.457-.613-.806-1.348-1.048-2.202-.24-.855-.361-1.799-.361-2.832v-.266zm1.536.266c0 .805.08 1.551.24 2.241.162.69.407 1.289.737 1.797.33.507.747.905 1.25 1.193.504.288 1.103.432 1.797.432.525 0 .997-.064 1.416-.19a3.806 3.806 0 0 0 1.948-1.321c.237-.305.44-.64.61-1.003v-6.386a5.319 5.319 0 0 0-.552-1.022 3.822 3.822 0 0 0-1.923-1.46c-.424-.148-.915-.222-1.473-.222-.703 0-1.308.146-1.816.438a3.661 3.661 0 0 0-1.257 1.2c-.33.508-.575 1.108-.736 1.803a9.882 9.882 0 0 0-.241 2.234v.266zM65.2 20h-1.523V.5H65.2V20zm9.745.254a6.034 6.034 0 0 1-2.475-.502 5.798 5.798 0 0 1-1.949-1.396 6.42 6.42 0 0 1-1.276-2.127c-.305-.82-.457-1.722-.457-2.704v-.546c0-1.057.159-2.016.476-2.875.318-.859.747-1.591 1.289-2.196a5.778 5.778 0 0 1 1.872-1.403 5.232 5.232 0 0 1 2.241-.495c.872 0 1.646.156 2.323.47a4.79 4.79 0 0 1 1.708 1.307 5.75 5.75 0 0 1 1.047 1.993 8.56 8.56 0 0 1 .356 2.527v.926h-9.801v.292c0 .754.114 1.462.343 2.127a5.35 5.35 0 0 0 .964 1.733c.415.49.91.878 1.486 1.161a4.278 4.278 0 0 0 1.917.426c.812 0 1.53-.148 2.152-.445.622-.296 1.187-.77 1.694-1.422l.953.724c-.229.33-.493.643-.794.94-.3.296-.65.554-1.047.774-.398.22-.847.394-1.346.52-.5.127-1.058.19-1.676.19zm-.279-12.95a3.865 3.865 0 0 0-2.9 1.27 4.983 4.983 0 0 0-.928 1.467 7.054 7.054 0 0 0-.488 1.897h8.239v-.165a6.13 6.13 0 0 0-.28-1.669 4.453 4.453 0 0 0-.742-1.428 3.66 3.66 0 0 0-1.213-.997c-.482-.25-1.045-.374-1.688-.374zm17.739-5.788l6.817 16.313 6.843-16.313h2.082V20h-1.562v-8.074l.127-8.227L99.832 20h-1.207L91.77 3.763l.127 8.163V20h-1.562V1.516h2.07zM121.447 20a4.364 4.364 0 0 1-.197-.87 12.034 12.034 0 0 1-.095-1.047 5.398 5.398 0 0 1-1.866 1.523c-.39.195-.817.352-1.283.47a6.082 6.082 0 0 1-1.51.178 5.394 5.394 0 0 1-1.822-.292 4.074 4.074 0 0 1-1.397-.819 3.7 3.7 0 0 1-.895-1.238 3.756 3.756 0 0 1-.317-1.549c0-.668.144-1.271.432-1.809a3.913 3.913 0 0 1 1.244-1.37c.541-.377 1.2-.665 1.974-.864.774-.199 1.644-.298 2.609-.298h2.818v-1.562c0-.982-.302-1.754-.908-2.317-.605-.563-1.487-.844-2.646-.844a4.8 4.8 0 0 0-1.473.216 3.717 3.717 0 0 0-1.162.596c-.326.254-.58.549-.761.883a2.21 2.21 0 0 0-.273 1.073l-1.524-.013c0-.516.127-1.016.381-1.498a4.168 4.168 0 0 1 1.073-1.289 5.492 5.492 0 0 1 1.663-.907c.647-.229 1.365-.343 2.152-.343.728 0 1.398.093 2.012.28a4.37 4.37 0 0 1 1.58.837c.44.372.783.838 1.029 1.396.245.559.368 1.21.368 1.956v6.652c0 .237.008.482.025.736s.045.5.083.737c.038.236.082.463.133.679.05.216.11.404.178.565V20h-1.625zm-4.774-1.092c.55 0 1.06-.07 1.53-.21.47-.139.895-.331 1.276-.577.381-.245.711-.531.99-.857.28-.326.504-.679.673-1.06v-3.021h-2.602a9.45 9.45 0 0 0-2.089.21c-.613.139-1.132.34-1.555.602a2.846 2.846 0 0 0-.971.959 2.446 2.446 0 0 0-.337 1.275c0 .373.072.722.216 1.048.144.326.35.61.616.85.267.242.59.432.971.572.381.14.808.21 1.282.21zm21.375-5.637c0 1.033-.117 1.977-.35 2.832-.232.854-.573 1.589-1.021 2.202a4.802 4.802 0 0 1-1.644 1.435c-.648.343-1.386.514-2.216.514-.982 0-1.83-.176-2.545-.527a4.869 4.869 0 0 1-1.771-1.454v7.008h-1.511V6.264h1.41l.075 1.942a5.028 5.028 0 0 1 1.765-1.612c.711-.39 1.557-.584 2.54-.584.837 0 1.584.165 2.24.495.656.33 1.208.8 1.657 1.41.448.608.789 1.343 1.022 2.202.232.859.349 1.821.349 2.888v.266zm-1.524-.266a9.64 9.64 0 0 0-.247-2.234c-.165-.695-.415-1.295-.75-1.803a3.68 3.68 0 0 0-1.275-1.2c-.517-.292-1.122-.438-1.816-.438a4.53 4.53 0 0 0-1.46.216 3.888 3.888 0 0 0-1.11.578 3.81 3.81 0 0 0-.813.837c-.224.318-.408.65-.552.997v6.589c.16.347.362.668.603.965.241.296.525.552.85.768.326.216.697.385 1.111.508.415.122.88.184 1.397.184.694 0 1.295-.146 1.802-.438a3.696 3.696 0 0 0 1.264-1.206c.334-.512.584-1.115.749-1.81a9.698 9.698 0 0 0 .247-2.247v-.266zm13.414 3.504c0-.28-.048-.559-.146-.838-.097-.28-.279-.544-.545-.794-.267-.25-.64-.482-1.118-.698-.478-.216-1.098-.404-1.86-.565-.761-.16-1.44-.347-2.037-.558-.597-.212-1.1-.468-1.51-.768a3.03 3.03 0 0 1-.934-1.073c-.212-.415-.317-.902-.317-1.46 0-.508.112-.99.336-1.447a3.52 3.52 0 0 1 .965-1.194 4.825 4.825 0 0 1 1.523-.806c.597-.199 1.268-.298 2.013-.298.795 0 1.508.103 2.139.31.63.208 1.164.496 1.6.864.435.368.767.802.996 1.301.228.5.343 1.041.343 1.625h-1.524c0-.355-.078-.702-.235-1.04a2.627 2.627 0 0 0-.685-.896 3.547 3.547 0 0 0-1.117-.628 4.44 4.44 0 0 0-1.517-.241c-.593 0-1.099.072-1.517.216a3.11 3.11 0 0 0-1.029.558 2.125 2.125 0 0 0-.768 1.625c0 .305.047.582.14.832.093.25.273.482.54.698.266.216.638.415 1.117.597.478.182 1.102.361 1.872.54.83.194 1.545.41 2.146.647.6.237 1.098.518 1.491.844.394.326.686.698.876 1.117.19.419.286.903.286 1.454 0 .567-.119 1.085-.356 1.555a3.46 3.46 0 0 1-1.015 1.206c-.44.334-.973.594-1.6.78a7.338 7.338 0 0 1-2.095.28c-.871 0-1.641-.112-2.31-.337-.669-.224-1.232-.526-1.689-.907a3.82 3.82 0 0 1-1.034-1.314 3.585 3.585 0 0 1-.35-1.543h1.524c.034.542.174.993.42 1.352.244.36.55.648.913.864.364.215.768.37 1.213.463.444.093.882.14 1.313.14.576 0 1.084-.068 1.524-.203.44-.136.81-.318 1.11-.546a2.33 2.33 0 0 0 .68-.787 2 2 0 0 0 .228-.927z" fill="#4285F4"/><path d="M155.037 19.086c0-.296.096-.548.286-.755.19-.208.455-.311.793-.311.339 0 .606.103.8.31.195.208.292.46.292.756s-.097.54-.292.73c-.194.19-.461.286-.8.286-.338 0-.603-.096-.793-.286a.989.989 0 0 1-.286-.73zm23.807-7.719h-8.62V20h-1.561V1.516h11.45v1.333h-9.889v7.185h8.62v1.333zm3.284 1.562c0-.999.146-1.922.438-2.768a6.557 6.557 0 0 1 1.238-2.19 5.664 5.664 0 0 1 1.93-1.44c.752-.348 1.59-.521 2.513-.521.94 0 1.788.173 2.545.52a5.648 5.648 0 0 1 1.936 1.441 6.472 6.472 0 0 1 1.232 2.19c.288.846.431 1.769.431 2.768v.419c0 .998-.143 1.92-.431 2.767a6.472 6.472 0 0 1-1.232 2.19 5.593 5.593 0 0 1-1.93 1.435c-.753.343-1.595.514-2.526.514-.93 0-1.773-.171-2.526-.514a5.657 5.657 0 0 1-1.936-1.435 6.497 6.497 0 0 1-1.244-2.19c-.292-.846-.438-1.769-.438-2.767v-.42zm1.523.419c0 .753.102 1.47.305 2.152.203.68.5 1.278.889 1.79s.871.92 1.447 1.225c.575.304 1.235.457 1.98.457.745 0 1.403-.153 1.974-.457a4.374 4.374 0 0 0 1.441-1.225 5.54 5.54 0 0 0 .889-1.79 7.493 7.493 0 0 0 .305-2.152v-.42a7.41 7.41 0 0 0-.305-2.126 5.619 5.619 0 0 0-.889-1.796 4.372 4.372 0 0 0-1.453-1.238c-.58-.309-1.242-.463-1.987-.463-.736 0-1.39.154-1.962.463a4.412 4.412 0 0 0-1.44 1.238 5.619 5.619 0 0 0-.89 1.796 7.403 7.403 0 0 0-.304 2.127v.419zm20.524-5.79a5.674 5.674 0 0 0-1.029-.088c-.516 0-.981.076-1.396.228-.415.153-.78.366-1.098.641a3.734 3.734 0 0 0-.8.978 5.422 5.422 0 0 0-.514 1.25V20h-1.51V6.264h1.484l.026 2.183c.372-.753.878-1.348 1.517-1.783.639-.436 1.424-.654 2.355-.654.186 0 .377.017.571.05.195.034.339.072.432.115l-.038 1.384zm14.64 12.696a6.034 6.034 0 0 1-2.475-.502 5.798 5.798 0 0 1-1.948-1.396 6.42 6.42 0 0 1-1.276-2.127c-.305-.82-.457-1.722-.457-2.704v-.546c0-1.057.158-2.016.476-2.875.317-.859.747-1.591 1.288-2.196a5.778 5.778 0 0 1 1.873-1.403 5.232 5.232 0 0 1 2.24-.495c.872 0 1.647.156 2.324.47a4.79 4.79 0 0 1 1.707 1.307c.462.559.81 1.223 1.048 1.993a8.56 8.56 0 0 1 .355 2.527v.926h-9.8v.292c0 .754.114 1.462.342 2.127a5.35 5.35 0 0 0 .965 1.733c.415.49.91.878 1.485 1.161a4.278 4.278 0 0 0 1.917.426c.813 0 1.53-.148 2.152-.445.622-.296 1.187-.77 1.695-1.422l.952.724a6.62 6.62 0 0 1-.793.94c-.3.296-.65.554-1.048.774-.397.22-.846.394-1.345.52-.5.127-1.058.19-1.676.19zm-.278-12.95a3.865 3.865 0 0 0-2.901 1.27 4.983 4.983 0 0 0-.927 1.467 7.054 7.054 0 0 0-.489 1.897h8.24v-.165a6.13 6.13 0 0 0-.28-1.669 4.453 4.453 0 0 0-.743-1.428 3.66 3.66 0 0 0-1.212-.997c-.482-.25-1.045-.374-1.688-.374zm12.804 10.601l4.177-11.641h1.562L231.95 20h-1.23l-5.155-13.736h1.562l4.214 11.641zm13.681 2.349a6.034 6.034 0 0 1-2.475-.502 5.798 5.798 0 0 1-1.95-1.396 6.42 6.42 0 0 1-1.275-2.127c-.305-.82-.457-1.722-.457-2.704v-.546c0-1.057.159-2.016.476-2.875.317-.859.747-1.591 1.289-2.196a5.778 5.778 0 0 1 1.872-1.403 5.232 5.232 0 0 1 2.241-.495c.872 0 1.646.156 2.323.47a4.79 4.79 0 0 1 1.708 1.307 5.75 5.75 0 0 1 1.047 1.993 8.56 8.56 0 0 1 .356 2.527v.926h-9.801v.292c0 .754.114 1.462.343 2.127a5.35 5.35 0 0 0 .964 1.733c.415.49.91.878 1.486 1.161a4.278 4.278 0 0 0 1.917.426c.812 0 1.53-.148 2.152-.445.622-.296 1.187-.77 1.694-1.422l.953.724c-.229.33-.493.643-.794.94-.3.296-.65.554-1.047.774-.398.22-.847.394-1.346.52-.5.127-1.058.19-1.676.19zm-.279-12.95a3.865 3.865 0 0 0-2.9 1.27 4.983 4.983 0 0 0-.928 1.467 7.054 7.054 0 0 0-.488 1.897h8.239v-.165a6.13 6.13 0 0 0-.28-1.669 4.453 4.453 0 0 0-.742-1.428 3.66 3.66 0 0 0-1.213-.997c-.482-.25-1.045-.374-1.688-.374zm15.04.255a5.674 5.674 0 0 0-1.03-.09c-.515 0-.98.077-1.396.23a3.51 3.51 0 0 0-1.098.64 3.754 3.754 0 0 0-.8.978 5.422 5.422 0 0 0-.514 1.25V20h-1.51V6.264h1.485l.025 2.183c.373-.753.878-1.348 1.517-1.783.64-.436 1.424-.654 2.355-.654.187 0 .377.017.572.05.194.034.338.072.431.115l-.038 1.384zm7.282 10.257l4.011-11.552h1.638L266.9 22.196c-.119.313-.27.665-.451 1.054a4.74 4.74 0 0 1-.711 1.092 3.762 3.762 0 0 1-1.092.857c-.436.232-.967.349-1.593.349-.085 0-.182-.006-.292-.02a8.817 8.817 0 0 1-.33-.044 5.161 5.161 0 0 1-.546-.114l-.013-1.257c.102.017.24.034.413.051a3.367 3.367 0 0 0 1.454-.133c.313-.106.586-.263.818-.47.233-.207.438-.468.616-.78.178-.314.339-.674.482-1.08l.66-1.815-5.18-13.622h1.664l4.266 11.552zm7.27-4.887c0-.999.145-1.922.437-2.768a6.557 6.557 0 0 1 1.238-2.19 5.664 5.664 0 0 1 1.93-1.44c.753-.348 1.591-.521 2.514-.521.939 0 1.787.173 2.545.52a5.648 5.648 0 0 1 1.936 1.441 6.472 6.472 0 0 1 1.231 2.19c.288.846.432 1.769.432 2.768v.419c0 .998-.144 1.92-.432 2.767a6.472 6.472 0 0 1-1.231 2.19 5.593 5.593 0 0 1-1.93 1.435c-.753.343-1.595.514-2.526.514-.931 0-1.773-.171-2.526-.514a5.657 5.657 0 0 1-1.936-1.435 6.497 6.497 0 0 1-1.245-2.19c-.292-.846-.438-1.769-.438-2.767v-.42zm1.523.419c0 .753.101 1.47.305 2.152.203.68.499 1.278.888 1.79.39.512.872.92 1.447 1.225.576.304 1.236.457 1.98.457.746 0 1.404-.153 1.975-.457a4.374 4.374 0 0 0 1.44-1.225c.39-.512.686-1.11.89-1.79a7.493 7.493 0 0 0 .304-2.152v-.42c0-.736-.101-1.444-.304-2.126a5.619 5.619 0 0 0-.89-1.796 4.372 4.372 0 0 0-1.453-1.238c-.58-.309-1.242-.463-1.986-.463-.737 0-1.39.154-1.962.463a4.412 4.412 0 0 0-1.44 1.238 5.619 5.619 0 0 0-.89 1.796 7.403 7.403 0 0 0-.304 2.127v.419zm15.623-7.084l.05 2.348c.238-.389.51-.744.82-1.066a4.985 4.985 0 0 1 3.662-1.536c.686 0 1.3.093 1.841.28.542.185 1 .481 1.378.888.376.406.664.929.863 1.568.199.639.298 1.41.298 2.316V20h-1.51v-8.95c0-.711-.077-1.304-.23-1.778-.151-.473-.367-.854-.647-1.142a2.356 2.356 0 0 0-1.022-.616 4.576 4.576 0 0 0-1.339-.184 3.82 3.82 0 0 0-1.473.273c-.44.182-.829.425-1.168.73a4.88 4.88 0 0 0-.875 1.047c-.246.394-.44.798-.584 1.213V20h-1.511V6.264h1.447zm18.454 13.99a6.034 6.034 0 0 1-2.475-.502 5.798 5.798 0 0 1-1.949-1.396 6.42 6.42 0 0 1-1.276-2.127c-.305-.82-.457-1.722-.457-2.704v-.546c0-1.057.159-2.016.476-2.875.318-.859.747-1.591 1.289-2.196a5.778 5.778 0 0 1 1.872-1.403 5.232 5.232 0 0 1 2.241-.495c.872 0 1.646.156 2.323.47a4.79 4.79 0 0 1 1.708 1.307 5.75 5.75 0 0 1 1.047 1.993 8.56 8.56 0 0 1 .356 2.527v.926h-9.801v.292c0 .754.114 1.462.343 2.127a5.35 5.35 0 0 0 .964 1.733c.415.49.91.878 1.486 1.161a4.278 4.278 0 0 0 1.917.426c.812 0 1.53-.148 2.152-.445.622-.296 1.187-.77 1.695-1.422l.952.724c-.229.33-.493.643-.794.94-.3.296-.65.554-1.047.774-.398.22-.847.394-1.346.52-.5.127-1.058.19-1.676.19zm-.279-12.95a3.865 3.865 0 0 0-2.9 1.27 4.983 4.983 0 0 0-.928 1.467 7.054 7.054 0 0 0-.488 1.897h8.239v-.165a6.13 6.13 0 0 0-.28-1.669 4.453 4.453 0 0 0-.742-1.428 3.66 3.66 0 0 0-1.212-.997c-.483-.25-1.046-.374-1.689-.374zm8.552 11.782c0-.296.095-.548.286-.755.19-.208.455-.311.793-.311.339 0 .605.103.8.31.195.208.292.46.292.756s-.097.54-.292.73c-.195.19-.461.286-.8.286-.338 0-.603-.096-.793-.286a.989.989 0 0 1-.286-.73z" fill="#646464"/></svg>