<svg width="148" height="48" viewBox="0 0 148 48" xmlns="http://www.w3.org/2000/svg"><path d="M63.263 25.254c0 6.855-5.364 11.905-11.953 11.905-6.588 0-11.952-5.05-11.952-11.905 0-6.902 5.364-11.904 11.952-11.904 6.589 0 11.953 5.002 11.953 11.904zm-5.235 0c0-4.285-3.11-7.216-6.718-7.216s-6.717 2.931-6.717 7.216c0 4.237 3.109 7.217 6.717 7.217 3.609 0 6.718-2.972 6.718-7.217z" fill="#EA4335"/><path d="M88.892 25.254c0 6.855-5.332 11.905-11.88 11.905-6.549 0-11.88-5.05-11.88-11.905 0-6.902 5.331-11.904 11.88-11.904 6.548 0 11.88 5.002 11.88 11.904zm-5.203 0c0-4.285-3.093-7.216-6.677-7.216-3.585 0-6.677 2.931-6.677 7.216 0 4.237 3.092 7.217 6.677 7.217 3.584 0 6.677-2.972 6.677-7.217z" fill="#FBBC05"/><path d="M113.715 14.083v21.376c0 8.796-5.187 12.404-11.324 12.404-5.775 0-9.246-3.882-10.551-7.04l4.558-1.892c.814 1.94 2.795 4.236 6 4.236 3.923 0 6.364-2.432 6.364-6.99V34.46h-.177c-1.176 1.441-3.431 2.706-6.267 2.706-5.952 0-11.413-5.187-11.413-11.864 0-6.718 5.461-11.953 11.413-11.953 2.844 0 5.099 1.265 6.267 2.658h.177v-1.941h4.953v.016zm-4.599 11.236c0-4.196-2.795-7.265-6.363-7.265-3.608 0-6.628 3.069-6.628 7.265 0 4.148 3.02 7.168 6.628 7.168 3.568 0 6.363-3.02 6.363-7.168z" fill="#4285F4"/><path d="M122.72 2.074v34.634h-5.235V2.074h5.235z" fill="#34A853"/><path d="M143.218 29.177l4.06 2.706c-1.305 1.941-4.462 5.276-9.923 5.276-6.766 0-11.816-5.236-11.816-11.905 0-7.08 5.098-11.904 11.228-11.904 6.178 0 9.198 4.913 10.197 7.58l.54 1.352-15.924 6.589c1.216 2.392 3.109 3.608 5.775 3.608 2.666-.008 4.51-1.313 5.863-3.302zm-12.492-4.285l10.648-4.422c-.588-1.49-2.344-2.529-4.422-2.529-2.666.008-6.363 2.352-6.226 6.951z" fill="#EA4335"/><path d="M36.514 17.377a21.2 21.2 0 0 1 .226 3.045c0 3.785-1.04 8.481-4.374 11.816-3.246 3.382-7.393 5.187-12.903 5.187C9.267 37.425.697 29.129.697 18.932.705 8.743 9.275.463 19.47.463c5.638 0 9.65 2.207 12.678 5.099l-3.56 3.56c-2.167-2.03-5.098-3.609-9.11-3.609-7.442 0-13.257 5.977-13.257 13.419s5.815 13.442 13.257 13.442c4.825 0 7.58-1.94 9.335-3.696 1.426-1.426 2.368-3.464 2.739-6.25H19.64v-5.05h16.873z" fill="#4285F4"/></svg>