<svg width="132" height="42" viewBox="0 0 132 42" xmlns="http://www.w3.org/2000/svg"><path fill="transparent" d="M0 0h132v42H0z"/><path d="M28.097 19.547h-5.164v4.64h5.937V25H22V13.625h6.832v.82h-5.9v4.29h5.165v.812zm5.103.43l2.214-3.43h1.077l-2.783 4.148L36.612 25h-1.07l-2.335-3.578L30.872 25h-1.07l2.897-4.305-2.783-4.148h1.07l2.214 3.43zm11.57.882c0 .636-.069 1.217-.208 1.743a4.153 4.153 0 0 1-.61 1.355 2.896 2.896 0 0 1-.982.883 2.73 2.73 0 0 1-1.323.316c-.587 0-1.093-.108-1.52-.324a2.929 2.929 0 0 1-1.058-.895v4.313h-.903V16.547h.842l.046 1.195a3.037 3.037 0 0 1 1.054-.992c.424-.24.93-.36 1.516-.36.5 0 .947.102 1.338.305.392.203.722.492.99.867.268.376.471.827.61 1.356a6.95 6.95 0 0 1 .209 1.777v.164zm-.909-.164c0-.49-.05-.948-.148-1.375a3.51 3.51 0 0 0-.447-1.11 2.226 2.226 0 0 0-.762-.737c-.309-.18-.67-.27-1.085-.27-.328 0-.619.044-.872.133a2.3 2.3 0 0 0-.663.355c-.19.149-.351.32-.485.516a3.19 3.19 0 0 0-.33.613v4.055c.096.214.216.411.36.594.144.182.313.34.508.472.195.133.416.237.663.313.248.075.526.113.835.113.414 0 .773-.09 1.076-.27a2.22 2.22 0 0 0 .755-.742c.2-.315.349-.686.447-1.113.099-.427.148-.888.148-1.383v-.164zM47.796 25h-.91V13h.91v12zm1.964-4.352c0-.614.088-1.182.262-1.703.174-.52.42-.97.74-1.347a3.393 3.393 0 0 1 1.152-.887c.45-.214.95-.32 1.501-.32a3.51 3.51 0 0 1 1.52.32c.453.213.838.51 1.157.887.318.377.564.826.735 1.347.172.521.258 1.089.258 1.703v.258c0 .615-.086 1.183-.258 1.703-.171.521-.417.97-.735 1.348a3.35 3.35 0 0 1-1.153.883c-.45.21-.953.316-1.509.316a3.511 3.511 0 0 1-1.509-.316 3.388 3.388 0 0 1-1.156-.883 4.03 4.03 0 0 1-.743-1.348 5.334 5.334 0 0 1-.262-1.703v-.258zm.91.258c0 .464.06.905.182 1.324.122.42.299.787.531 1.102.233.315.52.566.864.754a2.43 2.43 0 0 0 1.183.281 2.42 2.42 0 0 0 1.18-.281c.34-.188.628-.439.86-.754.233-.315.41-.682.53-1.102.122-.419.183-.86.183-1.324v-.258c0-.453-.06-.889-.182-1.308a3.5 3.5 0 0 0-.53-1.106 2.633 2.633 0 0 0-.87-.761 2.425 2.425 0 0 0-1.186-.285c-.44 0-.83.095-1.171.285-.342.19-.628.444-.861.761a3.5 3.5 0 0 0-.53 1.106 4.66 4.66 0 0 0-.183 1.308v.258zm12.08-3.562a3.292 3.292 0 0 0-.615-.055 2.36 2.36 0 0 0-.834.14 2.08 2.08 0 0 0-.656.395c-.19.17-.348.37-.477.602a3.394 3.394 0 0 0-.307.77V25h-.903v-8.453h.887l.016 1.344c.222-.464.524-.83.906-1.098.381-.268.85-.402 1.406-.402.111 0 .225.01.341.03.117.022.203.045.258.071l-.022.852zm4.466 7.812a3.513 3.513 0 0 1-1.479-.308 3.468 3.468 0 0 1-1.164-.86 3.975 3.975 0 0 1-.762-1.308 4.878 4.878 0 0 1-.273-1.664v-.336c0-.651.095-1.241.284-1.77.19-.528.447-.979.77-1.351.324-.373.696-.66 1.119-.864a3.048 3.048 0 0 1 1.338-.304c.52 0 .983.096 1.388.289.404.192.744.46 1.02.804.275.344.483.753.625 1.227.142.474.212.992.212 1.555v.57H64.44v.18c0 .463.069.9.205 1.308.137.41.329.765.577 1.067.247.302.543.54.887.714.343.175.725.262 1.145.262.485 0 .913-.091 1.285-.273.372-.183.709-.474 1.012-.875l.569.445a4.02 4.02 0 0 1-.474.578 2.89 2.89 0 0 1-.626.477 3.309 3.309 0 0 1-.803.32 3.952 3.952 0 0 1-1.001.117zm-.167-7.968a2.25 2.25 0 0 0-.955.203 2.382 2.382 0 0 0-.778.578c-.225.25-.41.55-.553.902a4.433 4.433 0 0 0-.292 1.168h4.921v-.102a3.876 3.876 0 0 0-.167-1.027 2.77 2.77 0 0 0-.443-.879 2.202 2.202 0 0 0-.725-.613 2.112 2.112 0 0 0-1.008-.23zm9.615-.641l.03 1.375a3.6 3.6 0 0 1 .474-.629c.18-.19.38-.352.603-.484a2.95 2.95 0 0 1 .728-.309c.263-.073.546-.11.85-.11.6 0 1.116.13 1.546.391.43.26.736.677.918 1.25a3.46 3.46 0 0 1 .473-.652 3 3 0 0 1 .63-.52 3.157 3.157 0 0 1 1.695-.468c.424 0 .803.058 1.137.175.334.118.615.302.845.555.23.253.406.574.527.965.122.39.182.86.182 1.406V25h-.91v-5.516c0-.448-.048-.819-.144-1.113a1.714 1.714 0 0 0-.41-.703 1.427 1.427 0 0 0-.632-.363 3.028 3.028 0 0 0-.808-.102c-.384.005-.72.077-1.008.215a2.384 2.384 0 0 0-1.198 1.23 2.44 2.44 0 0 0-.198.758V25h-.91v-5.586c0-.422-.047-.773-.144-1.055a1.689 1.689 0 0 0-.409-.68 1.512 1.512 0 0 0-.633-.366 2.853 2.853 0 0 0-.815-.11c-.344 0-.647.056-.91.168a2.248 2.248 0 0 0-.686.45 2.51 2.51 0 0 0-.482.64 4.13 4.13 0 0 0-.303.742V25h-.91v-8.453h.872zm12.435 4.101c0-.614.088-1.182.262-1.703.175-.52.42-.97.74-1.347a3.393 3.393 0 0 1 1.152-.887c.45-.214.95-.32 1.501-.32a3.51 3.51 0 0 1 1.52.32c.453.213.839.51 1.157.887a4 4 0 0 1 .736 1.347c.171.521.257 1.089.257 1.703v.258c0 .615-.086 1.183-.257 1.703-.172.521-.417.97-.736 1.348a3.35 3.35 0 0 1-1.153.883c-.45.21-.952.316-1.508.316-.557 0-1.06-.105-1.51-.316a3.388 3.388 0 0 1-1.156-.883 4.03 4.03 0 0 1-.743-1.348 5.334 5.334 0 0 1-.262-1.703v-.258zm.91.258c0 .464.061.905.182 1.324.122.42.299.787.531 1.102.233.315.52.566.865.754a2.43 2.43 0 0 0 1.183.281c.444 0 .837-.094 1.179-.281.34-.188.628-.439.86-.754a3.43 3.43 0 0 0 .531-1.102c.121-.419.182-.86.182-1.324v-.258c0-.453-.06-.889-.182-1.308a3.5 3.5 0 0 0-.53-1.106 2.633 2.633 0 0 0-.869-.761 2.425 2.425 0 0 0-1.187-.285c-.44 0-.83.095-1.171.285-.341.19-.628.444-.86.761a3.5 3.5 0 0 0-.532 1.106c-.12.42-.182.855-.182 1.308v.258zm12.08-3.562a3.292 3.292 0 0 0-.615-.055 2.36 2.36 0 0 0-.834.14 2.08 2.08 0 0 0-.656.395c-.19.17-.348.37-.477.602a3.394 3.394 0 0 0-.307.77V25h-.903v-8.453h.888l.015 1.344c.222-.464.524-.83.906-1.098.381-.268.85-.402 1.406-.402.112 0 .225.01.342.03.116.022.202.045.257.071l-.022.852zm4.466 7.812a3.513 3.513 0 0 1-1.479-.308 3.468 3.468 0 0 1-1.164-.86 3.975 3.975 0 0 1-.762-1.308 4.878 4.878 0 0 1-.273-1.664v-.336c0-.651.095-1.241.285-1.77.19-.528.446-.979.77-1.351.323-.373.696-.66 1.118-.864a3.048 3.048 0 0 1 1.338-.304c.52 0 .983.096 1.388.289.404.192.744.46 1.02.804.275.344.484.753.625 1.227.142.474.213.992.213 1.555v.57h-5.854v.18c0 .463.068.9.204 1.308.137.41.329.765.577 1.067.247.302.543.54.887.714.344.175.725.262 1.145.262.485 0 .914-.091 1.285-.273.372-.183.71-.474 1.012-.875l.57.445a4.02 4.02 0 0 1-.475.578c-.18.182-.388.341-.625.477a3.309 3.309 0 0 1-.804.32 3.952 3.952 0 0 1-1.001.117zm-.167-7.968a2.25 2.25 0 0 0-.955.203 2.382 2.382 0 0 0-.778.578 3.07 3.07 0 0 0-.553.902 4.473 4.473 0 0 0-.292 1.168h4.921v-.102a3.876 3.876 0 0 0-.167-1.027 2.77 2.77 0 0 0-.443-.879 2.202 2.202 0 0 0-.724-.613 2.112 2.112 0 0 0-1.009-.23z" vector-effect="non-scaling-stroke" stroke="#FFF" stroke-width=".5" fill="#FFF"/></svg>