<svg xmlns="http://www.w3.org/2000/svg" width="240" height="45" viewBox="0 0 240 45">
  <g fill="none" fill-rule="evenodd">
    <rect width="240" height="45" fill="#0E0C15"/>
    <g transform="translate(1 10)">
      <path fill="#FFF" d="M78.3155635,8.52867531 C78.1213556,8.52867531 78.0325469,8.6227632 78.0325469,8.78545684 L78.0325469,11.767847 C78.0325469,11.958963 78.1350184,12.0412899 78.309708,12.0412899 L79.6447654,12.0373696 L79.6447654,21.7705659 L78.3262986,21.7705659 C78.1818625,21.7705659 78.0657282,21.8881758 78.0657282,22.0332279 L78.0657282,25.0244388 C78.0657282,25.1665507 78.1818625,25.2841606 78.3262986,25.2841606 L84.540952,25.2841606 C84.685388,25.2841606 84.8015224,25.1665507 84.8015224,25.0244388 L84.8015224,22.0332279 C84.8015224,21.8881758 84.685388,21.7705659 84.540952,21.7705659 L83.2507868,21.7705659 L83.2459072,8.78937717 C83.2459072,8.64628517 83.1248933,8.52867531 82.9824091,8.52867531 L78.3155635,8.52867531 Z M1.40727548,4.71419538 C1.26381536,4.71419538 1.14768097,4.8180841 1.14768097,4.97489725 L1.14768097,7.96316788 C1.14768097,8.10822004 1.26381536,8.22484983 1.40727548,8.22484983 L5.36365189,8.22484983 L5.36365189,21.2815049 C5.36365189,23.1622826 4.95474175,24.144325 3.94368946,24.7068922 C3.16393003,25.1440089 2.06504501,25.3312046 0.530900041,25.3312046 L0.260570425,25.3312046 C0.0995437578,25.3312046 0,25.4311729 0,25.5928865 L0,28.4635473 C0,28.6282011 0.107351111,28.7262093 0.260570425,28.7262093 L0.93200283,28.7271894 C3.98175031,28.7271894 6.09851904,28.006829 7.34671969,26.8081884 C8.4504843,25.7506797 8.96869739,24.4265887 8.96869739,22.5418906 L8.96869739,4.95921593 C8.96869739,4.8014227 8.86329812,4.71419538 8.69641594,4.71419538 L1.40727548,4.71419538 Z M58.876229,4.71125514 C58.7327689,4.71125514 58.6019958,4.828865 58.6019958,4.97293709 L58.6019958,18.4275055 C58.6019958,19.7290547 58.2897016,20.7110971 57.7256203,21.2981663 C57.1908166,21.8538729 56.4266719,22.1733797 55.4868617,22.1733797 L55.2399541,22.1733797 C54.3089272,22.1733797 53.5603972,21.8969965 53.0324249,21.3706924 C52.4644399,20.8032248 52.1540976,19.7868795 52.1540976,18.3794815 L52.1540976,4.97293709 C52.1540976,4.828865 52.0369873,4.71125514 51.8945031,4.71125514 L48.804743,4.71125514 C48.6612828,4.71125514 48.5471003,4.828865 48.5471003,4.97293709 L48.5471003,18.5255138 C48.5471003,21.2658236 49.2165809,22.5771736 50.2383683,23.5944989 C51.1274306,24.4795131 52.319028,24.9969965 53.5525898,25.2126146 L53.5525898,30.7383181 C53.5525898,30.8902308 53.6579891,31 53.8141362,31 L56.8560763,31 C57.0180789,31 57.1156708,30.893171 57.1156708,30.7383181 L57.1156708,25.205754 C58.4273062,24.9519127 59.6296387,24.335441 60.5099178,23.4278849 C61.5658623,22.3341132 62.2089931,20.7326589 62.2089931,18.5157129 L62.2089931,4.97293709 C62.2089931,4.828865 62.1084734,4.71125514 61.9630615,4.71125514 L58.876229,4.71125514 Z M87.6307122,10.0085994 L87.6307122,10.4653177 C87.6307122,13.9828328 89.1687608,14.867847 92.9885086,16.3497313 C96.522312,17.7189061 97.1781297,18.1609232 97.1781297,19.982896 C97.1781297,21.4030351 96.0450875,22.4938666 94.1264303,22.4938666 C91.8222851,22.4938666 90.8522214,21.2903256 90.8522214,19.0714195 C90.8522214,18.8724629 90.7234001,18.7685741 90.4550223,18.7685741 L87.7000024,18.7685741 C87.4599263,18.7685741 87.3633103,18.897945 87.3633103,19.0880809 L87.3633103,20.0132785 C87.3633103,23.2446095 89.4185961,25.646791 93.9751629,25.646791 C98.2721351,25.646791 100.870032,23.1946254 100.870032,19.9436927 L100.870032,19.2968384 C100.870032,16.3164085 99.4246956,15.2030351 95.3131481,13.5594372 C91.9716008,12.221625 91.2835777,11.8844768 91.2835777,9.9331331 C91.2835777,8.59336073 92.2028936,7.50840974 93.9546686,7.50840974 C95.7864689,7.50840974 96.6355186,8.56297819 96.6355186,10.3829908 C96.6355186,10.6564338 96.8228951,10.7711034 97.1586113,10.7711034 L99.8336058,10.7711034 C100.00244,10.7711034 100.104911,10.6868163 100.104911,10.4849194 L100.104911,9.92725261 C100.104911,6.39209611 97.5587381,4.36724629 93.9117281,4.36724629 C90.0597751,4.36724629 87.6307122,6.79785014 87.6307122,10.0085994 Z M16.1212092,12.3392349 C16.1212092,10.6926968 16.4100812,9.62146696 17.0229585,8.90404679 C17.5694732,8.26601328 18.3345939,7.86613974 19.3973699,7.86613974 L19.4695879,7.86613974 C20.3820724,7.86613974 21.2408813,8.23465065 21.847903,8.91286753 C22.4549247,9.59010433 22.7613634,10.5946886 22.7613634,12.3539361 L22.7613634,13.2036674 L16.1212092,13.2036674 L16.1212092,12.3392349 Z M14.4035914,6.44306039 C13.152463,7.79851407 12.5112841,9.61656655 12.5112841,12.8469175 L12.5112841,17.538571 C12.5112841,20.6836548 13.1553907,22.5026873 14.4348208,23.822858 C15.6332496,25.0607019 17.2854808,25.6389504 19.2109693,25.6389504 C22.2938981,25.6389504 24.4994754,24.0766993 25.8491717,21.3559911 C25.9272452,21.1815365 25.8901603,21.0864685 25.7193744,21.0002213 L23.3225169,19.8202023 C23.1683217,19.7437559 23.0629224,19.7937401 22.9731378,19.9534935 C22.0499183,21.5980715 20.8378266,22.3027506 19.408105,22.3027506 C18.5073316,22.3027506 17.7158611,21.9754031 17.1469002,21.4059753 C16.5057213,20.7620613 16.1212092,19.6751502 16.1212092,17.9139425 L16.1212092,16.7006007 L26.0911996,16.7006007 C26.2697929,16.7006007 26.3517701,16.6133734 26.3517701,16.4438192 L26.352746,12.6450206 C26.352746,9.38330699 25.6666748,7.61719886 24.600971,6.47638318 C23.3166614,5.10622826 21.4702223,4.36038571 19.4178642,4.36038571 C17.5577622,4.36038571 15.6342255,5.10622826 14.4035914,6.44306039 Z M79.4612926,1.52990831 C79.3012419,1.52990831 79.1987703,1.64751818 79.1987703,1.79159026 L79.1987703,5.38163136 C79.1987703,5.54726525 79.3168566,5.64233323 79.4612926,5.64233323 L82.8565155,5.64233323 C83.0136385,5.64233323 83.11611,5.54824534 83.11611,5.38163136 L83.11611,1.79159026 C83.11611,1.63673727 83.031205,1.52990831 82.8565155,1.52990831 L79.4612926,1.52990831 Z M104.862517,0.144072083 C104.705394,0.144072083 104.590236,0.242080304 104.590236,0.404773949 L104.590236,21.7784066 L103.249323,21.7784066 C103.104887,21.7784066 102.988753,21.8950364 102.988753,22.0391084 L102.988753,25.0283592 C102.988753,25.1714512 103.104887,25.2920013 103.249323,25.2920013 L109.483495,25.2920013 C109.628907,25.2920013 109.745041,25.1714512 109.745041,25.0283592 L109.745041,22.0391084 C109.745041,21.8950364 109.628907,21.7784066 109.483495,21.7784066 L108.198209,21.7784066 L108.197233,12.4215618 C108.197233,10.7005375 108.490009,9.67733165 109.212189,8.90600696 C109.780174,8.29933607 110.642887,7.89260196 111.755435,7.89260196 C112.7011,7.89260196 113.511113,8.20916851 114.03323,8.80309832 C114.645131,9.49503636 114.929124,10.5790073 114.929124,12.3539361 L114.929124,21.7784066 L113.609681,21.7784066 C113.465245,21.7784066 113.350087,21.8950364 113.350087,22.0391084 L113.350087,25.0283592 C113.350087,25.1714512 113.465245,25.2920013 113.609681,25.2920013 L119.737478,25.2920013 C119.88289,25.2920013 120,25.1714512 120,25.0283592 L120,22.0391084 C120,21.8950364 119.88289,21.7784066 119.737478,21.7784066 L118.534169,21.7784066 L118.534169,11.374834 C118.534169,8.82564021 117.97204,7.3065128 116.892673,6.11277268 C115.900163,5.06212457 114.359187,4.37116661 112.65816,4.37116661 C110.893698,4.37116661 109.168273,5.06212457 108.197233,6.12355359 L108.197233,0.404773949 C108.197233,0.261681948 108.081099,0.144072083 107.936663,0.144072083 L104.862517,0.144072083 Z M30.2378803,0.135251344 C30.0797814,0.135251344 29.976334,0.24502055 29.976334,0.395953209 L29.976334,20.2680999 C29.976334,22.3713563 30.4389197,23.4210243 31.2489326,24.2109706 C32.2082612,25.1489093 33.7931539,25.6183686 35.5761583,25.6183686 L36.5852587,25.6183686 C36.7414058,25.6183686 36.8458292,25.5174202 36.8458292,25.3596269 L36.8458292,22.427221 C36.8458292,22.2410054 36.7404299,22.1674992 36.5852587,22.1674992 L36.0475273,22.1674992 C35.1955498,22.1674992 34.601215,21.9754031 34.2127992,21.5784698 C33.7414302,21.0982295 33.5823554,20.4082517 33.5823554,19.0880809 L33.5823554,0.395953209 C33.5823554,0.242080304 33.4837875,0.135251344 33.321785,0.135251344 L30.2378803,0.135251344 Z M39.6769707,0.135251344 C39.5208237,0.135251344 39.4164003,0.24502055 39.4164003,0.395953209 L39.4164003,20.2680999 C39.4164003,22.3713563 39.878986,23.4210243 40.688999,24.2109706 C41.6493034,25.1489093 43.2341962,25.6183686 45.0162247,25.6183686 L46.026301,25.6183686 C46.1814722,25.6183686 46.2858955,25.5174202 46.2858955,25.3596269 L46.2858955,22.427221 C46.2858955,22.2410054 46.1814722,22.1674992 46.026301,22.1674992 L45.4885695,22.1674992 C44.6356162,22.1674992 44.0422573,21.9754031 43.6518896,21.5784698 C43.1824725,21.0982295 43.0224217,20.4082517 43.0224217,19.0880809 L43.0224217,0.395953209 C43.0224217,0.242080304 42.9238539,0.135251344 42.7628272,0.135251344 L39.6769707,0.135251344 Z M74.3064874,0 C71.8442433,0 69.9050919,0.657635156 68.6744578,1.85921593 C67.22229,3.27837496 66.7977651,4.97979766 66.7977651,7.71128675 L66.7977651,21.7705659 L65.6969283,21.7705659 C65.5524923,21.7705659 65.4373338,21.8881758 65.4373338,22.0332279 L65.4373338,25.0244388 C65.4373338,25.1665507 65.5524923,25.2841606 65.6969283,25.2841606 L71.8061824,25.2841606 C71.9515944,25.2841606 72.0667529,25.1665507 72.0667529,25.0244388 L72.0667529,22.0332279 C72.0667529,21.8881758 71.9515944,21.7705659 71.8061824,21.7705659 L70.4037866,21.7705659 L70.4037866,12.0412899 L75.1321151,12.0412899 C75.3058287,12.0412899 75.4083002,11.958963 75.4083002,11.767847 L75.4083002,8.78545684 C75.4083002,8.6227632 75.3214434,8.52867531 75.1252836,8.52867531 L70.4037866,8.52867531 L70.4037866,7.85633892 C70.4037866,6.36171356 70.6058018,5.31498577 71.3357894,4.56032248 C72.0882231,3.78605754 73.2046747,3.51065444 74.8471467,3.51065444 L75.639593,3.51065444 C75.8240418,3.51065444 75.9792129,3.41068606 75.9792129,3.25191274 L75.9792129,0.263642112 C75.9792129,0.0823269048 75.8835728,0 75.6981482,0 L74.3064874,0 Z"/>
      <path fill="#B3B3B3" d="M136.916,25.432 C135.451993,25.432 134.108006,25.1440029 132.884,24.568 C131.659994,23.9919971 130.610004,23.1700053 129.734,22.102 C128.857996,21.0339947 128.180002,19.7380076 127.7,18.214 C127.219998,16.6899924 126.98,14.9800095 126.98,13.084 C126.98,11.2119906 127.225998,9.52000756 127.718,8.008 C128.210002,6.49599244 128.899996,5.20600534 129.788,4.138 C130.676004,3.06999466 131.737994,2.25400282 132.974,1.69 C134.210006,1.12599718 135.583992,0.844 137.096,0.844 C138.488007,0.844 139.711995,1.13199712 140.768,1.708 C141.824005,2.28400288 142.663997,2.94399628 143.288,3.688 L142.316,4.804 C141.667997,4.05999628 140.912004,3.46600222 140.048,3.022 C139.183996,2.57799778 138.212005,2.356 137.132,2.356 C135.835994,2.356 134.666005,2.60799748 133.622,3.112 C132.577995,3.61600252 131.690004,4.32999538 130.958,5.254 C130.225996,6.17800462 129.668002,7.2999934 129.284,8.62 C128.899998,9.9400066 128.708,11.4279917 128.708,13.084 C128.708,14.7400083 128.899998,16.2339933 129.284,17.566 C129.668002,18.8980067 130.219996,20.0319953 130.94,20.968 C131.660004,21.9040047 132.529995,22.6299974 133.55,23.146 C134.570005,23.6620026 135.715994,23.92 136.988,23.92 C138.212006,23.92 139.303995,23.6740025 140.264,23.182 C141.224005,22.6899975 142.135996,21.9640048 143,21.004 L143.972,22.048 C143.059995,23.1040053 142.040006,23.931997 140.912,24.532 C139.783994,25.132003 138.452008,25.432 136.916,25.432 Z M148.116,25 L148.116,7.72 L149.484,7.72 L149.628,10.924 L149.736,10.924 C150.312003,9.8439946 151.013996,8.96800336 151.842,8.296 C152.670004,7.62399664 153.599995,7.288 154.632,7.288 C154.968002,7.288 155.267999,7.31199976 155.532,7.36 C155.796001,7.40800024 156.071999,7.50399928 156.36,7.648 L156,9.088 C155.711999,8.9679994 155.460001,8.89000018 155.244,8.854 C155.027999,8.81799982 154.752002,8.8 154.416,8.8 C153.647996,8.8 152.838004,9.1299967 151.986,9.79 C151.133996,10.4500033 150.372003,11.5959918 149.7,13.228 L149.7,25 L148.116,25 Z M165.22,25.432 C164.115994,25.432 163.078005,25.228002 162.106,24.82 C161.133995,24.411998 160.288004,23.8180039 159.568,23.038 C158.847996,22.2579961 158.278002,21.3100056 157.858,20.194 C157.437998,19.0779944 157.228,17.8120071 157.228,16.396 C157.228,14.9799929 157.437998,13.7080056 157.858,12.58 C158.278002,11.4519944 158.841996,10.4980039 159.55,9.718 C160.258004,8.9379961 161.061996,8.3380021 161.962,7.918 C162.862005,7.4979979 163.791995,7.288 164.752,7.288 C166.81601,7.288 168.435994,7.98399304 169.612,9.376 C170.788006,10.768007 171.376,12.7359873 171.376,15.28 L171.376,15.928 C171.376,16.1440011 171.352,16.3599989 171.304,16.576 L158.848,16.576 C158.872,17.6560054 159.039998,18.6579954 159.352,19.582 C159.664002,20.5060046 160.101997,21.2979967 160.666,21.958 C161.230003,22.6180033 161.907996,23.1339981 162.7,23.506 C163.492004,23.8780019 164.379995,24.064 165.364,24.064 C166.300005,24.064 167.145996,23.9260014 167.902,23.65 C168.658004,23.3739986 169.359997,22.9960024 170.008,22.516 L170.656,23.74 C169.959997,24.148002 169.198004,24.5319982 168.37,24.892 C167.541996,25.2520018 166.492006,25.432 165.22,25.432 Z M158.848,15.28 L169.864,15.28 C169.864,13.0479888 169.408005,11.3860055 168.496,10.294 C167.583995,9.20199454 166.348008,8.656 164.788,8.656 C164.043996,8.656 163.336003,8.8059985 162.664,9.106 C161.991997,9.4060015 161.386003,9.84399712 160.846,10.42 C160.305997,10.9960029 159.862002,11.6919959 159.514,12.508 C159.165998,13.3240041 158.944,14.2479948 158.848,15.28 Z M178.796,25.432 C178.099997,25.432 177.452003,25.336001 176.852,25.144 C176.251997,24.951999 175.724002,24.6640019 175.268,24.28 C174.811998,23.8959981 174.452001,23.404003 174.188,22.804 C173.923999,22.203997 173.792,21.4960041 173.792,20.68 C173.792,18.7599904 174.685991,17.302005 176.474,16.306 C178.262009,15.309995 181.087981,14.5960022 184.952,14.164 C184.952,13.5159968 184.904,12.8620033 184.808,12.202 C184.712,11.5419967 184.508002,10.9540026 184.196,10.438 C183.883998,9.92199742 183.464003,9.50200162 182.936,9.178 C182.407997,8.85399838 181.712004,8.692 180.848,8.692 C179.695994,8.692 178.640005,8.91999772 177.68,9.376 C176.719995,9.83200228 175.940003,10.2759978 175.34,10.708 L174.62,9.52 C174.932002,9.30399892 175.309998,9.06400132 175.754,8.8 C176.198002,8.53599868 176.695997,8.29600108 177.248,8.08 C177.800003,7.86399892 178.399997,7.67800078 179.048,7.522 C179.696003,7.36599922 180.367997,7.288 181.064,7.288 C182.072005,7.288 182.923997,7.46199826 183.62,7.81 C184.316003,8.15800174 184.879998,8.631997 185.312,9.232 C185.744002,9.832003 186.055999,10.533996 186.248,11.338 C186.440001,12.142004 186.536,13.0119953 186.536,13.948 L186.536,25 L185.168,25 L185.024,22.768 L184.916,22.768 C184.027996,23.4640035 183.074005,24.0819973 182.054,24.622 C181.033995,25.1620027 179.948006,25.432 178.796,25.432 Z M179.084,24.064 C180.092005,24.064 181.051995,23.8240024 181.964,23.344 C182.876005,22.8639976 183.871995,22.1680046 184.952,21.256 L184.952,15.388 C183.175991,15.6040011 181.676006,15.8679984 180.452,16.18 C179.227994,16.4920016 178.244004,16.8639978 177.5,17.296 C176.755996,17.7280022 176.222002,18.2199972 175.898,18.772 C175.573998,19.3240028 175.412,19.9359966 175.412,20.608 C175.412,21.2320031 175.507999,21.7599978 175.7,22.192 C175.892001,22.6240022 176.155998,22.9779986 176.492,23.254 C176.828002,23.5300014 177.217998,23.7339993 177.662,23.866 C178.106002,23.9980007 178.579997,24.064 179.084,24.064 Z M196.512,25.432 C195.671996,25.432 194.976003,25.3060013 194.424,25.054 C193.871997,24.8019987 193.428002,24.4480023 193.092,23.992 C192.755998,23.5359977 192.522001,22.9840032 192.39,22.336 C192.257999,21.6879968 192.192,20.9800038 192.192,20.212 L192.192,9.088 L189.492,9.088 L189.492,7.864 L192.228,7.72 L192.444,2.716 L193.812,2.716 L193.812,7.72 L198.816,7.72 L198.816,9.088 L193.812,9.088 L193.812,20.356 C193.812,20.9080028 193.854,21.4059978 193.938,21.85 C194.022,22.2940022 194.171999,22.6779984 194.388,23.002 C194.604001,23.3260016 194.897998,23.5779991 195.27,23.758 C195.642002,23.9380009 196.127997,24.028 196.728,24.028 C197.064002,24.028 197.429998,23.9740005 197.826,23.866 C198.222002,23.7579995 198.575998,23.6320007 198.888,23.488 L199.32,24.784 C198.815997,24.976001 198.312003,25.1319994 197.808,25.252 C197.303997,25.3720006 196.872002,25.432 196.512,25.432 Z M202.528,25 L202.528,7.72 L204.112,7.72 L204.112,25 L202.528,25 Z M203.356,3.544 C202.947998,3.544 202.606001,3.41200132 202.33,3.148 C202.053999,2.88399868 201.916,2.54800204 201.916,2.14 C201.916,1.68399772 202.053999,1.33000126 202.33,1.078 C202.606001,0.82599874 202.947998,0.7 203.356,0.7 C203.764002,0.7 204.105999,0.82599874 204.382,1.078 C204.658001,1.33000126 204.796,1.68399772 204.796,2.14 C204.796,2.54800204 204.658001,2.88399868 204.382,3.148 C204.105999,3.41200132 203.764002,3.544 203.356,3.544 Z M213.872,25 L207.392,7.72 L209.12,7.72 L213.008,18.556 C213.272001,19.3960042 213.559998,20.2359958 213.872,21.076 C214.184002,21.9160042 214.471999,22.731996 214.736,23.524 L214.88,23.524 C215.168001,22.731996 215.461999,21.9160042 215.762,21.076 C216.062002,20.2359958 216.355999,19.3960042 216.644,18.556 L220.532,7.72 L222.152,7.72 L215.744,25 L213.872,25 Z M231.948,25.432 C230.843994,25.432 229.806005,25.228002 228.834,24.82 C227.861995,24.411998 227.016004,23.8180039 226.296,23.038 C225.575996,22.2579961 225.006002,21.3100056 224.586,20.194 C224.165998,19.0779944 223.956,17.8120071 223.956,16.396 C223.956,14.9799929 224.165998,13.7080056 224.586,12.58 C225.006002,11.4519944 225.569996,10.4980039 226.278,9.718 C226.986004,8.9379961 227.789996,8.3380021 228.69,7.918 C229.590005,7.4979979 230.519995,7.288 231.48,7.288 C233.54401,7.288 235.163994,7.98399304 236.34,9.376 C237.516006,10.768007 238.104,12.7359873 238.104,15.28 L238.104,15.928 C238.104,16.1440011 238.08,16.3599989 238.032,16.576 L225.576,16.576 C225.6,17.6560054 225.767998,18.6579954 226.08,19.582 C226.392002,20.5060046 226.829997,21.2979967 227.394,21.958 C227.958003,22.6180033 228.635996,23.1339981 229.428,23.506 C230.220004,23.8780019 231.107995,24.064 232.092,24.064 C233.028005,24.064 233.873996,23.9260014 234.63,23.65 C235.386004,23.3739986 236.087997,22.9960024 236.736,22.516 L237.384,23.74 C236.687997,24.148002 235.926004,24.5319982 235.098,24.892 C234.269996,25.2520018 233.220006,25.432 231.948,25.432 Z M225.576,15.28 L236.592,15.28 C236.592,13.0479888 236.136005,11.3860055 235.224,10.294 C234.311995,9.20199454 233.076008,8.656 231.516,8.656 C230.771996,8.656 230.064003,8.8059985 229.392,9.106 C228.719997,9.4060015 228.114003,9.84399712 227.574,10.42 C227.033997,10.9960029 226.590002,11.6919959 226.242,12.508 C225.893998,13.3240041 225.672,14.2479948 225.576,15.28 Z"/>
    </g>
  </g>
</svg>
