<?xml version="1.0" encoding="UTF-8"?>
<svg width="288px" height="32px" viewBox="0 0 288 32" version="1.1" xmlns="http://www.w3.org/2000/svg" xmlns:xlink="http://www.w3.org/1999/xlink">
    <!-- Generator: Sketch 48.2 (47327) - http://www.bohemiancoding.com/sketch -->
    <title>logo.svg</title>
    <desc>Created with Sketch.</desc>
    <defs></defs>
    <g id="Symbols" stroke="none" stroke-width="1" fill="none" fill-rule="evenodd">
        <g id="logo.svg">
            <path d="M125.898002,23.3840035 C128.382002,23.3840035 130.380003,22.2860033 131.712003,20.486003 C131.928003,20.198003 132.144003,20.198003 132.432003,20.378003 L133.170003,20.8280031 C133.458003,21.0080031 133.530003,21.2780032 133.332003,21.5660032 C131.712003,23.9240036 129.048002,25.3280038 125.880002,25.3280038 C120.606001,25.3280038 116.79,21.3320032 116.79,16.0760023 C116.79,10.8020014 120.606001,6.82400079 125.880002,6.82400079 C129.048002,6.82400079 131.712003,8.22800102 133.332003,10.5680014 C133.530003,10.8560015 133.458003,11.1440015 133.170003,11.3240015 L132.432003,11.7740016 C132.144003,11.9540016 131.928003,11.9540016 131.712003,11.6480016 C130.380003,9.84800129 128.382002,8.75000111 125.898002,8.75000111 C121.848001,8.75000111 118.860001,11.7740016 118.860001,16.0760023 C118.860001,20.360003 121.848001,23.3840035 125.898002,23.3840035 Z M149.118002,6.82400079 C153.204003,6.82400079 155.958003,8.76800111 155.958003,13.0700018 C155.958003,13.4660019 155.760003,13.6280019 155.418003,13.6460019 L154.320003,13.7360019 C153.996003,13.7720019 153.834003,13.5920019 153.816003,13.2680018 C153.780003,10.3160014 152.016003,8.82200112 148.992002,8.82200112 C144.348001,8.82200112 141.990001,12.7280018 141.990001,14.132002 L141.990001,24.3200037 C141.990001,24.6440037 141.774001,24.8600037 141.450001,24.8600037 L140.370001,24.8600037 C140.046001,24.8600037 139.830001,24.6440037 139.830001,24.3200037 L139.830001,7.76000094 C139.830001,7.43600089 140.046001,7.22000086 140.370001,7.22000086 L141.306001,7.22000086 C141.630001,7.22000086 141.810001,7.43600089 141.846001,7.76000094 L141.990001,10.2800014 L142.404001,10.2800014 C143.556001,8.55200107 146.022002,6.82400079 149.118002,6.82400079 Z M169.386002,6.82400079 C174.552003,6.82400079 177.648003,10.9280015 177.648003,15.3920022 C177.648003,16.5620024 177.522003,17.1020025 176.658003,17.1020025 L162.816001,17.1020025 C163.266001,20.6660031 165.930001,23.3840035 169.890002,23.3840035 C172.212002,23.3840035 173.814003,22.4300033 175.002003,21.3320032 C175.236003,21.1160031 175.470003,21.0620031 175.704003,21.2780032 L176.208003,21.7820032 C176.496003,22.0880033 176.550003,22.3400033 176.262003,22.6280034 C174.516003,24.3560037 172.338002,25.3280038 169.638002,25.3280038 C164.238001,25.3280038 160.692,21.2600032 160.692,16.0760023 C160.692,10.8920015 164.238001,6.82400079 169.386002,6.82400079 Z M169.368002,8.76800111 C165.750001,8.76800111 163.176001,11.5760016 162.798001,15.1760022 L175.740003,15.1760022 C175.668003,11.6840016 173.076002,8.76800111 169.368002,8.76800111 Z M200.256003,23.0780035 C200.634003,23.1140035 200.850003,23.2580035 200.850003,23.7620036 L200.850003,24.3200037 C200.850003,24.7160037 200.778003,24.9680038 200.058003,25.0040038 C197.646003,25.1660038 196.818003,23.9420036 196.782003,22.2860033 C194.226002,24.6620037 191.004002,25.2920038 188.628001,25.2920038 C184.416001,25.2920038 182.832,23.1500035 182.832,20.324003 C182.832,17.5520025 184.488001,15.6980022 188.268001,15.1400022 L194.496002,14.186002 C196.116003,13.952002 196.584003,13.7900019 196.674003,13.3580019 L196.674003,13.2680018 C196.674003,10.0100013 194.946002,8.76800111 191.580002,8.76800111 C188.574001,8.76800111 186.342001,9.59600125 186.036001,12.0080016 C186.000001,12.3140017 185.820001,12.4580017 185.496001,12.4580017 L184.398001,12.4580017 C184.074001,12.4580017 183.876001,12.2780017 183.912001,11.9180016 C184.290001,8.17400101 187.314001,6.82400079 191.562002,6.82400079 C196.890003,6.82400079 198.816003,9.39800121 198.816003,13.0340018 L198.816003,21.6560032 C198.816003,22.5740034 199.302003,23.0060034 200.256003,23.0780035 Z M185.046001,20.234003 C185.046001,22.0700033 186.126001,23.2940035 188.916001,23.2940035 C191.436002,23.2940035 194.244002,22.6280034 196.674003,20.234003 L196.674003,15.3740022 C196.602003,15.6980022 196.314003,15.8420023 195.126002,16.0040023 L189.114001,16.9040024 C185.838001,17.4080025 185.046001,18.5420027 185.046001,20.234003 Z M222.252003,22.2320033 C222.486003,22.4840034 222.468003,22.7360034 222.234003,22.9340034 C221.388003,23.8160036 219.390003,25.1480038 216.510002,25.1480038 C213.108002,25.1480038 209.868001,23.5640035 209.868001,18.0740026 L209.868001,9.23600119 L204.774,9.23600119 C204.45,9.23600119 204.234,9.02000115 204.234,8.6960011 L204.234,7.76000094 C204.234,7.43600089 204.45,7.22000086 204.774,7.22000086 L209.868001,7.22000086 L209.868001,2.54000009 C209.868001,2.21600004 210.084001,2 210.408001,2 L211.488001,2 C211.812002,2 212.028002,2.21600004 212.028002,2.54000009 L212.028002,7.22000086 L220.164003,7.22000086 C220.488003,7.22000086 220.704003,7.43600089 220.704003,7.76000094 L220.704003,8.6960011 C220.704003,9.02000115 220.488003,9.23600119 220.164003,9.23600119 L212.028002,9.23600119 L212.028002,18.1100026 C212.028002,21.9980033 214.242002,23.1140035 216.708002,23.1140035 C218.850003,23.1140035 220.164003,22.1600033 220.902003,21.5120032 C221.154003,21.2600032 221.442003,21.2960032 221.658003,21.5480032 L222.252003,22.2320033 Z M243.540003,22.6060026 C243.864003,22.6060026 244.080003,22.8220026 244.080003,23.1460026 L244.080003,24.1000028 C244.080003,24.4240029 243.864003,24.6400029 243.540003,24.6400029 L228.330001,24.6400029 C228.006,24.6400029 227.79,24.4240029 227.79,24.1000028 L227.79,23.1460026 C227.79,22.8220026 228.006,22.6060026 228.330001,22.6060026 L235.314002,22.6060026 L235.314002,9.01600033 L229.230001,9.01600033 C228.906001,9.01600033 228.690001,8.8000003 228.690001,8.47600024 L228.690001,7.54000009 C228.690001,7.21600004 228.906001,7 229.230001,7 L236.934002,7 C237.258002,7 237.474002,7.21600004 237.474002,7.54000009 L237.474002,22.6060026 L243.540003,22.6060026 Z M236.540003,1 C236.864003,1 237.080003,1.21600004 237.080003,1.54000009 L237.080003,2.49400024 C237.080003,2.8180003 236.864003,3.03400033 236.540003,3.03400033 L233.330001,3.03400033 C233.006,3.03400033 232.79,2.8180003 232.79,2.49400024 L232.79,1.54000009 C232.79,1.21600004 233.006,1 233.330001,1 L236.540003,1 Z M262.462003,7.65200093 C262.588003,7.36400088 262.822003,7.22000086 263.110003,7.22000086 L264.208003,7.22000086 C264.604003,7.22000086 264.820003,7.43600089 264.640003,7.83200096 L257.242002,24.4280037 C257.116002,24.7160037 256.882002,24.8600037 256.594002,24.8600037 L255.226002,24.8600037 C254.938002,24.8600037 254.704002,24.7160037 254.578002,24.4280037 L247.18,7.83200096 C247,7.43600089 247.216,7.22000086 247.612,7.22000086 L248.728001,7.22000086 C249.016001,7.22000086 249.232001,7.36400088 249.376001,7.65200093 L255.910002,22.5200034 L262.462003,7.65200093 Z M278.086002,6.82400079 C283.252003,6.82400079 286.348003,10.9280015 286.348003,15.3920022 C286.348003,16.5620024 286.222003,17.1020025 285.358003,17.1020025 L271.516001,17.1020025 C271.966001,20.6660031 274.630001,23.3840035 278.590002,23.3840035 C280.912002,23.3840035 282.514003,22.4300033 283.702003,21.3320032 C283.936003,21.1160031 284.170003,21.0620031 284.404003,21.2780032 L284.908003,21.7820032 C285.196003,22.0880033 285.250003,22.3400033 284.962003,22.6280034 C283.216003,24.3560037 281.038002,25.3280038 278.338002,25.3280038 C272.938001,25.3280038 269.392,21.2600032 269.392,16.0760023 C269.392,10.8920015 272.938001,6.82400079 278.086002,6.82400079 Z M278.068002,8.76800111 C274.450001,8.76800111 271.876001,11.5760016 271.498001,15.1760022 L284.440003,15.1760022 C284.368003,11.6840016 281.776002,8.76800111 278.068002,8.76800111 Z" id="creative" fill="#4A90E2"></path>
            <path d="M66.8087358,10.9337072 C66.6459299,10.9337072 66.5708582,11.0114083 66.5708582,11.1467877 L66.5708582,13.6194773 C66.5708582,13.7790635 66.6573866,13.8472014 66.803309,13.8472014 L67.9254642,13.8442129 L67.9254642,21.9164658 L66.8192881,21.9164658 C66.6971836,21.9164658 66.5991985,22.0135923 66.5991985,22.1337302 L66.5991985,24.6144888 C66.5991985,24.7325348 66.6971836,24.8299601 66.8192881,24.8299601 L72.0393299,24.8299601 C72.1611328,24.8299601 72.2594194,24.7325348 72.2594194,24.6144888 L72.2594194,22.1337302 C72.2594194,22.0135923 72.1611328,21.9164658 72.0393299,21.9164658 L70.9566701,21.9164658 L70.9515448,11.1488796 C70.9515448,11.0311325 70.8502433,10.9337072 70.7293448,10.9337072 L66.8087358,10.9337072 Z M2.1817,7.76977616 C2.06261045,7.76977616 1.96462537,7.85674168 1.96462537,7.98614398 L1.96462537,10.4651095 C1.96462537,10.5849486 2.06261045,10.6823739 2.1817,10.6823739 L5.50716269,10.6823739 L5.50716269,21.5097302 C5.50716269,23.0709256 5.16346119,23.8849946 4.31415672,24.3517991 C3.65841045,24.714006 2.73493881,24.8691095 1.44575672,24.8691095 L1.21812985,24.8691095 C1.08336269,24.8691095 1.00015075,24.9527877 1.00015075,25.0863739 L1.00015075,27.4670175 C1.00015075,27.6047877 1.08969403,27.6854773 1.21812985,27.6854773 L1.78372985,27.6863739 C4.34611493,27.6863739 6.1249209,27.0883739 7.17290896,26.09619 C8.10180746,25.2175693 8.53716269,24.1189946 8.53716269,22.5557072 L8.53716269,7.97478766 C8.53716269,7.84120145 8.44942836,7.76977616 8.3065209,7.76977616 L2.1817,7.76977616 Z M50.4735687,7.76768421 C50.3526701,7.76768421 50.2432284,7.86510949 50.2432284,7.98494857 L50.2432284,19.1434313 C50.2432284,20.2225808 49.9812313,21.0387417 49.5081896,21.5252704 C49.0574582,21.9846037 48.4164851,22.2505808 47.6253687,22.2505808 L47.4176403,22.2505808 C46.6367746,22.2505808 46.0063537,22.0207647 45.5637627,21.584144 C45.0855955,21.1155463 44.8248045,20.2712934 44.8248045,19.1030865 L44.8248045,7.98494857 C44.8248045,7.86510949 44.7268194,7.76768421 44.6065239,7.76768421 L42.0109746,7.76768421 C41.8897746,7.76768421 41.7935985,7.86510949 41.7935985,7.98494857 L41.7935985,19.2253164 C41.7935985,21.4971785 42.3573896,22.5835003 43.2154373,23.4289486 C43.9628373,24.1626267 44.9637925,24.5929716 46.0000224,24.7719831 L46.0000224,29.3542589 C46.0000224,29.4812704 46.0886612,29.5715233 46.2204134,29.5715233 L48.7755627,29.5715233 C48.9124403,29.5715233 48.9947478,29.4824658 48.9947478,29.3542589 L48.9947478,24.7645118 C50.0945925,24.5556152 51.1085119,24.0445808 51.8462642,23.2902819 C52.7332552,22.3838681 53.2741328,21.0545808 53.2741328,19.2169486 L53.2741328,7.98494857 C53.2741328,7.86510949 53.1897149,7.76768421 53.0685149,7.76768421 L50.4735687,7.76768421 Z M74.637291,12.1607877 L74.637291,12.5394313 C74.637291,15.4571095 75.9282821,16.1916842 79.1379716,17.4208566 C82.1082761,18.5558911 82.6594045,18.9219831 82.6594045,20.4347647 C82.6594045,21.6110405 81.7063866,22.5153624 80.094909,22.5153624 C78.1587239,22.5153624 77.3443925,21.518098 77.3443925,19.6771785 C77.3443925,19.5128106 77.2349507,19.426144 77.0106403,19.426144 L74.6942731,19.426144 C74.4919716,19.426144 74.4126791,19.5334313 74.4126791,19.6918221 L74.4126791,20.4595693 C74.4126791,23.1390635 76.1390254,25.1309026 79.9685836,25.1309026 C83.5789567,25.1309026 85.7605567,23.0978221 85.7605567,20.4015923 L85.7605567,19.8657532 C85.7605567,17.3918681 84.5476522,16.468121 81.0928493,15.1062589 C78.2841448,13.9951325 77.7058821,13.7169026 77.7058821,12.0986267 C77.7058821,10.9875003 78.4792104,10.0873624 79.949891,10.0873624 C81.4905179,10.0873624 82.2035478,10.9617991 82.2035478,12.4712934 C82.2035478,12.6978221 82.3609269,12.7928566 82.6437269,12.7928566 L84.8901478,12.7928566 C85.0330552,12.7928566 85.1177746,12.7235233 85.1177746,12.556167 L85.1177746,12.0923509 C85.1177746,9.16152329 82.9789866,7.48228191 79.9146164,7.48228191 C76.677491,7.48228191 74.637291,9.49862674 74.637291,12.1607877 Z M14.5471149,14.0922589 C14.5471149,12.7289026 14.7892134,11.840121 15.3050672,11.2451095 C15.7639388,10.7164428 16.4049119,10.3844198 17.3006463,10.3844198 L17.3600403,10.3844198 C18.1273388,10.3844198 18.8497149,10.6895463 19.3589358,11.2522819 C19.8693627,11.814121 20.1259328,12.6470175 20.1259328,14.106006 L20.1259328,14.8103969 L14.5471149,14.8103969 L14.5471149,14.0922589 Z M13.1035687,9.20366122 C12.0516612,10.3285348 11.5141,11.8368336 11.5141,14.5136382 L11.5141,18.4067647 C11.5141,21.0151325 12.0546761,22.5237302 13.1297985,23.6193164 C14.1370851,24.6455693 15.5251567,25.1255233 17.1432672,25.1255233 C19.7333896,25.1255233 21.5875687,23.8282129 22.7217836,21.5718911 C22.7866045,21.4269486 22.7552493,21.3483509 22.6111358,21.2769256 L20.5998791,20.2990865 C20.4696343,20.236029 20.3797896,20.2763739 20.3047179,20.4096612 C19.5292791,21.7745118 18.5105358,22.3569716 17.3087866,22.3569716 C16.5523418,22.3569716 15.8875507,22.0871095 15.4093836,21.6131325 C14.8688075,21.0802819 14.5471149,20.1792474 14.5471149,18.7172704 L14.5471149,17.7104428 L22.9243866,17.7104428 C23.0757358,17.7104428 23.1447776,17.638121 23.1447776,17.4982589 L23.1447776,14.3468796 C23.1447776,11.6425808 22.5665149,10.1773164 21.672891,9.23085662 C20.5938493,8.09462674 19.0414642,7.47600605 17.3175299,7.47600605 C15.7545925,7.47600605 14.1370851,8.09462674 13.1035687,9.20366122 Z M67.7711,5.12853478 C67.6375388,5.12853478 67.5519149,5.22446582 67.5519149,5.34579915 L67.5519149,8.32354628 C67.5519149,8.46101754 67.6523119,8.53961524 67.7711,8.53961524 L70.6247269,8.53961524 C70.7573836,8.53961524 70.8430075,8.46191409 70.8430075,8.32354628 L70.8430075,5.34579915 C70.8430075,5.21639685 70.7709507,5.12853478 70.6247269,5.12853478 L67.7711,5.12853478 Z M89.1161687,3.97915547 C88.9847179,3.97915547 88.8885418,4.06163823 88.8885418,4.19522444 L88.8885418,21.9224428 L87.7603567,21.9224428 C87.6394582,21.9224428 87.5432821,22.0198681 87.5432821,22.1397072 L87.5432821,24.6186727 C87.5432821,24.7376152 87.6394582,24.8368336 87.7603567,24.8368336 L92.9999955,24.8368336 C93.1211955,24.8368336 93.2206881,24.7376152 93.2206881,24.6186727 L93.2206881,22.1397072 C93.2206881,22.0198681 93.1211955,21.9224428 92.9999955,21.9224428 L91.9188433,21.9224428 L91.9188433,14.1627877 C91.9188433,12.7348796 92.1642582,11.8855463 92.7726701,11.2451095 C93.2484254,10.7433394 93.9741179,10.4059371 94.9081418,10.4059371 C95.7025746,10.4059371 96.3851537,10.6677302 96.8226194,11.1602359 C97.3360612,11.7334313 97.5751448,12.6335693 97.5751448,14.106006 L97.5751448,21.9224428 L96.4665567,21.9224428 C96.3456582,21.9224428 96.2482761,22.0198681 96.2482761,22.1397072 L96.2482761,24.6186727 C96.2482761,24.7376152 96.3456582,24.8368336 96.4665567,24.8368336 L101.616351,24.8368336 C101.737852,24.8368336 101.835837,24.7376152 101.835837,24.6186727 L101.835837,22.1397072 C101.835837,22.0198681 101.737852,21.9224428 101.616351,21.9224428 L100.605145,21.9224428 L100.605145,13.2937302 C100.605145,11.1811555 100.132103,9.9197072 99.2261179,8.92961524 C98.3912851,8.05846582 97.0960731,7.48646582 95.6669985,7.48646582 C94.1839567,7.48646582 92.7349836,8.05846582 91.9188433,8.93798306 L91.9188433,4.19522444 C91.9188433,4.07628191 91.8208582,3.97915547 91.6987537,3.97915547 L89.1161687,3.97915547 Z M26.4084343,3.97168421 C26.2760791,3.97168421 26.1892493,4.06283363 26.1892493,4.18805202 L26.1892493,20.6696612 C26.1892493,22.4149486 26.5784761,23.2852014 27.2580403,23.942075 C28.0648343,24.7169946 29.3968284,25.1069946 30.8958493,25.1069946 L31.7421388,25.1069946 C31.873891,25.1069946 31.9625299,25.0242129 31.9625299,24.8927187 L31.9625299,22.4603739 C31.9625299,22.3064658 31.8726851,22.2452014 31.7421388,22.2452014 L31.291106,22.2452014 C30.5750612,22.2452014 30.0763925,22.0871095 29.7486701,21.758075 C29.3531119,21.3585118 29.2204552,20.7853164 29.2204552,19.6918221 L29.2204552,4.18805202 C29.2204552,4.06163823 29.1369418,3.97168421 29.0003657,3.97168421 L26.4084343,3.97168421 Z M34.341306,3.97168421 C34.2095537,3.97168421 34.1209149,4.06283363 34.1209149,4.18805202 L34.1209149,20.6696612 C34.1209149,22.4149486 34.5113478,23.2852014 35.1909119,23.942075 C35.9989119,24.7169946 37.3297,25.1069946 38.8272134,25.1069946 L39.6759149,25.1069946 C39.8061597,25.1069946 39.8941955,25.0242129 39.8941955,24.8927187 L39.8941955,22.4603739 C39.8941955,22.3064658 39.8061597,22.2452014 39.6759149,22.2452014 L39.2239776,22.2452014 C38.5070284,22.2452014 38.0092642,22.0871095 37.6815418,21.758075 C37.2865866,21.3585118 37.1512164,20.7853164 37.1512164,19.6918221 L37.1512164,4.18805202 C37.1512164,4.06163823 37.0686075,3.97168421 36.9329358,3.97168421 L34.341306,3.97168421 Z M63.4395567,3.85991409 C61.3707149,3.85991409 59.7426552,4.40531639 58.7082343,5.40258076 C57.4877925,6.57885662 57.1308254,7.98913248 57.1308254,10.254121 L57.1308254,21.9164658 L56.2049418,21.9164658 C56.0852493,21.9164658 55.9869627,22.0135923 55.9869627,22.1337302 L55.9869627,24.6144888 C55.9869627,24.7325348 56.0852493,24.8299601 56.2049418,24.8299601 L61.3393597,24.8299601 C61.4617657,24.8299601 61.5576403,24.7325348 61.5576403,24.6144888 L61.5576403,22.1337302 C61.5576403,22.0135923 61.4617657,21.9164658 61.3393597,21.9164658 L60.1608254,21.9164658 L60.1608254,13.8472014 L64.1335925,13.8472014 C64.2807209,13.8472014 64.3654403,13.7790635 64.3654403,13.6194773 L64.3654403,11.1467877 C64.3654403,11.0114083 64.2921776,10.9337072 64.1281657,10.9337072 L60.1608254,10.9337072 L60.1608254,10.376052 C60.1608254,9.13641984 60.3302642,8.26855777 60.9438015,7.64156926 C61.5754284,6.99993708 62.5148791,6.77131639 63.894509,6.77131639 L64.560506,6.77131639 C64.7160761,6.77131639 64.8442104,6.68763823 64.8442104,6.55823593 L64.8442104,4.07837386 C64.8442104,3.92835087 64.7652194,3.85991409 64.6105537,3.85991409 L63.4395567,3.85991409 Z" id="jellyfish" fill="#FFFFFF"></path>
        </g>
    </g>
</svg>