<?xml version="1.0" encoding="UTF-8"?>
<svg class="search-icon" width="16px" height="16px" viewBox="0 0 16 16" version="1.1" xmlns="http://www.w3.org/2000/svg" xmlns:xlink="http://www.w3.org/1999/xlink">
  <path d="M6.20297313,9.80503145 C4.20983419,9.80503145 2.60091481,8.19611206 2.60091481,6.20297313 C2.60091481,4.20983419 4.20983419,2.60091481 6.20297313,2.60091481 C8.19611206,2.60091481 9.80503145,4.20983419 9.80503145,6.20297313 C9.80503145,8.19611206 8.19611206,9.80503145 6.20297313,9.80503145 Z M11.0057176,9.80503145 L10.3733562,9.80503145 L10.1492281,9.58890795 C10.9336764,8.67638651 11.4059463,7.49170955 11.4059463,6.20297313 C11.4059463,3.32933105 9.07661521,1 6.20297313,1 C3.32933105,1 1,3.32933105 1,6.20297313 C1,9.07661521 3.32933105,11.4059463 6.20297313,11.4059463 C7.49170955,11.4059463 8.67638651,10.9336764 9.58890795,10.1492281 L9.80503145,10.3733562 L9.80503145,11.0057176 L13.8073185,15 L15,13.8073185 L11.0057176,9.80503145 Z" fill="#343434" />
</svg>